<svg width="24" height="24" viewBox="0 0 24 24" fill="none" xmlns="http://www.w3.org/2000/svg">
<path d="M5 21C4.45 21 3.97933 20.8043 3.588 20.413C3.19667 20.0217 3.00067 19.5507 3 19V5C3 4.45 3.196 3.97933 3.588 3.588C3.98 3.19667 4.45067 3.00067 5 3H19C19.55 3 20.021 3.196 20.413 3.588C20.805 3.98 21.0007 4.45067 21 5V19C21 19.55 20.8043 20.021 20.413 20.413C20.0217 20.805 19.5507 21.0007 19 21H5ZM5 19H19V5H5V19Z" fill="#65615E"/>
<path fill-rule="evenodd" clip-rule="evenodd" d="M7 17C6.60948 16.6095 6.60948 15.9763 7 15.5858L15.5858 7C15.9763 6.60948 16.6095 6.60948 17 7C17.3905 7.39052 17.3905 8.02369 17 8.41421L8.41421 17C8.02369 17.3905 7.39052 17.3905 7 17Z" fill="#65615E"/>
</svg>
