<svg width="24" height="24" viewBox="0 0 24 24" fill="none" xmlns="http://www.w3.org/2000/svg">
<path d="M11.9941 22.2034C10.5848 22.2034 9.26038 21.9359 8.02087 21.4009C6.78137 20.8659 5.70162 20.1385 4.78162 19.2186C3.86179 18.2986 3.13437 17.2182 2.59937 15.9774C2.06437 14.7364 1.79688 13.4105 1.79688 11.9996C1.79688 10.5888 2.06437 9.26304 2.59937 8.02238C3.13437 6.78188 3.86179 5.70163 4.78162 4.78163C5.70162 3.86179 6.78204 3.13437 8.02288 2.59937C9.26388 2.06437 10.5898 1.79688 12.0006 1.79688C13.4115 1.79688 14.7372 2.06437 15.9779 2.59937C17.2184 3.13437 18.2986 3.86179 19.2186 4.78163C20.1385 5.70163 20.8659 6.78138 21.4009 8.02088C21.9359 9.26038 22.2034 10.5848 22.2034 11.9941V13.4441C22.2034 14.454 21.85 15.314 21.1431 16.0244C20.4361 16.7347 19.573 17.0899 18.5539 17.0899C17.9577 17.0899 17.3955 16.9629 16.8674 16.7089C16.3392 16.4549 15.9001 16.0865 15.5501 15.6039C15.0828 16.1032 14.543 16.4757 13.9306 16.7214C13.3183 16.967 12.6748 17.0899 12.0001 17.0899C10.589 17.0899 9.38788 16.5944 8.39687 15.6034C7.40588 14.6124 6.91038 13.4113 6.91038 12.0001C6.91038 10.589 7.40588 9.38788 8.39687 8.39687C9.38788 7.40588 10.589 6.91037 12.0001 6.91037C13.4113 6.91037 14.6124 7.40588 15.6034 8.39687C16.5944 9.38788 17.0899 10.589 17.0899 12.0001V13.3964C17.0899 13.8197 17.2295 14.1779 17.5089 14.4709C17.7882 14.7639 18.1385 14.9104 18.5599 14.9104C18.981 14.9104 19.3294 14.7639 19.6049 14.4709C19.8804 14.1779 20.0181 13.8197 20.0181 13.3964V11.9941C20.0181 9.76079 19.2401 7.86713 17.6841 6.31313C16.1281 4.75913 14.2335 3.98213 12.0001 3.98213C9.76679 3.98213 7.87212 4.76013 6.31612 6.31613C4.76012 7.87213 3.98213 9.76679 3.98213 12.0001C3.98213 14.2335 4.75912 16.1281 6.31313 17.6841C7.86713 19.2401 9.76079 20.0181 11.9941 20.0181H15.9104C16.2192 20.0181 16.478 20.1225 16.6869 20.3314C16.8957 20.5402 17.0001 20.799 17.0001 21.1076C17.0001 21.415 16.8957 21.6744 16.6869 21.8859C16.478 22.0975 16.2192 22.2034 15.9104 22.2034H11.9941ZM12.0011 14.9104C12.81 14.9104 13.497 14.6274 14.0624 14.0614C14.6277 13.4952 14.9104 12.8078 14.9104 11.9991C14.9104 11.1903 14.6274 10.5032 14.0614 9.93788C13.4952 9.37254 12.8078 9.08988 11.9991 9.08988C11.1903 9.08988 10.5032 9.37287 9.93788 9.93888C9.37254 10.505 9.08988 11.1925 9.08988 12.0011C9.08988 12.81 9.37287 13.497 9.93888 14.0624C10.505 14.6277 11.1925 14.9104 12.0011 14.9104Z" fill="#65615E"/>
</svg>
