<svg width="24" height="24" viewBox="0 0 24 24" fill="none" xmlns="http://www.w3.org/2000/svg">
<path d="M4.82484 12.0254L8.69984 15.9004C8.88318 16.0837 8.97484 16.3171 8.97484 16.6004C8.97484 16.8837 8.88318 17.1171 8.69984 17.3004C8.51651 17.4837 8.28318 17.5754 7.99984 17.5754C7.71651 17.5754 7.48318 17.4837 7.29984 17.3004L2.69984 12.7004C2.59984 12.6004 2.52884 12.4921 2.48684 12.3754C2.44484 12.2587 2.42451 12.1337 2.42584 12.0004C2.42718 11.8671 2.44818 11.7421 2.48884 11.6254C2.52951 11.5087 2.60018 11.4004 2.70084 11.3004L7.30084 6.70039C7.50084 6.50039 7.73851 6.40039 8.01384 6.40039C8.28918 6.40039 8.52651 6.50039 8.72584 6.70039C8.92518 6.90039 9.02518 7.13806 9.02584 7.41339C9.02651 7.68872 8.92651 7.92606 8.72584 8.12539L4.82484 12.0254ZM19.1748 11.9754L15.2998 8.10039C15.1165 7.91706 15.0248 7.68372 15.0248 7.40039C15.0248 7.11706 15.1165 6.88372 15.2998 6.70039C15.4832 6.51706 15.7165 6.42539 15.9998 6.42539C16.2832 6.42539 16.5165 6.51706 16.6998 6.70039L21.2998 11.3004C21.3998 11.4004 21.4708 11.5087 21.5128 11.6254C21.5548 11.7421 21.5755 11.8671 21.5748 12.0004C21.5742 12.1337 21.5535 12.2587 21.5128 12.3754C21.4722 12.4921 21.4012 12.6004 21.2998 12.7004L16.6998 17.3004C16.4998 17.5004 16.2665 17.5964 15.9998 17.5884C15.7332 17.5804 15.4998 17.4761 15.2998 17.2754C15.0998 17.0747 14.9998 16.8374 14.9998 16.5634C14.9998 16.2894 15.0998 16.0517 15.2998 15.8504L19.1748 11.9754Z" fill="#65615E"/>
</svg>
