<svg width="43" height="44" viewBox="0 0 43 44" fill="none" xmlns="http://www.w3.org/2000/svg">
<path d="M12.0915 31.7587C11.6592 31.7587 11.2943 31.61 10.9967 31.3127C10.6994 31.0152 10.5508 30.6503 10.5508 30.218C10.5508 29.7856 10.6994 29.4207 10.9967 29.1232C11.2943 28.8259 11.6592 28.6772 12.0915 28.6772H13.1626V19.471C13.1626 17.5271 13.7419 15.7934 14.9004 14.2698C16.0587 12.7462 17.5733 11.7506 19.4441 11.2831V10.3996C19.4441 9.7813 19.6591 9.257 20.0892 8.82672C20.5194 8.39667 21.0437 8.18164 21.6621 8.18164C22.2804 8.18164 22.8047 8.39667 23.235 8.82672C23.665 9.257 23.8801 9.7813 23.8801 10.3996V11.2831C25.7563 11.7506 27.2722 12.7448 28.4278 14.2657C29.5836 15.7866 30.1615 17.5217 30.1615 19.471V28.6772H31.2326C31.6649 28.6772 32.0298 28.8259 32.3274 29.1232C32.6247 29.4207 32.7733 29.7856 32.7733 30.218C32.7733 30.6503 32.6247 31.0152 32.3274 31.3127C32.0298 31.61 31.6649 31.7587 31.2326 31.7587H12.0915ZM21.6702 35.9112C20.8981 35.9112 20.2375 35.6379 19.6882 35.0911C19.1387 34.5446 18.864 33.8853 18.864 33.1132H24.4682C24.4682 33.8853 24.1949 34.5446 23.6481 35.0911C23.1013 35.6379 22.442 35.9112 21.6702 35.9112Z" fill="white"/>
<circle cx="29.5041" cy="13.84" r="3.52" fill="#3BD26B" stroke="#181615" stroke-width="0.639999"/>
</svg>
