<svg width="13" height="8" viewBox="0 0 13 8" fill="none" xmlns="http://www.w3.org/2000/svg">
<path d="M6.50156 7.11211C6.35223 7.11211 6.20931 7.08628 6.07281 7.03461C5.93615 6.98294 5.81181 6.90119 5.69981 6.78936L1.10581 2.19536C0.894646 1.98403 0.789062 1.71878 0.789062 1.39961C0.789062 1.08044 0.894646 0.815192 1.10581 0.603859C1.31715 0.392692 1.5824 0.287109 1.90156 0.287109C2.22073 0.287109 2.48598 0.392692 2.69731 0.603859L6.50156 4.40836L10.3058 0.603859C10.5171 0.392692 10.7824 0.287109 11.1016 0.287109C11.4207 0.287109 11.686 0.392692 11.8973 0.603859C12.1085 0.815192 12.2141 1.08044 12.2141 1.39961C12.2141 1.71878 12.1085 1.98403 11.8973 2.19536L7.30331 6.78936C7.19131 6.90119 7.06698 6.98294 6.93031 7.03461C6.79381 7.08628 6.6509 7.11211 6.50156 7.11211Z" fill="#B7B1AA"/>
</svg>
