<svg width="25" height="28" viewBox="0 0 25 28" fill="none" xmlns="http://www.w3.org/2000/svg">
<path d="M20.667 27.3337C19.5559 27.3337 18.6114 26.9448 17.8337 26.167C17.0559 25.3892 16.667 24.4448 16.667 23.3337C16.667 23.2003 16.7003 22.8892 16.767 22.4003L7.40033 16.9337C7.04477 17.267 6.63366 17.5281 6.16699 17.717C5.70033 17.9059 5.20033 18.0003 4.66699 18.0003C3.55588 18.0003 2.61144 17.6114 1.83366 16.8337C1.05588 16.0559 0.666992 15.1114 0.666992 14.0003C0.666992 12.8892 1.05588 11.9448 1.83366 11.167C2.61144 10.3892 3.55588 10.0003 4.66699 10.0003C5.20033 10.0003 5.70033 10.0948 6.16699 10.2837C6.63366 10.4725 7.04477 10.7337 7.40033 11.067L16.767 5.60033C16.7225 5.44477 16.6948 5.29477 16.6837 5.15033C16.6725 5.00588 16.667 4.84477 16.667 4.66699C16.667 3.55588 17.0559 2.61144 17.8337 1.83366C18.6114 1.05588 19.5559 0.666992 20.667 0.666992C21.7781 0.666992 22.7225 1.05588 23.5003 1.83366C24.2781 2.61144 24.667 3.55588 24.667 4.66699C24.667 5.7781 24.2781 6.72255 23.5003 7.50033C22.7225 8.2781 21.7781 8.66699 20.667 8.66699C20.1337 8.66699 19.6337 8.57255 19.167 8.38366C18.7003 8.19477 18.2892 7.93366 17.9337 7.60033L8.56699 13.067C8.61144 13.2225 8.63921 13.3725 8.65033 13.517C8.66144 13.6614 8.66699 13.8225 8.66699 14.0003C8.66699 14.1781 8.66144 14.3392 8.65033 14.4837C8.63921 14.6281 8.61144 14.7781 8.56699 14.9337L17.9337 20.4003C18.2892 20.067 18.7003 19.8059 19.167 19.617C19.6337 19.4281 20.1337 19.3337 20.667 19.3337C21.7781 19.3337 22.7225 19.7225 23.5003 20.5003C24.2781 21.2781 24.667 22.2225 24.667 23.3337C24.667 24.4448 24.2781 25.3892 23.5003 26.167C22.7225 26.9448 21.7781 27.3337 20.667 27.3337Z" fill="white"/>
</svg>
