<svg width="12" height="8" viewBox="0 0 12 8" fill="none" xmlns="http://www.w3.org/2000/svg">
<path d="M6.0001 7.11211C5.85076 7.11211 5.70785 7.08628 5.57135 7.03461C5.43468 6.98294 5.31035 6.90119 5.19835 6.78936L0.604348 2.19536C0.393181 1.98403 0.287598 1.71878 0.287598 1.39961C0.287598 1.08044 0.393181 0.815192 0.604348 0.603859C0.815681 0.392692 1.08093 0.287109 1.4001 0.287109C1.71926 0.287109 1.98451 0.392692 2.19585 0.603859L6.0001 4.40836L9.80435 0.603859C10.0157 0.392692 10.2809 0.287109 10.6001 0.287109C10.9193 0.287109 11.1845 0.392692 11.3958 0.603859C11.607 0.815192 11.7126 1.08044 11.7126 1.39961C11.7126 1.71878 11.607 1.98403 11.3958 2.19536L6.80185 6.78936C6.68985 6.90119 6.56551 6.98294 6.42885 7.03461C6.29235 7.08628 6.14943 7.11211 6.0001 7.11211Z" fill="#181615"/>
</svg>
