<svg width="25" height="26" viewBox="0 0 25 26" fill="none" xmlns="http://www.w3.org/2000/svg">
<path d="M8.58625 0.707743C6.00725 1.58448 3.78312 3.24854 2.24055 5.45552C0.697982 7.6625 -0.0817115 10.2961 0.0159923 12.9694C0.113696 15.6427 1.08365 18.2148 2.78338 20.308C4.48311 22.4012 6.82302 23.9051 9.45942 24.5988C11.5968 25.1392 13.8362 25.163 15.985 24.6679C17.9316 24.2395 19.7313 23.3229 21.2079 22.0081C22.7446 20.5979 23.8601 18.8038 24.4343 16.8189C25.0585 14.6603 25.1696 12.3903 24.759 10.1831H12.7565V15.0621H19.7075C19.5686 15.8403 19.2709 16.583 18.8323 17.2458C18.3936 17.9086 17.823 18.4778 17.1546 18.9195C16.3058 19.4697 15.349 19.8399 14.3455 20.0063C13.3392 20.1897 12.3069 20.1897 11.3005 20.0063C10.2805 19.7997 9.31564 19.3871 8.46728 18.795C7.10439 17.8496 6.08104 16.5065 5.54328 14.9574C4.99642 13.3793 4.99642 11.6684 5.54328 10.0903C5.92607 8.98407 6.55888 7.97689 7.39447 7.1439C8.3507 6.17313 9.56132 5.47923 10.8935 5.13831C12.2257 4.79739 13.628 4.82264 14.9465 5.21127C15.9765 5.52111 16.9183 6.06245 17.697 6.79215C18.4808 6.02806 19.2632 5.26199 20.0443 4.49395C20.4476 4.08094 20.8872 3.6877 21.2845 3.26482C20.0959 2.18088 18.7006 1.33744 17.1788 0.782835C14.4074 -0.203259 11.3751 -0.229759 8.58625 0.707743Z" fill="white"/>
<path d="M8.58468 0.708703C11.3733 -0.229436 14.4056 -0.203633 17.1772 0.781819C18.6993 1.34019 20.0939 2.18769 21.2809 3.27566C20.8776 3.69854 20.4521 4.09376 20.0407 4.50479C19.2583 5.2702 18.4765 6.03297 17.6955 6.79311C16.9168 6.06341 15.9749 5.52207 14.9449 5.21223C13.6268 4.82223 12.2246 4.79553 10.8921 5.13505C9.55953 5.47458 8.34816 6.16721 7.39088 7.13696C6.55529 7.96995 5.92248 8.97713 5.53969 10.0833L1.35938 6.91168C2.85567 4.00397 5.44642 1.7798 8.58468 0.708703Z" fill="#E33629"/>
<path d="M0.250047 10.0522C0.474734 8.96094 0.84776 7.90419 1.35915 6.91016L5.53946 10.0897C4.9926 11.6678 4.9926 13.3787 5.53946 14.9568C4.1467 16.0108 2.75326 17.0699 1.35915 18.1344C0.0789436 15.6372 -0.311497 12.792 0.250047 10.0522Z" fill="#F8BD00"/>
<path d="M12.7509 10.1836H24.7534C25.164 12.3908 25.0529 14.6608 24.4288 16.8193C23.8545 18.8043 22.739 20.5983 21.2023 22.0086C19.8532 20.977 18.4981 19.9534 17.149 18.9219C17.8178 18.4798 18.3887 17.9099 18.8274 17.2464C19.2661 16.5829 19.5635 15.8395 19.702 15.0606H12.7509C12.7489 13.4363 12.7509 11.8099 12.7509 10.1836Z" fill="#587DBD"/>
<path d="M1.35938 18.1346C2.75348 17.0807 4.14692 16.0215 5.53969 14.957C6.07853 16.5067 7.10333 17.8498 8.46772 18.7946C9.31872 19.384 10.2857 19.7932 11.307 19.9961C12.3134 20.1795 13.3456 20.1795 14.352 19.9961C15.3554 19.8296 16.3123 19.4594 17.1611 18.9092C18.5101 19.9408 19.8653 20.9644 21.2143 21.9959C19.738 23.3114 17.9383 24.2287 15.9915 24.6577C13.8427 25.1527 11.6033 25.129 9.46591 24.5885C7.77544 24.1462 6.19643 23.3665 4.82784 22.2982C3.37928 21.1712 2.19615 19.751 1.35938 18.1346Z" fill="#319F43"/>
</svg>
