<svg width="18" height="19" viewBox="0 0 18 19" fill="none" xmlns="http://www.w3.org/2000/svg">
<path d="M3.07187 15.9281H5.86262V10.9998C5.86262 10.6807 5.97238 10.4113 6.19187 10.1916C6.41154 9.97209 6.68096 9.86234 7.00012 9.86234H11.0001C11.3193 9.86234 11.5887 9.97209 11.8084 10.1916C12.0279 10.4113 12.1376 10.6807 12.1376 10.9998V15.9281H14.9284V7.03559L9.00012 2.5896L3.07187 7.03559V15.9281ZM0.796875 15.9281V7.03559C0.796875 6.67609 0.876708 6.33551 1.03638 6.01384C1.19588 5.69218 1.41854 5.42576 1.70438 5.2146L7.63262 0.768344C8.03446 0.461844 8.49029 0.308594 9.00012 0.308594C9.50996 0.308594 9.96579 0.461844 10.3676 0.768344L16.2959 5.2146C16.5817 5.42576 16.8044 5.69218 16.9639 6.01384C17.1235 6.33551 17.2034 6.67609 17.2034 7.03559V15.9281C17.2034 16.5578 16.9816 17.0943 16.5381 17.5378C16.0946 17.9813 15.558 18.2031 14.9284 18.2031H11.0899C10.7705 18.2031 10.5011 18.0933 10.2816 17.8738C10.0621 17.6542 9.95238 17.3848 9.95238 17.0656V12.0476H8.04787V17.0656C8.04787 17.3848 7.93812 17.6542 7.71862 17.8738C7.49912 18.0933 7.22971 18.2031 6.91037 18.2031H3.07187C2.44221 18.2031 1.90562 17.9813 1.46213 17.5378C1.01863 17.0943 0.796875 16.5578 0.796875 15.9281Z" fill="white"/>
</svg>
