<svg width="8" height="12" viewBox="0 0 8 12" fill="none" xmlns="http://www.w3.org/2000/svg">
<path d="M2.99086 6.0001L6.79536 9.80435C7.00653 10.0157 7.11211 10.2809 7.11211 10.6001C7.11211 10.9193 7.00653 11.1845 6.79536 11.3958C6.58403 11.607 6.31878 11.7126 5.99961 11.7126C5.68044 11.7126 5.41519 11.607 5.20386 11.3958L0.609859 6.80185C0.498026 6.68985 0.416276 6.56551 0.36461 6.42885C0.312943 6.29235 0.287109 6.14943 0.287109 6.0001C0.287109 5.85076 0.312943 5.70785 0.36461 5.57135C0.416276 5.43468 0.498026 5.31035 0.609859 5.19835L5.20386 0.604347C5.41519 0.393181 5.68044 0.287598 5.99961 0.287598C6.31878 0.287598 6.58403 0.393181 6.79536 0.604347C7.00653 0.815681 7.11211 1.08093 7.11211 1.4001C7.11211 1.71926 7.00653 1.98451 6.79536 2.19585L2.99086 6.0001Z" fill="white"/>
</svg>
