<svg width="299" height="41" viewBox="0 0 299 41" fill="none" xmlns="http://www.w3.org/2000/svg">
<path d="M270.701 2.50771H276.123V22.6268H277.947L287.582 12.4259H294.623L282.469 25.3248L295.702 39.0459H288.122L277.459 28.0485H276.123V39.0459H270.701V2.50771Z" fill="white"/>
<path d="M252.201 19.8774C252.201 18.507 252.543 17.2565 253.229 16.126C253.931 14.9954 254.856 14.0961 256.004 13.428C257.168 12.7599 258.453 12.4259 259.858 12.4259H265.793V17.8218H259.858C259.241 17.8218 258.71 18.036 258.265 18.4642C257.837 18.8753 257.622 19.3807 257.622 19.9802V39.0458H252.201V19.8774Z" fill="white"/>
<path d="M221.264 22.0358C221.264 20.2714 221.692 18.6612 222.549 17.2052C223.422 15.7491 224.587 14.5928 226.043 13.7363C227.499 12.8627 229.11 12.4259 230.874 12.4259H236.681C238.445 12.4259 240.056 12.8627 241.512 13.7363C242.968 14.5928 244.124 15.7491 244.98 17.2052C245.854 18.6612 246.291 20.2714 246.291 22.0358V29.4359C246.291 31.2003 245.854 32.8105 244.98 34.2666C244.124 35.7226 242.968 36.8875 241.512 37.7611C240.056 38.6176 238.445 39.0458 236.681 39.0458H230.874C229.11 39.0458 227.499 38.6176 226.043 37.7611C224.587 36.8875 223.422 35.7226 222.549 34.2666C221.692 32.8105 221.264 31.2003 221.264 29.4359V22.0358ZM226.686 29.3845C226.686 30.5494 227.097 31.5515 227.919 32.3909C228.741 33.2131 229.726 33.6242 230.874 33.6242H236.681C237.846 33.6242 238.831 33.2131 239.636 32.3909C240.458 31.5515 240.869 30.5494 240.869 29.3845V22.0872C240.869 20.9223 240.458 19.9288 239.636 19.1066C238.831 18.2672 237.846 17.8475 236.681 17.8475H230.874C229.726 17.8475 228.741 18.2672 227.919 19.1066C227.097 19.9288 226.686 20.9223 226.686 22.0872V29.3845Z" fill="white"/>
<path d="M183.39 2.50771L188.169 30.0527L194.747 18.0788H199.86L206.438 30.0527L211.217 2.50771H216.639L210.292 39.0459H205.41L197.291 24.3484L189.197 39.0459H184.289L177.942 2.50771H183.39Z" fill="white"/>
<path fill-rule="evenodd" clip-rule="evenodd" d="M269.649 1.45525H277.175V21.5744H277.493L287.129 11.3735H297.061L283.923 25.3164L298.179 40.0984H287.677L277.175 29.2678V40.0984H269.649V1.45525ZM277.459 28.0485L288.122 39.0459H295.702L282.469 25.3248L294.623 12.4259H287.582L277.947 22.6268H276.123V2.50771H270.701V39.0459H276.123V28.0485H277.459Z" fill="white"/>
<path fill-rule="evenodd" clip-rule="evenodd" d="M253.229 16.126C252.543 17.2565 252.201 18.507 252.201 19.8774V39.0458H257.622V19.9802C257.622 19.3807 257.837 18.8753 258.265 18.4642C258.71 18.036 259.241 17.8218 259.858 17.8218H265.793V12.4259H259.858C258.453 12.4259 257.168 12.7599 256.004 13.428C254.856 14.0961 253.931 14.9954 253.229 16.126ZM252.331 15.5755L252.334 15.5706C253.127 14.2943 254.177 13.2732 255.474 12.5184L255.477 12.5167L255.48 12.515C256.812 11.7513 258.278 11.3734 259.858 11.3734H266.846V18.8743H259.858C259.514 18.8743 259.244 18.9827 258.994 19.2229C258.775 19.4333 258.675 19.664 258.675 19.9802V40.0983H251.148V19.8774C251.148 18.3221 251.54 16.8817 252.328 15.5805L252.331 15.5755Z" fill="white"/>
<path fill-rule="evenodd" clip-rule="evenodd" d="M222.549 17.2052C221.692 18.6612 221.264 20.2714 221.264 22.0358V29.4359C221.264 31.2003 221.692 32.8105 222.549 34.2666C223.422 35.7226 224.587 36.8875 226.043 37.7611C227.499 38.6176 229.11 39.0458 230.874 39.0458H236.681C238.445 39.0458 240.056 38.6176 241.512 37.7611C242.968 36.8875 244.124 35.7226 244.98 34.2666C245.854 32.8105 246.291 31.2003 246.291 29.4359V22.0358C246.291 20.2714 245.854 18.6612 244.98 17.2052C244.124 15.7491 242.968 14.5928 241.512 13.7363C240.056 12.8627 238.445 12.4259 236.681 12.4259H230.874C229.11 12.4259 227.499 12.8627 226.043 13.7363C224.587 14.5928 223.422 15.7491 222.549 17.2052ZM242.049 12.8315C243.656 13.7777 244.939 15.0604 245.885 16.6674C246.859 18.2926 247.343 20.09 247.343 22.0358V29.4359C247.343 31.3818 246.859 33.1791 245.885 34.8043C244.939 36.4108 243.658 37.7008 242.053 38.6636L242.049 38.6659L242.045 38.6683C240.42 39.6242 238.624 40.0983 236.681 40.0983H230.874C228.93 40.0983 227.135 39.6242 225.51 38.6683L225.506 38.6659L225.502 38.6636C223.898 37.7011 222.609 36.4123 221.646 34.8081L221.644 34.8042L221.642 34.8002C220.686 33.1751 220.211 31.3793 220.211 29.4359V22.0358C220.211 20.0925 220.686 18.2967 221.642 16.6715L221.644 16.6676L221.646 16.6637C222.609 15.0589 223.899 13.7773 225.506 12.8313C227.131 11.8573 228.928 11.3734 230.874 11.3734H236.681C238.627 11.3734 240.424 11.8574 242.049 12.8315ZM227.919 32.3909C227.097 31.5515 226.686 30.5494 226.686 29.3845V22.0872C226.686 20.9223 227.097 19.9288 227.919 19.1066C228.741 18.2672 229.726 17.8475 230.874 17.8475H236.681C237.846 17.8475 238.831 18.2672 239.636 19.1066C240.458 19.9288 240.869 20.9223 240.869 22.0872V29.3845C240.869 30.5494 240.458 31.5515 239.636 32.3909C238.831 33.2131 237.846 33.6242 236.681 33.6242H230.874C229.726 33.6242 228.741 33.2131 227.919 32.3909ZM238.884 31.6544C239.515 31.0098 239.817 30.2713 239.817 29.3846V22.0872C239.817 21.2009 239.516 20.4753 238.892 19.8508L238.884 19.843L238.876 19.8351C238.27 19.203 237.559 18.9 236.681 18.9H230.874C230.016 18.9 229.3 19.2004 228.671 19.8431L228.667 19.847L228.663 19.8508C228.039 20.4753 227.738 21.2009 227.738 22.0872V29.3846C227.738 30.2696 228.038 31.0069 228.667 31.6505C229.294 32.2757 230.011 32.5718 230.874 32.5718H236.681C237.567 32.5718 238.28 32.2716 238.884 31.6544Z" fill="white"/>
<path fill-rule="evenodd" clip-rule="evenodd" d="M184.275 1.45525L188.693 26.9138L194.124 17.0264H200.483L205.914 26.9138L210.332 1.45525H217.89L211.178 40.0984H204.789L197.292 26.5275L189.819 40.0984H183.404L176.691 1.45525H184.275ZM197.291 24.3484L205.41 39.0459H210.292L216.639 2.50771H211.217L206.438 30.0527L199.86 18.0788H194.747L188.169 30.0527L183.39 2.50771H177.942L184.289 39.0459H189.197L197.291 24.3484Z" fill="white"/>
<path d="M157.713 18.6126C157.713 17.2422 158.056 15.9917 158.741 14.8612C159.443 13.7306 160.368 12.8313 161.516 12.1632C162.681 11.4951 163.966 11.1611 165.37 11.1611H171.306V16.557H165.37C164.754 16.557 164.222 16.7711 163.777 17.1994C163.349 17.6105 163.135 18.1158 163.135 18.7154V37.781H157.713V18.6126Z" fill="white"/>
<path fill-rule="evenodd" clip-rule="evenodd" d="M157.844 14.3107L157.847 14.3058C158.64 13.0295 159.69 12.0084 160.986 11.2536L160.989 11.2519L160.992 11.2502C162.324 10.4865 163.791 10.1086 165.37 10.1086H172.358V17.6095H165.37C165.026 17.6095 164.756 17.7179 164.507 17.958C164.287 18.1685 164.187 18.3992 164.187 18.7154V38.8335H156.661V18.6126C156.661 17.0573 157.052 15.6169 157.841 14.3157L157.844 14.3107ZM158.741 14.8612C158.056 15.9917 157.713 17.2422 157.713 18.6126V37.781H163.135V18.7154C163.135 18.1158 163.349 17.6105 163.777 17.1994C164.222 16.7711 164.754 16.557 165.37 16.557H171.306V11.1611H165.37C163.966 11.1611 162.681 11.4951 161.516 12.1632C160.368 12.8313 159.443 13.7306 158.741 14.8612Z" fill="white"/>
<path d="M127.341 16.6598C127.341 15.1352 127.898 13.8419 129.012 12.7799C130.125 11.7007 131.461 11.1611 133.02 11.1611H144.12C145.542 11.1611 146.827 11.5122 147.974 12.2146C149.139 12.8998 150.064 13.8334 150.749 15.0153C151.452 16.1802 151.803 17.4735 151.803 18.8953V19.6404C151.803 21.0451 151.452 22.3298 150.749 23.4946C150.064 24.6424 149.139 25.5674 147.974 26.2697C146.827 26.9549 145.542 27.2975 144.12 27.2975H135.846V21.9016H144.172C144.788 21.9016 145.311 21.6789 145.739 21.2335C146.184 20.7881 146.407 20.2485 146.407 19.6147V18.8953C146.407 18.2443 146.184 17.6962 145.739 17.2508C145.311 16.8054 144.788 16.5827 144.172 16.5827H132.763V30.2524C132.763 30.8348 132.96 31.3316 133.354 31.7427C133.748 32.1538 134.228 32.3594 134.793 32.3594H149.927V37.781H134.793C133.423 37.781 132.172 37.447 131.041 36.7789C129.911 36.0937 129.012 35.1858 128.344 34.0553C127.675 32.9076 127.341 31.6485 127.341 30.2781V16.6598Z" fill="white"/>
<path fill-rule="evenodd" clip-rule="evenodd" d="M148.516 27.1722L148.514 27.1734C147.193 27.9622 145.719 28.35 144.12 28.35H134.794V20.8491H144.172C144.501 20.8491 144.75 20.7435 144.98 20.504L144.987 20.4966L144.995 20.4893C145.241 20.2427 145.355 19.9714 145.355 19.6147V18.8953C145.355 18.513 145.236 18.2357 144.995 17.995L144.987 17.9877L144.98 17.9803C144.75 17.7408 144.501 17.6352 144.172 17.6352H133.816V30.2524C133.816 30.5703 133.912 30.8042 134.114 31.0145C134.311 31.2202 134.517 31.3069 134.793 31.3069H150.98V38.8335H134.793C133.243 38.8335 131.806 38.4532 130.506 37.685L130.501 37.682L130.496 37.679C129.218 36.9045 128.194 35.8717 127.437 34.5907L127.436 34.5877L127.434 34.5847C126.669 33.271 126.289 31.8283 126.289 30.2781V16.6598C126.289 14.8459 126.965 13.2793 128.282 12.0212C129.593 10.7525 131.191 10.1086 133.02 10.1086H144.12C145.721 10.1086 147.195 10.5059 148.516 11.3121C149.833 12.0883 150.882 13.1491 151.656 14.4797C152.458 15.8141 152.855 17.2941 152.855 18.8953V19.6404C152.855 21.2292 152.456 22.7022 151.652 24.0361C150.877 25.3339 149.827 26.3815 148.518 27.171L148.516 27.1722ZM150.749 23.4946C151.452 22.3298 151.803 21.0451 151.803 19.6404V18.8953C151.803 17.4735 151.452 16.1802 150.749 15.0153C150.064 13.8334 149.139 12.8998 147.974 12.2146C146.827 11.5122 145.542 11.1611 144.12 11.1611H133.02C131.461 11.1611 130.125 11.7007 129.012 12.7799C127.898 13.8419 127.341 15.1352 127.341 16.6598V30.2781C127.341 31.6485 127.675 32.9076 128.344 34.0553C129.012 35.1858 129.911 36.0937 131.041 36.7789C132.172 37.447 133.423 37.781 134.793 37.781H149.927V32.3594H134.793C134.228 32.3594 133.748 32.1538 133.354 31.7427C132.96 31.3316 132.763 30.8348 132.763 30.2524V16.5827H144.172C144.788 16.5827 145.311 16.8054 145.739 17.2508C146.184 17.6962 146.407 18.2443 146.407 18.8953V19.6147C146.407 20.2485 146.184 20.7881 145.739 21.2335C145.311 21.6789 144.788 21.9016 144.172 21.9016H135.846V27.2975H144.12C145.542 27.2975 146.827 26.9549 147.974 26.2697C149.139 25.5674 150.064 24.6424 150.749 23.4946Z" fill="white"/>
<path d="M92.9103 11.1611L95.968 28.7879L102.546 17.5592H107.659L114.237 28.7879L117.295 11.1611H122.716L118.117 37.7811H113.363L105.115 23.8287L96.8417 37.7811H92.0881L89.7756 24.4711L87.463 11.1611H92.9103Z" fill="white"/>
<path fill-rule="evenodd" clip-rule="evenodd" d="M93.796 10.1087L96.5135 25.7746L101.943 16.5067H108.262L113.692 25.7746L116.409 10.1087H123.966L119.003 38.8336H112.763L105.114 25.8945L97.4411 38.8336H91.2027L86.2119 10.1087H93.796ZM105.115 23.8287L113.363 37.7811H118.117L122.716 11.1611H117.295L114.237 28.7879L107.659 17.5592H102.546L95.968 28.7879L92.9103 11.1611H87.463L89.7756 24.4711L92.0881 37.7811H96.8417L105.115 23.8287Z" fill="white"/>
<path d="M32.4278 1.24289H37.8494V37.7811H32.4278V1.24289Z" fill="white"/>
<path fill-rule="evenodd" clip-rule="evenodd" d="M31.3754 0.19043H38.9019V38.8335H31.3754V0.19043ZM32.4278 1.24289V37.7811H37.8494V1.24289H32.4278Z" fill="white"/>
<path d="M1.79953 1.24289H26.2611V6.63883H7.22116V37.7811H1.79953V1.24289ZM10.3046 16.0689H26.2611V21.4648H10.3046V16.0689Z" fill="white"/>
<path fill-rule="evenodd" clip-rule="evenodd" d="M0.74707 0.19043H27.3136V7.69129H8.27363V38.8335H0.74707V0.19043ZM7.22116 6.63883H26.2611V1.24289H1.79953V37.7811H7.22116V6.63883ZM9.25209 15.0164H27.3136V22.5173H9.25209V15.0164ZM10.3046 16.0689V21.4648H26.2611V16.0689H10.3046Z" fill="white"/>
</svg>
