<svg width="24" height="25" viewBox="0 0 24 25" fill="none" xmlns="http://www.w3.org/2000/svg">
<path d="M4 20.207C3.45 20.207 2.97917 20.0112 2.5875 19.6195C2.19583 19.2279 2 18.757 2 18.207V6.20703C2 5.65703 2.19583 5.1862 2.5875 4.79453C2.97917 4.40286 3.45 4.20703 4 4.20703H20C20.55 4.20703 21.0208 4.40286 21.4125 4.79453C21.8042 5.1862 22 5.65703 22 6.20703V18.207C22 18.757 21.8042 19.2279 21.4125 19.6195C21.0208 20.0112 20.55 20.207 20 20.207H4ZM12 13.032C12.0833 13.032 12.1708 13.0195 12.2625 12.9945C12.3542 12.9695 12.4417 12.932 12.525 12.882L19.6 8.45703C19.7333 8.3737 19.8333 8.26953 19.9 8.14453C19.9667 8.01953 20 7.88203 20 7.73203C20 7.3987 19.8583 7.1487 19.575 6.98203C19.2917 6.81536 19 6.8237 18.7 7.00703L12 11.207L5.3 7.00703C5 6.8237 4.70833 6.81953 4.425 6.99453C4.14167 7.16953 4 7.41536 4 7.73203C4 7.8987 4.03333 8.04453 4.1 8.16953C4.16667 8.29453 4.26667 8.39036 4.4 8.45703L11.475 12.882C11.5583 12.932 11.6458 12.9695 11.7375 12.9945C11.8292 13.0195 11.9167 13.032 12 13.032Z" fill="#181615"/>
</svg>
