<svg width="16" height="15" viewBox="0 0 16 15" fill="none" xmlns="http://www.w3.org/2000/svg">
<path d="M6.76302 8.57513H1.83477C1.5156 8.57513 1.24618 8.46537 1.02652 8.24588C0.807016 8.02621 0.697266 7.75679 0.697266 7.43763C0.697266 7.11846 0.807016 6.84904 1.02652 6.62937C1.24618 6.40987 1.5156 6.30013 1.83477 6.30013H6.76302V1.37188C6.76302 1.05271 6.87277 0.783291 7.09227 0.563625C7.31193 0.344125 7.58135 0.234375 7.90052 0.234375C8.21968 0.234375 8.4891 0.344125 8.70877 0.563625C8.92827 0.783291 9.03802 1.05271 9.03802 1.37188V6.30013H13.9663C14.2854 6.30013 14.5548 6.40987 14.7745 6.62937C14.994 6.84904 15.1038 7.11846 15.1038 7.43763C15.1038 7.75679 14.994 8.02621 14.7745 8.24588C14.5548 8.46537 14.2854 8.57513 13.9663 8.57513H9.03802V13.5034C9.03802 13.8225 8.92827 14.092 8.70877 14.3116C8.4891 14.5311 8.21968 14.6409 7.90052 14.6409C7.58135 14.6409 7.31193 14.5311 7.09227 14.3116C6.87277 14.092 6.76302 13.8225 6.76302 13.5034V8.57513Z" fill="#827E79"/>
</svg>
