<svg width="15" height="16" viewBox="0 0 15 16" fill="none" xmlns="http://www.w3.org/2000/svg">
<path d="M6.32142 9.62285H1.18783C0.85536 9.62285 0.574718 9.50853 0.345898 9.27988C0.117253 9.05106 0.00292969 8.77042 0.00292969 8.43796C0.00292969 8.10549 0.117253 7.82485 0.345898 7.59603C0.574718 7.36738 0.85536 7.25306 1.18783 7.25306H6.32142V2.11947C6.32142 1.787 6.43574 1.50636 6.66439 1.27754C6.89321 1.04889 7.17385 0.93457 7.50632 0.93457C7.83878 0.93457 8.11942 1.04889 8.34824 1.27754C8.57689 1.50636 8.69121 1.787 8.69121 2.11947V7.25306H13.8248C14.1573 7.25306 14.4379 7.36738 14.6667 7.59603C14.8954 7.82485 15.0097 8.10549 15.0097 8.43796C15.0097 8.77042 14.8954 9.05106 14.6667 9.27988C14.4379 9.50853 14.1573 9.62285 13.8248 9.62285H8.69121V14.7564C8.69121 15.0889 8.57689 15.3696 8.34824 15.5984C8.11942 15.827 7.83878 15.9413 7.50632 15.9413C7.17385 15.9413 6.89321 15.827 6.66439 15.5984C6.43574 15.3696 6.32142 15.0889 6.32142 14.7564V9.62285Z" fill="#181615"/>
</svg>
