<svg width="19" height="18" viewBox="0 0 19 18" fill="none" xmlns="http://www.w3.org/2000/svg">
<path d="M8.37192 17.9275C7.96067 17.9275 7.60673 17.7918 7.31011 17.5206C7.01363 17.2493 6.83622 16.9155 6.77789 16.5189L6.58101 15.0699C6.41929 15.0075 6.26587 14.9322 6.12076 14.844C5.97581 14.7559 5.83355 14.6623 5.69398 14.5631L4.34298 15.1318C3.96455 15.2958 3.58429 15.3112 3.2022 15.1782C2.82012 15.0452 2.52357 14.8023 2.31255 14.4493L1.18489 12.4725C0.973723 12.1231 0.912765 11.751 1.00201 11.3562C1.09126 10.9613 1.29601 10.6364 1.61626 10.3815L2.77039 9.50646C2.75931 9.41838 2.75376 9.33394 2.75376 9.25315V8.74609C2.75376 8.6653 2.75931 8.58086 2.77039 8.49278L1.61626 7.62303C1.29251 7.36811 1.08689 7.04319 0.99939 6.64828C0.91189 6.25336 0.973723 5.87952 1.18489 5.52675L2.31255 3.55515C2.52357 3.20574 2.81924 2.96365 3.19958 2.8289C3.57991 2.69415 3.9593 2.70873 4.33773 2.87265L5.70448 3.4414C5.84405 3.34223 5.98733 3.24941 6.13433 3.16293C6.28147 3.0766 6.43037 3.00222 6.58101 2.93981L6.77789 1.48556C6.83622 1.08554 7.01363 0.749902 7.31011 0.478652C7.60673 0.207402 7.96067 0.0717773 8.37192 0.0717773H10.6268C11.038 0.0717773 11.392 0.207402 11.6886 0.478652C11.9851 0.749902 12.1625 1.08554 12.2208 1.48556L12.4177 2.93981C12.5794 3.00222 12.7328 3.0766 12.878 3.16293C13.0229 3.24941 13.1652 3.34223 13.3047 3.4414L14.6557 2.87265C15.0342 2.70873 15.4144 2.69415 15.7965 2.8289C16.1786 2.96365 16.4751 3.20574 16.6862 3.55515L17.8138 5.52675C18.025 5.87952 18.0868 6.25336 17.9993 6.64828C17.9118 7.04319 17.7062 7.36811 17.3825 7.62303L16.2231 8.49278C16.2342 8.58086 16.2397 8.6653 16.2397 8.74609V8.99962C16.2397 9.0877 16.2388 9.17221 16.2371 9.25315C16.2353 9.33394 16.2234 9.41838 16.2012 9.50646L17.3606 10.3762C17.6843 10.6311 17.89 10.956 17.9775 11.351C18.065 11.7459 18.0031 12.1197 17.792 12.4725L16.6424 14.4493C16.4314 14.7988 16.1357 15.0408 15.7554 15.1756C15.3751 15.3103 14.9957 15.2958 14.6172 15.1318L13.2942 14.5631C13.1547 14.6623 13.0114 14.7559 12.8644 14.844C12.7172 14.9322 12.5683 15.0075 12.4177 15.0699L12.2208 16.5189C12.1625 16.9155 11.9851 17.2493 11.6886 17.5206C11.392 17.7918 11.038 17.9275 10.6268 17.9275H8.37192ZM9.52736 12.0621C10.3732 12.0621 11.0951 11.7632 11.693 11.1652C12.2909 10.5673 12.5899 9.84545 12.5899 8.99962C12.5899 8.15379 12.2909 7.43191 11.693 6.834C11.0951 6.23608 10.3732 5.93712 9.52736 5.93712C8.67044 5.93712 7.9458 6.23608 7.35342 6.834C6.76105 7.43191 6.46486 8.15379 6.46486 8.99962C6.46486 9.84545 6.76105 10.5673 7.35342 11.1652C7.9458 11.7632 8.67044 12.0621 9.52736 12.0621Z" fill="white"/>
</svg>
