<svg width="22" height="20" viewBox="0 0 22 20" fill="none" xmlns="http://www.w3.org/2000/svg">
<path d="M18.0984 19.425L14.5984 15.975C14.0151 16.1583 13.4234 16.2958 12.8234 16.3875C12.2234 16.4792 11.6151 16.525 10.9984 16.525C8.7651 16.525 6.72344 15.925 4.87344 14.725C3.02344 13.525 1.57344 11.9417 0.523438 9.975C0.440104 9.825 0.377604 9.67083 0.335938 9.5125C0.294271 9.35417 0.273438 9.19167 0.273438 9.025C0.273438 8.85833 0.294271 8.69583 0.335938 8.5375C0.377604 8.37917 0.440104 8.225 0.523438 8.075C0.890104 7.425 1.28177 6.79167 1.69844 6.175C2.1151 5.55833 2.59844 5.00833 3.14844 4.525L1.07344 2.425C0.890104 2.24167 0.798438 2.0125 0.798438 1.7375C0.798438 1.4625 0.898438 1.225 1.09844 1.025C1.28177 0.841667 1.5151 0.75 1.79844 0.75C2.08177 0.75 2.3151 0.841667 2.49844 1.025L19.4984 18.025C19.6818 18.2083 19.7776 18.4375 19.7859 18.7125C19.7943 18.9875 19.6984 19.225 19.4984 19.425C19.3151 19.6083 19.0818 19.7 18.7984 19.7C18.5151 19.7 18.2818 19.6083 18.0984 19.425ZM10.9984 13.525C11.1818 13.525 11.3568 13.5167 11.5234 13.5C11.6901 13.4833 11.8568 13.45 12.0234 13.4L6.62344 8C6.57344 8.16667 6.5401 8.33333 6.52344 8.5C6.50677 8.66667 6.49844 8.84167 6.49844 9.025C6.49844 10.275 6.93594 11.3375 7.81094 12.2125C8.68594 13.0875 9.74844 13.525 10.9984 13.525ZM10.9984 1.525C13.2318 1.525 15.2776 2.12917 17.1359 3.3375C18.9943 4.54583 20.4484 6.13333 21.4984 8.1C21.5818 8.23333 21.6443 8.37917 21.6859 8.5375C21.7276 8.69583 21.7484 8.85833 21.7484 9.025C21.7484 9.19167 21.7318 9.35417 21.6984 9.5125C21.6651 9.67083 21.6068 9.81667 21.5234 9.95C21.2068 10.5667 20.8526 11.15 20.4609 11.7C20.0693 12.25 19.6318 12.7667 19.1484 13.25C18.9151 13.4833 18.6401 13.5917 18.3234 13.575C18.0068 13.5583 17.7318 13.4333 17.4984 13.2L15.4984 11.2C15.3818 11.0833 15.3068 10.9458 15.2734 10.7875C15.2401 10.6292 15.2484 10.4667 15.2984 10.3C15.3651 10.0833 15.4151 9.875 15.4484 9.675C15.4818 9.475 15.4984 9.25833 15.4984 9.025C15.4984 7.775 15.0609 6.7125 14.1859 5.8375C13.3109 4.9625 12.2484 4.525 10.9984 4.525C10.7651 4.525 10.5484 4.54167 10.3484 4.575C10.1484 4.60833 9.9401 4.65833 9.72344 4.725C9.55677 4.775 9.3901 4.78333 9.22344 4.75C9.05677 4.71667 8.9151 4.64167 8.79844 4.525L7.97344 3.7C7.65677 3.38333 7.5526 3.01667 7.66094 2.6C7.76927 2.18333 8.03177 1.91667 8.44844 1.8C8.8651 1.71667 9.28594 1.65 9.71094 1.6C10.1359 1.55 10.5651 1.525 10.9984 1.525ZM12.9734 7.175C13.1568 7.39167 13.3109 7.62917 13.4359 7.8875C13.5609 8.14583 13.6401 8.41667 13.6734 8.7C13.6901 8.83333 13.6401 8.925 13.5234 8.975C13.4068 9.025 13.2984 9 13.1984 8.9L11.1484 6.85C11.0484 6.75 11.0276 6.64167 11.0859 6.525C11.1443 6.40833 11.2401 6.35 11.3734 6.35C11.6901 6.38333 11.9818 6.47083 12.2484 6.6125C12.5151 6.75417 12.7568 6.94167 12.9734 7.175Z" fill="#827E79"/>
</svg>
