<svg width="12" height="8" viewBox="0 0 12 8" fill="none" xmlns="http://www.w3.org/2000/svg">
<path d="M6.0001 2.99033L2.19585 6.79483C1.98451 7.00599 1.71926 7.11158 1.4001 7.11158C1.08093 7.11158 0.815681 7.00599 0.604348 6.79483C0.393181 6.58349 0.287598 6.31824 0.287598 5.99908C0.287598 5.67991 0.393181 5.41466 0.604348 5.20333L5.19835 0.609328C5.42635 0.381494 5.6936 0.267578 6.0001 0.267578C6.3066 0.267578 6.57385 0.381494 6.80185 0.609328L11.3958 5.20333C11.607 5.41466 11.7126 5.67991 11.7126 5.99908C11.7126 6.31824 11.607 6.58349 11.3958 6.79483C11.1845 7.00599 10.9193 7.11158 10.6001 7.11158C10.2809 7.11158 10.0157 7.00599 9.80435 6.79483L6.0001 2.99033Z" fill="#181615"/>
</svg>
