<svg width="50" height="50" viewBox="0 0 50 50" fill="none" xmlns="http://www.w3.org/2000/svg">
<rect width="50" height="50" rx="10" fill="#BD71D4"/>
<path d="M25.0002 24.8647C23.4537 24.8647 22.1331 24.3173 21.0382 23.2224C19.9433 22.1275 19.3958 20.8068 19.3958 19.2604C19.3958 17.7142 19.9433 16.3948 21.0382 15.3024C22.1331 14.2102 23.4537 13.6641 25.0002 13.6641C26.5466 13.6641 27.8673 14.2102 28.9622 15.3024C30.0571 16.3948 30.6045 17.7142 30.6045 19.2604C30.6045 20.8068 30.0571 22.1275 28.9622 23.2224C27.8673 24.3173 26.5466 24.8647 25.0002 24.8647ZM14.0625 33.0404V32.0534C14.0625 31.2498 14.2703 30.5102 14.6858 29.8344C15.1012 29.1586 15.6549 28.6434 16.3472 28.2887C17.7409 27.5945 19.1596 27.0725 20.6032 26.7227C22.0465 26.373 23.5122 26.1981 25.0002 26.1981C26.4986 26.1981 27.9696 26.3716 29.4132 26.7187C30.8567 27.0658 32.2701 27.5865 33.6532 28.2807C34.3454 28.6354 34.8992 29.1493 35.3145 29.8224C35.7301 30.4957 35.9378 31.2394 35.9378 32.0534V33.0404C35.9378 33.88 35.6422 34.5954 35.0508 35.1867C34.4595 35.7781 33.7441 36.0737 32.9045 36.0737H17.0958C16.2563 36.0737 15.5408 35.7781 14.9495 35.1867C14.3582 34.5954 14.0625 33.88 14.0625 33.0404Z" fill="#181615"/>
</svg>
