<svg width="22" height="17" viewBox="0 0 22 17" fill="none" xmlns="http://www.w3.org/2000/svg">
<path d="M11 12.9997C12.25 12.9997 13.3125 12.5622 14.1875 11.6872C15.0625 10.8122 15.5 9.7497 15.5 8.4997C15.5 7.2497 15.0625 6.1872 14.1875 5.3122C13.3125 4.4372 12.25 3.9997 11 3.9997C9.74999 3.9997 8.68749 4.4372 7.81249 5.3122C6.93749 6.1872 6.49999 7.2497 6.49999 8.4997C6.49999 9.7497 6.93749 10.8122 7.81249 11.6872C8.68749 12.5622 9.74999 12.9997 11 12.9997ZM11.001 11.0742C10.2862 11.0742 9.67824 10.824 9.17724 10.3237C8.67607 9.8232 8.42549 9.21554 8.42549 8.5007C8.42549 7.78587 8.67566 7.17795 9.17599 6.67695C9.67649 6.17579 10.2842 5.9252 10.999 5.9252C11.7138 5.9252 12.3217 6.17537 12.8227 6.6757C13.3239 7.1762 13.5745 7.78387 13.5745 8.4987C13.5745 9.21354 13.3243 9.82145 12.824 10.3225C12.3235 10.8236 11.7158 11.0742 11.001 11.0742ZM11 16.185C8.74282 16.185 6.68141 15.581 4.81574 14.373C2.95024 13.1651 1.48015 11.5659 0.405488 9.5752C0.310155 9.40537 0.239655 9.23029 0.193988 9.04995C0.148322 8.86979 0.125488 8.68637 0.125488 8.4997C0.125488 8.31304 0.148322 8.12962 0.193988 7.94945C0.239655 7.76912 0.310155 7.59404 0.405488 7.4242C1.48015 5.43354 2.95024 3.83429 4.81574 2.62645C6.68141 1.41845 8.74282 0.814453 11 0.814453C13.2572 0.814453 15.3186 1.41845 17.1842 2.62645C19.0497 3.83429 20.5198 5.43354 21.5945 7.4242C21.6898 7.59404 21.7603 7.76912 21.806 7.94945C21.8517 8.12962 21.8745 8.31304 21.8745 8.4997C21.8745 8.68637 21.8517 8.86979 21.806 9.04995C21.7603 9.23029 21.6898 9.40537 21.5945 9.5752C20.5198 11.5659 19.0497 13.1651 17.1842 14.373C15.3186 15.581 13.2572 16.185 11 16.185ZM11.0005 13.9997C12.8795 13.9997 14.6045 13.5029 16.1755 12.5092C17.7465 11.5155 18.9487 10.179 19.782 8.4997C18.9487 6.82037 17.7463 5.48387 16.175 4.4902C14.6037 3.49654 12.8785 2.9997 10.9995 2.9997C9.12049 2.9997 7.39549 3.49654 5.82449 4.4902C4.25349 5.48387 3.05132 6.82037 2.21799 8.4997C3.05132 10.179 4.25365 11.5155 5.82499 12.5092C7.39632 13.5029 9.12149 13.9997 11.0005 13.9997Z" fill="#181615"/>
</svg>
