<svg width="15" height="14" viewBox="0 0 15 14" fill="none" xmlns="http://www.w3.org/2000/svg">
<path d="M7.49998 8.32598L2.44623 13.3797C2.26256 13.5634 2.04156 13.6552 1.78323 13.6552C1.52489 13.6552 1.30389 13.5634 1.12023 13.3797C0.93656 13.1961 0.844727 12.9751 0.844727 12.7167C0.844727 12.4584 0.93656 12.2374 1.12023 12.0537L6.17398 6.99998L1.12023 1.94623C0.93656 1.76256 0.844727 1.54156 0.844727 1.28323C0.844727 1.02489 0.93656 0.803894 1.12023 0.620227C1.30389 0.43656 1.52489 0.344727 1.78323 0.344727C2.04156 0.344727 2.26256 0.43656 2.44623 0.620227L7.49998 5.67398L12.5537 0.620227C12.7374 0.43656 12.9584 0.344727 13.2167 0.344727C13.4751 0.344727 13.6961 0.43656 13.8797 0.620227C14.0634 0.803894 14.1552 1.02489 14.1552 1.28323C14.1552 1.54156 14.0634 1.76256 13.8797 1.94623L8.82598 6.99998L13.8797 12.0537C14.0634 12.2374 14.1552 12.4584 14.1552 12.7167C14.1552 12.9751 14.0634 13.1961 13.8797 13.3797C13.6961 13.5634 13.4751 13.6552 13.2167 13.6552C12.9584 13.6552 12.7374 13.5634 12.5537 13.3797L7.49998 8.32598Z" fill="#171929"/>
</svg>
