<svg width="24" height="24" viewBox="0 0 24 24" fill="none" xmlns="http://www.w3.org/2000/svg">
<path d="M10 19C9.71667 19 9.47934 18.904 9.288 18.712C9.09667 18.52 9.00067 18.2827 9 18C8.99934 17.7173 9.09534 17.48 9.288 17.288C9.48067 17.096 9.718 17 10 17H20C20.2833 17 20.521 17.096 20.713 17.288C20.905 17.48 21.0007 17.7173 21 18C20.9993 18.2827 20.9033 18.5203 20.712 18.713C20.5207 18.9057 20.2833 19.0013 20 19H10ZM10 13C9.71667 13 9.47934 12.904 9.288 12.712C9.09667 12.52 9.00067 12.2827 9 12C8.99934 11.7173 9.09534 11.48 9.288 11.288C9.48067 11.096 9.718 11 10 11H20C20.2833 11 20.521 11.096 20.713 11.288C20.905 11.48 21.0007 11.7173 21 12C20.9993 12.2827 20.9033 12.5203 20.712 12.713C20.5207 12.9057 20.2833 13.0013 20 13H10ZM10 7.00001C9.71667 7.00001 9.47934 6.90401 9.288 6.71201C9.09667 6.52001 9.00067 6.28267 9 6.00001C8.99934 5.71734 9.09534 5.48001 9.288 5.28801C9.48067 5.09601 9.718 5.00001 10 5.00001H20C20.2833 5.00001 20.521 5.09601 20.713 5.28801C20.905 5.48001 21.0007 5.71734 21 6.00001C20.9993 6.28267 20.9033 6.52034 20.712 6.71301C20.5207 6.90567 20.2833 7.00134 20 7.00001H10ZM5 20C4.45 20 3.97934 19.8043 3.588 19.413C3.19667 19.0217 3.00067 18.5507 3 18C2.99934 17.4493 3.19534 16.9787 3.588 16.588C3.98067 16.1973 4.45133 16.0013 5 16C5.54867 15.9987 6.01967 16.1947 6.413 16.588C6.80634 16.9813 7.002 17.452 7 18C6.998 18.548 6.80234 19.019 6.413 19.413C6.02367 19.807 5.55267 20.0027 5 20ZM5 14C4.45 14 3.97934 13.8043 3.588 13.413C3.19667 13.0217 3.00067 12.5507 3 12C2.99934 11.4493 3.19534 10.9787 3.588 10.588C3.98067 10.1973 4.45133 10.0013 5 10C5.54867 9.99867 6.01967 10.1947 6.413 10.588C6.80634 10.9813 7.002 11.452 7 12C6.998 12.548 6.80234 13.019 6.413 13.413C6.02367 13.807 5.55267 14.0027 5 14ZM5 8.00001C4.45 8.00001 3.97934 7.80434 3.588 7.41301C3.19667 7.02167 3.00067 6.55067 3 6.00001C2.99934 5.44934 3.19534 4.97867 3.588 4.58801C3.98067 4.19734 4.45133 4.00134 5 4.00001C5.54867 3.99867 6.01967 4.19467 6.413 4.58801C6.80634 4.98134 7.002 5.45201 7 6.00001C6.998 6.54801 6.80234 7.01901 6.413 7.41301C6.02367 7.80701 5.55267 8.00267 5 8.00001Z" fill="#65615E"/>
</svg>
