<svg width="24" height="24" viewBox="0 0 24 24" fill="none" xmlns="http://www.w3.org/2000/svg">
<path d="M12.0001 17.5001C12.8715 17.5001 13.697 17.3145 14.4769 16.9431C15.2565 16.5716 15.89 16.0292 16.3774 15.3159C16.5725 15.0205 16.6015 14.7275 16.4644 14.4366C16.327 14.1456 16.1004 14.0001 15.7844 14.0001C15.639 14.0001 15.5062 14.0333 15.3859 14.0996C15.2657 14.166 15.1643 14.2595 15.0816 14.3801C14.7103 14.8608 14.2542 15.236 13.7134 15.5059C13.1727 15.7755 12.6016 15.9104 12.0001 15.9104C11.3986 15.9104 10.8275 15.7755 10.2869 15.5059C9.74604 15.236 9.28996 14.8608 8.91862 14.3801C8.82329 14.2595 8.71546 14.166 8.59512 14.0996C8.47496 14.0333 8.34221 14.0001 8.19688 14.0001C7.88088 14.0001 7.65521 14.1445 7.51988 14.4331C7.38454 14.7216 7.41654 15.0072 7.61588 15.2899C8.09921 16.0159 8.73071 16.5658 9.51038 16.9396C10.2902 17.3133 11.1201 17.5001 12.0001 17.5001ZM15.4524 11.0479C15.8849 11.0479 16.251 10.898 16.5506 10.5984C16.8503 10.2989 17.0001 9.93279 17.0001 9.50013C17.0001 9.06746 16.8503 8.70138 16.5506 8.40188C16.251 8.10221 15.8849 7.95238 15.4524 7.95238C15.0237 7.95238 14.6595 8.10313 14.3599 8.40462C14.0602 8.70629 13.9104 9.07146 13.9104 9.50013C13.9104 9.92879 14.0602 10.294 14.3599 10.5956C14.6595 10.8971 15.0237 11.0479 15.4524 11.0479ZM8.54788 11.0479C8.97654 11.0479 9.34071 10.8971 9.64037 10.5956C9.94004 10.294 10.0899 9.92879 10.0899 9.50013C10.0899 9.07146 9.94004 8.70629 9.64037 8.40462C9.34071 8.10313 8.97654 7.95238 8.54788 7.95238C8.11538 7.95238 7.74929 8.10221 7.44963 8.40188C7.14996 8.70138 7.00013 9.06746 7.00013 9.50013C7.00013 9.93279 7.14996 10.2989 7.44963 10.5984C7.74929 10.898 8.11538 11.0479 8.54788 11.0479ZM12.0001 22.2034C10.589 22.2034 9.26304 21.9359 8.02238 21.4009C6.78188 20.8659 5.70162 20.1385 4.78162 19.2186C3.86179 18.2986 3.13437 17.2184 2.59937 15.9779C2.06437 14.7372 1.79688 13.4113 1.79688 12.0001C1.79688 10.589 2.06437 9.26304 2.59937 8.02238C3.13437 6.78188 3.86179 5.70163 4.78162 4.78163C5.70162 3.86179 6.78188 3.13437 8.02238 2.59937C9.26304 2.06437 10.589 1.79688 12.0001 1.79688C13.4113 1.79688 14.7372 2.06437 15.9779 2.59937C17.2184 3.13437 18.2986 3.86179 19.2186 4.78163C20.1385 5.70163 20.8659 6.78188 21.4009 8.02238C21.9359 9.26304 22.2034 10.589 22.2034 12.0001C22.2034 13.4113 21.9359 14.7372 21.4009 15.9779C20.8659 17.2184 20.1385 18.2986 19.2186 19.2186C18.2986 20.1385 17.2184 20.8659 15.9779 21.4009C14.7372 21.9359 13.4113 22.2034 12.0001 22.2034ZM12.0001 19.9284C14.2096 19.9284 16.0834 19.1594 17.6214 17.6214C19.1594 16.0834 19.9284 14.2096 19.9284 12.0001C19.9284 9.79063 19.1594 7.91688 17.6214 6.37888C16.0834 4.84088 14.2096 4.07188 12.0001 4.07188C9.79063 4.07188 7.91687 4.84088 6.37888 6.37888C4.84087 7.91688 4.07187 9.79063 4.07187 12.0001C4.07187 14.2096 4.84087 16.0834 6.37888 17.6214C7.91687 19.1594 9.79063 19.9284 12.0001 19.9284Z" fill="#65615E"/>
</svg>
