<svg width="24" height="24" viewBox="0 0 24 24" fill="none" xmlns="http://www.w3.org/2000/svg">
<path d="M5.7 18L8 14C6.9 14 5.95833 13.6083 5.175 12.825C4.39167 12.0417 4 11.1 4 10C4 8.9 4.39167 7.95833 5.175 7.175C5.95833 6.39167 6.9 6 8 6C9.1 6 10.0417 6.39167 10.825 7.175C11.6083 7.95833 12 8.9 12 10C12 10.3833 11.9543 10.7377 11.863 11.063C11.7717 11.3883 11.634 11.7007 11.45 12L8 18H5.7ZM14.7 18L17 14C15.9 14 14.9583 13.6083 14.175 12.825C13.3917 12.0417 13 11.1 13 10C13 8.9 13.3917 7.95833 14.175 7.175C14.9583 6.39167 15.9 6 17 6C18.1 6 19.0417 6.39167 19.825 7.175C20.6083 7.95833 21 8.9 21 10C21 10.3833 20.9543 10.7377 20.863 11.063C20.7717 11.3883 20.634 11.7007 20.45 12L17 18H14.7Z" fill="#65615E"/>
</svg>
