<svg width="24" height="24" viewBox="0 0 24 24" fill="none" xmlns="http://www.w3.org/2000/svg">
<path d="M6.80078 19V5H12.3258C13.4091 5 14.4091 5.33333 15.3258 6C16.2424 6.66667 16.7008 7.59167 16.7008 8.775C16.7008 9.625 16.5091 10.2793 16.1258 10.738C15.7424 11.1967 15.3841 11.5257 15.0508 11.725C15.4674 11.9083 15.9301 12.25 16.4388 12.75C16.9474 13.25 17.2014 14 17.2008 15C17.2008 16.4833 16.6591 17.521 15.5758 18.113C14.4924 18.705 13.4758 19.0007 12.5258 19H6.80078ZM9.82578 16.2H12.4258C13.2258 16.2 13.7134 15.996 13.8888 15.588C14.0641 15.18 14.1514 14.884 14.1508 14.7C14.1501 14.516 14.0628 14.2203 13.8888 13.813C13.7148 13.4057 13.2021 13.2013 12.3508 13.2H9.82578V16.2ZM9.82578 10.5H12.1508C12.7008 10.5 13.1008 10.3583 13.3508 10.075C13.6008 9.79167 13.7258 9.475 13.7258 9.125C13.7258 8.725 13.5841 8.4 13.3008 8.15C13.0174 7.9 12.6508 7.775 12.2008 7.775H9.82578V10.5Z" fill="#65615E"/>
</svg>
