<svg width="24" height="24" viewBox="0 0 24 24" fill="none" xmlns="http://www.w3.org/2000/svg">
<path d="M11.9975 14.2758C11.1008 14.2758 10.3389 13.962 9.71172 13.3345C9.08455 12.707 8.77097 11.945 8.77097 11.0485V5.09053C8.77097 4.19403 9.0848 3.43203 9.71247 2.80453C10.3401 2.17703 11.1023 1.86328 11.999 1.86328C12.8956 1.86328 13.6575 2.17703 14.2847 2.80453C14.9119 3.43203 15.2255 4.19403 15.2255 5.09053V11.0485C15.2255 11.945 14.9116 12.707 14.284 13.3345C13.6563 13.962 12.8941 14.2758 11.9975 14.2758ZM10.9085 20.2758V18.2665C9.31947 18.0459 7.96013 17.3739 6.83047 16.2508C5.70097 15.1276 5.01355 13.7651 4.76822 12.1633C4.72705 11.8561 4.80805 11.5935 5.01122 11.3755C5.21455 11.1575 5.4698 11.0485 5.77697 11.0485C6.0843 11.0485 6.34472 11.1544 6.55822 11.366C6.77188 11.5775 6.91605 11.8369 6.99072 12.1443C7.24388 13.3269 7.84197 14.2943 8.78497 15.0463C9.7278 15.7981 10.7988 16.174 11.998 16.174C13.2141 16.174 14.2895 15.7939 15.224 15.0338C16.1586 14.2734 16.7525 13.3103 17.0057 12.1443C17.0804 11.8369 17.2245 11.5775 17.4382 11.366C17.6517 11.1544 17.9121 11.0485 18.2195 11.0485C18.5266 11.0485 18.7809 11.1585 18.9822 11.3785C19.1835 11.5984 19.2636 11.8619 19.2222 12.1693C18.9769 13.7378 18.2946 15.0909 17.1755 16.2288C16.0561 17.3666 14.6936 18.0459 13.088 18.2665V20.2758C13.088 20.5844 12.9836 20.8433 12.7747 21.0523C12.5657 21.2611 12.3069 21.3655 11.9982 21.3655C11.6895 21.3655 11.4307 21.2611 11.2217 21.0523C11.0129 20.8433 10.9085 20.5844 10.9085 20.2758ZM11.9982 12.0008C12.268 12.0008 12.4942 11.9095 12.6767 11.727C12.8592 11.5445 12.9505 11.3184 12.9505 11.0485V5.09053C12.9505 4.8207 12.8592 4.59453 12.6767 4.41203C12.4942 4.22953 12.268 4.13828 11.9982 4.13828C11.7284 4.13828 11.5022 4.22953 11.3197 4.41203C11.1372 4.59453 11.046 4.8207 11.046 5.09053V11.0485C11.046 11.3184 11.1372 11.5445 11.3197 11.727C11.5022 11.9095 11.7284 12.0008 11.9982 12.0008Z" fill="#65615E"/>
</svg>
