<svg width="24" height="24" viewBox="0 0 24 24" fill="none" xmlns="http://www.w3.org/2000/svg">
<path d="M8.19037 18.25C6.40521 18.25 4.89329 17.6139 3.65462 16.3415C2.41612 15.069 1.79688 13.5362 1.79688 11.743C1.79688 9.94988 2.41612 8.41913 3.65462 7.1508C4.89329 5.8823 6.40521 5.24805 8.19037 5.24805H17.5719C18.8657 5.24805 19.9611 5.70746 20.8581 6.6263C21.755 7.54513 22.2034 8.65546 22.2034 9.9573C22.2034 11.259 21.755 12.3673 20.8581 13.2823C19.9611 14.1971 18.8657 14.6545 17.5719 14.6545H8.69638C7.89388 14.6545 7.21496 14.3709 6.65963 13.8035C6.10446 13.2364 5.82688 12.5495 5.82688 11.743C5.82688 10.9365 6.10446 10.2517 6.65963 9.68855C7.21496 9.12521 7.89388 8.84355 8.69638 8.84355H16.8386C17.15 8.84355 17.4124 8.95038 17.6259 9.16405C17.8395 9.37755 17.9464 9.63996 17.9464 9.9513C17.9464 10.2625 17.8395 10.5249 17.6259 10.7385C17.4124 10.952 17.15 11.0588 16.8386 11.0588H8.69638C8.50354 11.0588 8.34529 11.1236 8.22162 11.2533C8.09779 11.3831 8.03587 11.5464 8.03587 11.743C8.03587 11.9399 8.09679 12.1051 8.21863 12.2388C8.34029 12.3725 8.49954 12.4393 8.69638 12.4393H17.5659C18.2499 12.4266 18.8256 12.1818 19.2931 11.7048C19.7605 11.2278 19.9941 10.6453 19.9941 9.9573C19.9941 9.26913 19.7615 8.68138 19.2961 8.19405C18.8306 7.70688 18.2559 7.4633 17.5719 7.4633H8.19037C7.01504 7.45046 6.02379 7.86571 5.21663 8.70905C4.40963 9.55238 4.00613 10.5657 4.00613 11.749C4.00613 12.9197 4.40963 13.9204 5.21663 14.751C6.02379 15.5815 7.01504 16.0095 8.19037 16.0348H17.0659C17.377 16.0348 17.6395 16.1416 17.8531 16.3553C18.0666 16.569 18.1734 16.8314 18.1734 17.1425C18.1734 17.4537 18.0666 17.7161 17.8531 17.9298C17.6395 18.1433 17.377 18.25 17.0659 18.25H8.19037Z" fill="#65615E"/>
</svg>
