<svg width="13" height="7" viewBox="0 0 13 7" fill="none" xmlns="http://www.w3.org/2000/svg">
<path d="M6.50078 2.80039L2.60078 6.70039C2.41745 6.88372 2.18411 6.97539 1.90078 6.97539C1.61745 6.97539 1.38411 6.88372 1.20078 6.70039C1.01745 6.51706 0.925781 6.28372 0.925781 6.00039C0.925781 5.71706 1.01745 5.48372 1.20078 5.30039L5.80078 0.700391C6.00078 0.500391 6.23411 0.400391 6.50078 0.400391C6.76745 0.400391 7.00078 0.500391 7.20078 0.700391L11.8008 5.30039C11.9841 5.48372 12.0758 5.71706 12.0758 6.00039C12.0758 6.28372 11.9841 6.51706 11.8008 6.70039C11.6174 6.88372 11.3841 6.97539 11.1008 6.97539C10.8174 6.97539 10.5841 6.88372 10.4008 6.70039L6.50078 2.80039Z" fill="#B7B1AA"/>
</svg>
