<svg width="26" height="30" viewBox="0 0 26 30" fill="none" xmlns="http://www.w3.org/2000/svg">
<rect x="0.5" y="-0.5" width="24.1685" height="29" rx="5.5" transform="matrix(-1 0 0 1 26 1)" fill="#181615"/>
<rect x="0.5" y="-0.5" width="24.1685" height="29" rx="5.5" transform="matrix(-1 0 0 1 26 1)" stroke="white"/>
<path d="M12.6713 15L16.6673 11.0043C16.8891 10.7823 17 10.5037 17 10.1685C17 9.83326 16.8891 9.55466 16.6673 9.33269C16.4453 9.1109 16.1667 9 15.8315 9C15.4963 9 15.2177 9.1109 14.9957 9.33269L10.1705 14.1579C10.053 14.2755 9.96718 14.4061 9.91291 14.5497C9.85864 14.693 9.83151 14.8432 9.83151 15C9.83151 15.1568 9.85864 15.307 9.91291 15.4503C9.96718 15.5939 10.053 15.7245 10.1705 15.8421L14.9957 20.6673C15.2177 20.8891 15.4963 21 15.8315 21C16.1667 21 16.4453 20.8891 16.6673 20.6673C16.8891 20.4453 17 20.1667 17 19.8315C17 19.4963 16.8891 19.2177 16.6673 18.9957L12.6713 15Z" fill="white"/>
</svg>
