<svg width="22" height="24" viewBox="0 0 22 24" fill="none" xmlns="http://www.w3.org/2000/svg">
<path d="M11.0002 11.8647C9.45372 11.8647 8.13306 11.3173 7.03817 10.2224C5.94328 9.12751 5.39583 7.80684 5.39583 6.2604C5.39583 4.71417 5.94328 3.39484 7.03817 2.3024C8.13306 1.21017 9.45372 0.664062 11.0002 0.664062C12.5466 0.664062 13.8673 1.21017 14.9622 2.3024C16.0571 3.39484 16.6045 4.71417 16.6045 6.2604C16.6045 7.80684 16.0571 9.12751 14.9622 10.2224C13.8673 11.3173 12.5466 11.8647 11.0002 11.8647ZM0.0625 20.0404V19.0534C0.0625 18.2483 0.270722 17.5084 0.687167 16.8337C1.10361 16.1588 1.65694 15.6438 2.34717 15.2887C3.74094 14.5945 5.1595 14.0725 6.60283 13.7227C8.04594 13.373 9.51172 13.1981 11.0002 13.1981C12.4986 13.1981 13.9696 13.3716 15.4132 13.7187C16.8567 14.0658 18.2701 14.5865 19.6532 15.2807C20.3434 15.6352 20.8967 16.1491 21.3132 16.8224C21.7296 17.4957 21.9378 18.2394 21.9378 19.0534V20.0404C21.9378 20.88 21.6422 21.5954 21.0508 22.1867C20.4595 22.7781 19.7441 23.0737 18.9045 23.0737H3.09583C2.25628 23.0737 1.54083 22.7781 0.9495 22.1867C0.358167 21.5954 0.0625 20.88 0.0625 20.0404ZM3.09583 20.0404H18.9045V19.0931C18.9045 18.8537 18.8434 18.6362 18.7212 18.4404C18.5989 18.2446 18.4378 18.0924 18.2378 17.9837C17.0698 17.4051 15.8826 16.9684 14.6762 16.6737C13.4699 16.3788 12.2446 16.2314 11.0002 16.2314C9.76639 16.2314 8.54106 16.3788 7.32417 16.6737C6.10728 16.9684 4.92006 17.4051 3.7625 17.9837C3.5625 18.0924 3.40139 18.2446 3.27917 18.4404C3.15694 18.6362 3.09583 18.8537 3.09583 19.0931V20.0404ZM10.9998 8.8314C11.7067 8.8314 12.3121 8.57973 12.8158 8.0764C13.3194 7.57306 13.5712 6.96784 13.5712 6.26073C13.5712 5.55384 13.3195 4.94995 12.8162 4.44906C12.3126 3.94795 11.7074 3.6974 11.0005 3.6974C10.2936 3.6974 9.68828 3.9484 9.1845 4.4504C8.68095 4.9524 8.42917 5.55573 8.42917 6.2604C8.42917 6.96751 8.68083 7.57284 9.18417 8.0764C9.68772 8.57973 10.2929 8.8314 10.9998 8.8314Z" fill="white"/>
</svg>
