<svg width="22" height="17" viewBox="0 0 22 17" fill="none" xmlns="http://www.w3.org/2000/svg">
<path d="M17.1553 7.38022H15.3654C15.0864 7.38022 14.8525 7.28463 14.6637 7.09344C14.4749 6.90225 14.3805 6.66537 14.3805 6.38279C14.3805 6.10006 14.4749 5.86309 14.6637 5.67191C14.8525 5.48072 15.0864 5.38513 15.3654 5.38513H17.1553V3.57234C17.1553 3.28976 17.2497 3.05288 17.4385 2.86169C17.6273 2.67051 17.8613 2.57491 18.1404 2.57491C18.4195 2.57491 18.6534 2.67051 18.8421 2.86169C19.0309 3.05288 19.1253 3.28976 19.1253 3.57234V5.38513H20.9153C21.1945 5.38513 21.4284 5.48072 21.6172 5.67191C21.806 5.86309 21.9004 6.10006 21.9004 6.38279C21.9004 6.66537 21.806 6.90225 21.6172 7.09344C21.4284 7.28463 21.1945 7.38022 20.9153 7.38022H19.1253V9.19301C19.1253 9.47574 19.0309 9.7127 18.8421 9.90389C18.6534 10.0951 18.4195 10.1907 18.1404 10.1907C17.8613 10.1907 17.6273 10.0951 17.4385 9.90389C17.2497 9.7127 17.1553 9.47574 17.1553 9.19301V7.38022ZM8.61133 8.43453C7.52111 8.43453 6.59005 8.04366 5.81816 7.26194C5.04628 6.48021 4.66034 5.53728 4.66034 4.43316C4.66034 3.32919 5.04628 2.38721 5.81816 1.60723C6.59005 0.827412 7.52111 0.4375 8.61133 0.4375C9.70141 0.4375 10.6325 0.827412 11.4045 1.60723C12.1764 2.38721 12.5623 3.32919 12.5623 4.43316C12.5623 5.53728 12.1764 6.48021 11.4045 7.26194C10.6325 8.04366 9.70141 8.43453 8.61133 8.43453ZM0.900391 14.2718V13.5671C0.900391 12.9922 1.04719 12.464 1.34077 11.9823C1.63436 11.5004 2.02446 11.1327 2.51106 10.8792C3.49366 10.3835 4.49365 10.0108 5.51102 9.7611C6.52856 9.51136 7.562 9.3865 8.61133 9.3865C9.66772 9.3865 10.7048 9.51041 11.7225 9.75824C12.7401 10.0061 13.7365 10.3778 14.7114 10.8735C15.198 11.1265 15.5881 11.4934 15.8819 11.9742C16.1755 12.4549 16.3223 12.9859 16.3223 13.5671V14.2718C16.3223 14.8712 16.1138 15.382 15.697 15.8042C15.2801 16.2264 14.7757 16.4375 14.1838 16.4375H3.03886C2.44682 16.4375 1.94244 16.2264 1.52572 15.8042C1.10883 15.382 0.900391 14.8712 0.900391 14.2718ZM3.03886 14.2718H14.1838V13.5954C14.1838 13.4245 14.1407 13.2692 14.0546 13.1294C13.9684 12.9896 13.8548 12.8809 13.7138 12.8034C12.8902 12.3902 12.0533 12.0784 11.2029 11.868C10.3525 11.6575 9.48866 11.5522 8.61133 11.5522C7.74153 11.5522 6.87761 11.6575 6.01956 11.868C5.16166 12.0784 4.32476 12.3902 3.50885 12.8034C3.36785 12.8809 3.25427 12.9896 3.16811 13.1294C3.08194 13.2692 3.03886 13.4245 3.03886 13.5954V14.2718ZM8.6111 6.26879C9.10945 6.26879 9.53612 6.08911 9.89113 5.72974C10.2463 5.37037 10.4239 4.93826 10.4239 4.43339C10.4239 3.92869 10.2464 3.49753 9.89136 3.13991C9.53652 2.78212 9.10992 2.60323 8.61157 2.60323C8.11306 2.60323 7.68631 2.78244 7.33131 3.14086C6.97631 3.49927 6.79881 3.93004 6.79881 4.43316C6.79881 4.93802 6.97623 5.37021 7.33107 5.72974C7.68607 6.08911 8.11275 6.26879 8.6111 6.26879Z" fill="#B7B1AA"/>
</svg>
