<svg width="22" height="14" viewBox="0 0 22 14" fill="none" xmlns="http://www.w3.org/2000/svg">
<path d="M7.09077 13.6885C5.3056 13.6885 3.79368 13.0524 2.55502 11.78C1.31652 10.5075 0.697266 8.97469 0.697266 7.18152C0.697266 5.38836 1.31652 3.85761 2.55502 2.58927C3.79368 1.32077 5.3056 0.686523 7.09077 0.686523H16.4723C17.7661 0.686523 18.8615 1.14594 19.7585 2.06477C20.6553 2.98361 21.1038 4.09394 21.1038 5.39577C21.1038 6.69744 20.6553 7.80577 19.7585 8.72077C18.8615 9.63561 17.7661 10.093 16.4723 10.093H7.59677C6.79427 10.093 6.11535 9.80936 5.56002 9.24202C5.00485 8.67486 4.72727 7.98802 4.72727 7.18152C4.72727 6.37502 5.00485 5.69019 5.56002 5.12702C6.11535 4.56369 6.79427 4.28202 7.59677 4.28202H15.739C16.0503 4.28202 16.3128 4.38886 16.5263 4.60252C16.7399 4.81602 16.8468 5.07844 16.8468 5.38977C16.8468 5.70094 16.7399 5.96336 16.5263 6.17702C16.3128 6.39052 16.0503 6.49727 15.739 6.49727H7.59677C7.40393 6.49727 7.24568 6.56211 7.12202 6.69177C6.99818 6.82161 6.93627 6.98486 6.93627 7.18152C6.93627 7.37836 6.99718 7.54361 7.11902 7.67727C7.24068 7.81094 7.39993 7.87777 7.59677 7.87777H16.4663C17.1503 7.86511 17.726 7.62027 18.1935 7.14327C18.6608 6.66627 18.8945 6.08377 18.8945 5.39577C18.8945 4.70761 18.6618 4.11986 18.1965 3.63252C17.731 3.14536 17.1563 2.90177 16.4723 2.90177H7.09077C5.91543 2.88894 4.92418 3.30419 4.11702 4.14752C3.31002 4.99086 2.90652 6.00419 2.90652 7.18752C2.90652 8.35819 3.31002 9.35886 4.11702 10.1895C4.92418 11.02 5.91543 11.4479 7.09077 11.4733H15.9663C16.2774 11.4733 16.5398 11.5801 16.7535 11.7938C16.967 12.0074 17.0738 12.2699 17.0738 12.581C17.0738 12.8922 16.967 13.1546 16.7535 13.3683C16.5398 13.5818 16.2774 13.6885 15.9663 13.6885H7.09077Z" fill="#B7B1AA"/>
</svg>
