<svg width="22" height="14" viewBox="0 0 22 14" fill="none" xmlns="http://www.w3.org/2000/svg">
<path d="M7.19037 13.25C5.40521 13.25 3.89329 12.6139 2.65462 11.3415C1.41612 10.069 0.796875 8.53621 0.796875 6.74305C0.796875 4.94988 1.41612 3.41913 2.65462 2.1508C3.89329 0.882297 5.40521 0.248047 7.19037 0.248047H16.5719C17.8657 0.248047 18.9611 0.707464 19.8581 1.6263C20.755 2.54513 21.2034 3.65546 21.2034 4.9573C21.2034 6.25896 20.755 7.3673 19.8581 8.2823C18.9611 9.19713 17.8657 9.65455 16.5719 9.65455H7.69638C6.89388 9.65455 6.21496 9.37088 5.65963 8.80355C5.10446 8.23638 4.82688 7.54955 4.82688 6.74305C4.82688 5.93655 5.10446 5.25171 5.65963 4.68855C6.21496 4.12521 6.89388 3.84355 7.69638 3.84355H15.8386C16.15 3.84355 16.4124 3.95038 16.6259 4.16405C16.8395 4.37755 16.9464 4.63996 16.9464 4.9513C16.9464 5.26246 16.8395 5.52488 16.6259 5.73855C16.4124 5.95205 16.15 6.0588 15.8386 6.0588H7.69638C7.50354 6.0588 7.34529 6.12363 7.22162 6.2533C7.09779 6.38313 7.03587 6.54638 7.03587 6.74305C7.03587 6.93988 7.09679 7.10513 7.21863 7.2388C7.34029 7.37246 7.49954 7.4393 7.69638 7.4393H16.5659C17.2499 7.42663 17.8256 7.1818 18.2931 6.7048C18.7605 6.2278 18.9941 5.6453 18.9941 4.9573C18.9941 4.26913 18.7615 3.68138 18.2961 3.19405C17.8306 2.70688 17.2559 2.4633 16.5719 2.4633H7.19037C6.01504 2.45046 5.02379 2.86571 4.21663 3.70905C3.40963 4.55238 3.00613 5.56571 3.00613 6.74905C3.00613 7.91971 3.40963 8.92038 4.21663 9.75105C5.02379 10.5815 6.01504 11.0095 7.19037 11.0348H16.0659C16.377 11.0348 16.6395 11.1416 16.8531 11.3553C17.0666 11.569 17.1734 11.8314 17.1734 12.1425C17.1734 12.4537 17.0666 12.7161 16.8531 12.9298C16.6395 13.1433 16.377 13.25 16.0659 13.25H7.19037Z" fill="#181615"/>
</svg>
