<svg width="18" height="22" viewBox="0 0 18 22" fill="none" xmlns="http://www.w3.org/2000/svg">
<path d="M1.93437 18.2034C1.61521 18.2034 1.34579 18.0936 1.12612 17.8741C0.906625 17.6545 0.796875 17.385 0.796875 17.0659C0.796875 16.7467 0.906625 16.4773 1.12612 16.2576C1.34579 16.0381 1.61521 15.9284 1.93437 15.9284H2.72512V9.13163C2.72512 7.69646 3.15279 6.41646 4.00813 5.29162C4.86329 4.16679 5.98146 3.43179 7.36262 3.08663V2.43438C7.36262 1.97787 7.52137 1.59079 7.83887 1.27312C8.15654 0.955625 8.54362 0.796875 9.00012 0.796875C9.45662 0.796875 9.84371 0.955625 10.1614 1.27312C10.4789 1.59079 10.6376 1.97787 10.6376 2.43438V3.08663C12.0228 3.43179 13.142 4.16579 13.9951 5.28862C14.8485 6.41146 15.2751 7.69246 15.2751 9.13163V15.9284H16.0659C16.385 15.9284 16.6545 16.0381 16.8741 16.2576C17.0936 16.4773 17.2034 16.7467 17.2034 17.0659C17.2034 17.385 17.0936 17.6545 16.8741 17.8741C16.6545 18.0936 16.385 18.2034 16.0659 18.2034H1.93437ZM9.00612 21.2691C8.43612 21.2691 7.94837 21.0673 7.54287 20.6636C7.13721 20.2601 6.93437 19.7734 6.93437 19.2034H11.0719C11.0719 19.7734 10.87 20.2601 10.4664 20.6636C10.0627 21.0673 9.57596 21.2691 9.00612 21.2691Z" fill="#171929"/>
</svg>
