<svg width="20" height="19" viewBox="0 0 20 19" fill="none" xmlns="http://www.w3.org/2000/svg">
<mask id="path-1-inside-1_958_18726" fill="white">
<path d="M11.9898 12.4379C11.6704 12.4379 11.401 12.3281 11.1815 12.1086C10.962 11.8889 10.8523 11.6195 10.8523 11.3004V1.2166C10.8523 0.897435 10.962 0.628101 11.1815 0.408601C11.401 0.188935 11.6704 0.0791016 11.9898 0.0791016H18.1213C18.4404 0.0791016 18.7098 0.188935 18.9293 0.408601C19.1489 0.628101 19.2588 0.897435 19.2588 1.2166V11.3004C19.2588 11.6195 19.1489 11.8889 18.9293 12.1086C18.7098 12.3281 18.4404 12.4379 18.1213 12.4379H11.9898ZM1.67852 18.5754C1.35935 18.5754 1.09002 18.4655 0.870516 18.2459C0.650849 18.0264 0.541016 17.757 0.541016 17.4379L0.541266 1.2166C0.541266 0.897435 0.6511 0.628101 0.870766 0.408601C1.09027 0.188935 1.3596 0.0791016 1.67877 0.0791016H7.81027C8.1296 0.0791016 8.39902 0.188935 8.61852 0.408601C8.83802 0.628101 8.94777 0.897435 8.94777 1.2166L8.94752 17.4379C8.94752 17.757 8.83777 18.0264 8.61827 18.2459C8.39877 18.4655 8.12935 18.5754 7.81002 18.5754H1.67852Z"/>
</mask>
<path d="M11.1815 12.1086L9.41308 13.8757L9.41375 13.8764L11.1815 12.1086ZM11.1815 0.408601L12.9493 2.17637L12.95 2.1757L11.1815 0.408601ZM18.9293 0.408601L17.1608 2.1757L17.1622 2.17704L18.9293 0.408601ZM0.870516 18.2459L2.63895 16.4788L2.63761 16.4774L0.870516 18.2459ZM0.541016 17.4379L-1.95898 17.4378V17.4379H0.541016ZM0.541266 1.2166L3.04127 1.21664V1.2166H0.541266ZM0.870766 0.408601L2.63786 2.17704L2.6392 2.1757L0.870766 0.408601ZM8.61852 0.408601L6.85008 2.1757L6.85075 2.17637L8.61852 0.408601ZM8.94777 1.2166L11.4478 1.21664V1.2166H8.94777ZM8.94752 17.4379L6.44752 17.4378V17.4379H8.94752ZM8.61827 18.2459L6.8505 16.4781L6.84983 16.4788L8.61827 18.2459ZM11.9898 9.93787C12.1218 9.93787 12.2986 9.96175 12.4914 10.0403C12.6856 10.1194 12.8394 10.231 12.9493 10.3408L9.41375 13.8764C10.1169 14.5796 11.0287 14.9379 11.9898 14.9379V9.93787ZM12.95 10.3415C13.0594 10.4511 13.1708 10.6046 13.2498 10.7987C13.3283 10.9913 13.3523 11.1681 13.3523 11.3004H8.35227C8.35227 12.2616 8.71078 13.1729 9.41308 13.8757L12.95 10.3415ZM13.3523 11.3004V1.2166H8.35227V11.3004H13.3523ZM13.3523 1.2166C13.3523 1.34886 13.3283 1.52579 13.2497 1.71863C13.1706 1.91285 13.059 2.06662 12.9493 2.17637L9.41375 -1.35917C8.71083 -0.656243 8.35227 0.255304 8.35227 1.2166H13.3523ZM12.95 2.1757C12.8402 2.28557 12.6863 2.39727 12.492 2.47649C12.299 2.55516 12.122 2.5791 11.9898 2.5791V-2.4209C11.0281 -2.4209 10.1161 -2.06208 9.41308 -1.35849L12.95 2.1757ZM11.9898 2.5791H18.1213V-2.4209H11.9898V2.5791ZM18.1213 2.5791C17.9888 2.5791 17.8116 2.5551 17.6186 2.47639C17.4243 2.39713 17.2705 2.28544 17.1608 2.1757L20.6977 -1.35849C19.9949 -2.06181 19.0832 -2.4209 18.1213 -2.4209V2.5791ZM17.1622 2.17704C17.0524 2.06738 16.9407 1.91361 16.8615 1.71925C16.7828 1.52625 16.7588 1.3491 16.7588 1.2166H21.7588C21.7588 0.254685 21.3997 -0.657064 20.6964 -1.35984L17.1622 2.17704ZM16.7588 1.2166V11.3004H21.7588V1.2166H16.7588ZM16.7588 11.3004C16.7588 11.1679 16.7828 10.9908 16.8614 10.798C16.9405 10.6039 17.052 10.4503 17.1615 10.3408L20.697 13.8764C21.3997 13.1737 21.7588 12.2623 21.7588 11.3004H16.7588ZM17.1615 10.3408C17.2712 10.2311 17.425 10.1195 17.6192 10.0404C17.8121 9.96181 17.989 9.93787 18.1213 9.93787V14.9379C19.0826 14.9379 19.9941 14.5793 20.697 13.8764L17.1615 10.3408ZM18.1213 9.93787H11.9898V14.9379H18.1213V9.93787ZM1.67852 16.0754C1.81101 16.0754 1.98816 16.0994 2.18116 16.1781C2.37552 16.2573 2.52929 16.369 2.63895 16.4788L-0.897922 20.013C-0.195143 20.7163 0.716609 21.0754 1.67852 21.0754V16.0754ZM2.63761 16.4774C2.74736 16.5871 2.85905 16.7409 2.93831 16.9352C3.01701 17.1282 3.04102 17.3054 3.04102 17.4379H-1.95898C-1.95898 18.3998 -1.5999 19.3115 -0.89658 20.0143L2.63761 16.4774ZM3.04102 17.4379L3.04127 1.21664L-1.95873 1.21656L-1.95898 17.4378L3.04102 17.4379ZM3.04127 1.2166C3.04127 1.34909 3.01726 1.52624 2.93856 1.71924C2.8593 1.91361 2.74761 2.06738 2.63786 2.17704L-0.896329 -1.35984C-1.59964 -0.657056 -1.95873 0.254697 -1.95873 1.2166H3.04127ZM2.6392 2.1757C2.52954 2.28544 2.37577 2.39713 2.18141 2.47639C1.98841 2.5551 1.81126 2.5791 1.67877 2.5791V-2.4209C0.716862 -2.4209 -0.194891 -2.06181 -0.897671 -1.35849L2.6392 2.1757ZM1.67877 2.5791H7.81027V-2.4209H1.67877V2.5791ZM7.81027 2.5791C7.67803 2.5791 7.50102 2.55516 7.30806 2.47649C7.11372 2.39726 6.95987 2.28557 6.85008 2.1757L10.387 -1.35849C9.6839 -2.06208 8.77194 -2.4209 7.81027 -2.4209V2.5791ZM6.85075 2.17637C6.741 2.06662 6.62943 1.91285 6.55029 1.71863C6.47171 1.52579 6.44777 1.34886 6.44777 1.2166H11.4478C11.4478 0.255299 11.0892 -0.656246 10.3863 -1.35917L6.85075 2.17637ZM6.44777 1.21656L6.44752 17.4378L11.4475 17.4379L11.4478 1.21664L6.44777 1.21656ZM6.44752 17.4379C6.44752 17.3056 6.47146 17.1287 6.55004 16.9358C6.62918 16.7416 6.74075 16.5879 6.8505 16.4781L10.386 20.0136C11.089 19.3107 11.4475 18.3992 11.4475 17.4379H6.44752ZM6.84983 16.4788C6.95962 16.3689 7.11347 16.2572 7.30781 16.178C7.50077 16.0993 7.67778 16.0754 7.81002 16.0754V21.0754C8.77169 21.0754 9.68365 20.7165 10.3867 20.013L6.84983 16.4788ZM7.81002 16.0754H1.67852V21.0754H7.81002V16.0754Z" fill="#827E79" mask="url(#path-1-inside-1_958_18726)"/>
</svg>
