<svg width="19" height="21" viewBox="0 0 19 21" fill="none" xmlns="http://www.w3.org/2000/svg">
<path d="M2.90039 20.4375C2.35039 20.4375 1.87956 20.2417 1.48789 19.85C1.09622 19.4583 0.900391 18.9875 0.900391 18.4375V4.4375C0.900391 3.8875 1.09622 3.41667 1.48789 3.025C1.87956 2.63333 2.35039 2.4375 2.90039 2.4375H3.90039V1.4375C3.90039 1.15417 3.99622 0.916667 4.18789 0.725C4.37956 0.533333 4.61706 0.4375 4.90039 0.4375C5.18372 0.4375 5.42122 0.533333 5.61289 0.725C5.80456 0.916667 5.90039 1.15417 5.90039 1.4375V2.4375H13.9004V1.4375C13.9004 1.15417 13.9962 0.916667 14.1879 0.725C14.3796 0.533333 14.6171 0.4375 14.9004 0.4375C15.1837 0.4375 15.4212 0.533333 15.6129 0.725C15.8046 0.916667 15.9004 1.15417 15.9004 1.4375V2.4375H16.9004C17.4504 2.4375 17.9212 2.63333 18.3129 3.025C18.7046 3.41667 18.9004 3.8875 18.9004 4.4375V18.4375C18.9004 18.9875 18.7046 19.4583 18.3129 19.85C17.9212 20.2417 17.4504 20.4375 16.9004 20.4375H2.90039ZM2.90039 18.4375H16.9004V8.4375H2.90039V18.4375ZM2.90039 6.4375H16.9004V4.4375H2.90039V6.4375ZM9.90039 12.4375C9.61706 12.4375 9.37956 12.3417 9.18789 12.15C8.99622 11.9583 8.90039 11.7208 8.90039 11.4375C8.90039 11.1542 8.99622 10.9167 9.18789 10.725C9.37956 10.5333 9.61706 10.4375 9.90039 10.4375C10.1837 10.4375 10.4212 10.5333 10.6129 10.725C10.8046 10.9167 10.9004 11.1542 10.9004 11.4375C10.9004 11.7208 10.8046 11.9583 10.6129 12.15C10.4212 12.3417 10.1837 12.4375 9.90039 12.4375ZM5.90039 12.4375C5.61706 12.4375 5.37956 12.3417 5.18789 12.15C4.99622 11.9583 4.90039 11.7208 4.90039 11.4375C4.90039 11.1542 4.99622 10.9167 5.18789 10.725C5.37956 10.5333 5.61706 10.4375 5.90039 10.4375C6.18372 10.4375 6.42122 10.5333 6.61289 10.725C6.80456 10.9167 6.90039 11.1542 6.90039 11.4375C6.90039 11.7208 6.80456 11.9583 6.61289 12.15C6.42122 12.3417 6.18372 12.4375 5.90039 12.4375ZM13.9004 12.4375C13.6171 12.4375 13.3796 12.3417 13.1879 12.15C12.9962 11.9583 12.9004 11.7208 12.9004 11.4375C12.9004 11.1542 12.9962 10.9167 13.1879 10.725C13.3796 10.5333 13.6171 10.4375 13.9004 10.4375C14.1837 10.4375 14.4212 10.5333 14.6129 10.725C14.8046 10.9167 14.9004 11.1542 14.9004 11.4375C14.9004 11.7208 14.8046 11.9583 14.6129 12.15C14.4212 12.3417 14.1837 12.4375 13.9004 12.4375ZM9.90039 16.4375C9.61706 16.4375 9.37956 16.3417 9.18789 16.15C8.99622 15.9583 8.90039 15.7208 8.90039 15.4375C8.90039 15.1542 8.99622 14.9167 9.18789 14.725C9.37956 14.5333 9.61706 14.4375 9.90039 14.4375C10.1837 14.4375 10.4212 14.5333 10.6129 14.725C10.8046 14.9167 10.9004 15.1542 10.9004 15.4375C10.9004 15.7208 10.8046 15.9583 10.6129 16.15C10.4212 16.3417 10.1837 16.4375 9.90039 16.4375ZM5.90039 16.4375C5.61706 16.4375 5.37956 16.3417 5.18789 16.15C4.99622 15.9583 4.90039 15.7208 4.90039 15.4375C4.90039 15.1542 4.99622 14.9167 5.18789 14.725C5.37956 14.5333 5.61706 14.4375 5.90039 14.4375C6.18372 14.4375 6.42122 14.5333 6.61289 14.725C6.80456 14.9167 6.90039 15.1542 6.90039 15.4375C6.90039 15.7208 6.80456 15.9583 6.61289 16.15C6.42122 16.3417 6.18372 16.4375 5.90039 16.4375ZM13.9004 16.4375C13.6171 16.4375 13.3796 16.3417 13.1879 16.15C12.9962 15.9583 12.9004 15.7208 12.9004 15.4375C12.9004 15.1542 12.9962 14.9167 13.1879 14.725C13.3796 14.5333 13.6171 14.4375 13.9004 14.4375C14.1837 14.4375 14.4212 14.5333 14.6129 14.725C14.8046 14.9167 14.9004 15.1542 14.9004 15.4375C14.9004 15.7208 14.8046 15.9583 14.6129 16.15C14.4212 16.3417 14.1837 16.4375 13.9004 16.4375Z" fill="#827E79"/>
</svg>
