<svg width="24" height="25" viewBox="0 0 24 25" fill="none" xmlns="http://www.w3.org/2000/svg">
<path d="M8.175 11.9875L4.3 8.1125C4.11667 7.92917 4.025 7.69583 4.025 7.4125C4.025 7.12917 4.11667 6.89583 4.3 6.7125C4.48333 6.52917 4.71667 6.4375 5 6.4375C5.28333 6.4375 5.51667 6.52917 5.7 6.7125L10.3 11.3125C10.4 11.4125 10.471 11.5208 10.513 11.6375C10.555 11.7542 10.5757 11.8792 10.575 12.0125C10.5743 12.1458 10.5537 12.2708 10.513 12.3875C10.4723 12.5042 10.4013 12.6125 10.3 12.7125L5.7 17.3125C5.5 17.5125 5.26667 17.6085 5 17.6005C4.73333 17.5925 4.5 17.4882 4.3 17.2875C4.1 17.0868 4 16.8495 4 16.5755C4 16.3015 4.1 16.0638 4.3 15.8625L8.175 11.9875Z" fill="#707286"/>
<path d="M19.375 15.9376L15.5 12.0626L19.401 8.16259C19.6017 7.96325 19.7017 7.72592 19.701 7.45059C19.7003 7.17525 19.6003 6.93759 19.401 6.73759C19.2017 6.53759 18.9643 6.43759 18.689 6.43759C18.4137 6.43759 18.176 6.53759 17.976 6.73759L13.376 11.3376C13.2753 11.4376 13.2047 11.5459 13.164 11.6626C13.1233 11.7793 13.1023 11.9043 13.101 12.0376C13.0997 12.1709 13.12 12.2959 13.162 12.4126C13.204 12.5293 13.275 12.6376 13.375 12.7376L17.975 17.3376C18.1583 17.5209 18.3917 17.6126 18.675 17.6126C18.9583 17.6126 19.1917 17.5209 19.375 17.3376C19.5583 17.1543 19.65 16.9209 19.65 16.6376C19.65 16.3543 19.5583 16.1209 19.375 15.9376Z" fill="#707286"/>
</svg>
