<svg width="24" height="22" viewBox="0 0 24 22" fill="none" xmlns="http://www.w3.org/2000/svg">
<g filter="url(#filter0_d_1492_10947)">
<path d="M9 16C8.45 16 7.97917 15.8042 7.5875 15.4125C7.19583 15.0208 7 14.55 7 14V2C7 1.45 7.19583 0.979167 7.5875 0.5875C7.97917 0.195833 8.45 0 9 0H18C18.55 0 19.0208 0.195833 19.4125 0.5875C19.8042 0.979167 20 1.45 20 2V14C20 14.55 19.8042 15.0208 19.4125 15.4125C19.0208 15.8042 18.55 16 18 16H9ZM9 14H18V2H9V14ZM5 20C4.45 20 3.97917 19.8042 3.5875 19.4125C3.19583 19.0208 3 18.55 3 18V5C3 4.71667 3.09583 4.47917 3.2875 4.2875C3.47917 4.09583 3.71667 4 4 4C4.28333 4 4.52083 4.09583 4.7125 4.2875C4.90417 4.47917 5 4.71667 5 5V18H15C15.2833 18 15.5208 18.0958 15.7125 18.2875C15.9042 18.4792 16 18.7167 16 19C16 19.2833 15.9042 19.5208 15.7125 19.7125C15.5208 19.9042 15.2833 20 15 20H5Z" fill="#181615"/>
</g>
<defs>
<filter id="filter0_d_1492_10947" x="-1" y="0" width="25" height="28" filterUnits="userSpaceOnUse" color-interpolation-filters="sRGB">
<feFlood flood-opacity="0" result="BackgroundImageFix"/>
<feColorMatrix in="SourceAlpha" type="matrix" values="0 0 0 0 0 0 0 0 0 0 0 0 0 0 0 0 0 0 127 0" result="hardAlpha"/>
<feOffset dy="4"/>
<feGaussianBlur stdDeviation="2"/>
<feComposite in2="hardAlpha" operator="out"/>
<feColorMatrix type="matrix" values="0 0 0 0 0 0 0 0 0 0 0 0 0 0 0 0 0 0 0.25 0"/>
<feBlend mode="normal" in2="BackgroundImageFix" result="effect1_dropShadow_1492_10947"/>
<feBlend mode="normal" in="SourceGraphic" in2="effect1_dropShadow_1492_10947" result="shape"/>
</filter>
</defs>
</svg>
