<svg width="13" height="16" viewBox="0 0 13 16" fill="none" xmlns="http://www.w3.org/2000/svg">
<path d="M4.75 12.5C4.3375 12.5 3.98438 12.3531 3.69063 12.0594C3.39688 11.7656 3.25 11.4125 3.25 11V2C3.25 1.5875 3.39688 1.23438 3.69063 0.940625C3.98438 0.646875 4.3375 0.5 4.75 0.5H11.5C11.9125 0.5 12.2656 0.646875 12.5594 0.940625C12.8531 1.23438 13 1.5875 13 2V11C13 11.4125 12.8531 11.7656 12.5594 12.0594C12.2656 12.3531 11.9125 12.5 11.5 12.5H4.75ZM4.75 11H11.5V2H4.75V11ZM1.75 15.5C1.3375 15.5 0.984375 15.3531 0.690625 15.0594C0.396875 14.7656 0.25 14.4125 0.25 14V4.25C0.25 4.0375 0.321875 3.85938 0.465625 3.71563C0.609375 3.57188 0.7875 3.5 1 3.5C1.2125 3.5 1.39063 3.57188 1.53438 3.71563C1.67813 3.85938 1.75 4.0375 1.75 4.25V14H9.25C9.4625 14 9.64063 14.0719 9.78438 14.2156C9.92813 14.3594 10 14.5375 10 14.75C10 14.9625 9.92813 15.1406 9.78438 15.2844C9.64063 15.4281 9.4625 15.5 9.25 15.5H1.75Z" fill="#B7B1AA"/>
</svg>
