<svg width="19" height="21" viewBox="0 0 19 21" fill="none" xmlns="http://www.w3.org/2000/svg">
<path d="M12.4004 16.4375C11.7004 16.4375 11.1087 16.1958 10.6254 15.7125C10.1421 15.2292 9.90039 14.6375 9.90039 13.9375C9.90039 13.2375 10.1421 12.6458 10.6254 12.1625C11.1087 11.6792 11.7004 11.4375 12.4004 11.4375C13.1004 11.4375 13.6921 11.6792 14.1754 12.1625C14.6587 12.6458 14.9004 13.2375 14.9004 13.9375C14.9004 14.6375 14.6587 15.2292 14.1754 15.7125C13.6921 16.1958 13.1004 16.4375 12.4004 16.4375ZM2.90039 20.4375C2.35039 20.4375 1.87956 20.2417 1.48789 19.85C1.09622 19.4583 0.900391 18.9875 0.900391 18.4375V4.4375C0.900391 3.8875 1.09622 3.41667 1.48789 3.025C1.87956 2.63333 2.35039 2.4375 2.90039 2.4375H3.90039V1.4375C3.90039 1.15417 3.99622 0.916667 4.18789 0.725C4.37956 0.533333 4.61706 0.4375 4.90039 0.4375C5.18372 0.4375 5.42122 0.533333 5.61289 0.725C5.80456 0.916667 5.90039 1.15417 5.90039 1.4375V2.4375H13.9004V1.4375C13.9004 1.15417 13.9962 0.916667 14.1879 0.725C14.3796 0.533333 14.6171 0.4375 14.9004 0.4375C15.1837 0.4375 15.4212 0.533333 15.6129 0.725C15.8046 0.916667 15.9004 1.15417 15.9004 1.4375V2.4375H16.9004C17.4504 2.4375 17.9212 2.63333 18.3129 3.025C18.7046 3.41667 18.9004 3.8875 18.9004 4.4375V18.4375C18.9004 18.9875 18.7046 19.4583 18.3129 19.85C17.9212 20.2417 17.4504 20.4375 16.9004 20.4375H2.90039ZM2.90039 18.4375H16.9004V8.4375H2.90039V18.4375ZM2.90039 6.4375H16.9004V4.4375H2.90039V6.4375Z" fill="#B7B1AA"/>
</svg>
