<svg width="18" height="20" viewBox="0 0 18 20" fill="none" xmlns="http://www.w3.org/2000/svg">
<path d="M3.93594 19.2023C3.30627 19.2023 2.76969 18.9806 2.32619 18.5371C1.88269 18.0936 1.66094 17.557 1.66094 16.9273V4.06484C1.34177 4.06484 1.07235 3.95509 0.852687 3.73559C0.633187 3.51593 0.523438 3.24651 0.523438 2.92734C0.523438 2.60818 0.633187 2.33876 0.852687 2.11909C1.07235 1.89959 1.34177 1.78984 1.66094 1.78984H5.86419C5.86419 1.47068 5.97394 1.20126 6.19344 0.981593C6.4131 0.762093 6.68252 0.652344 7.00169 0.652344H10.9897C11.3089 0.652344 11.5783 0.762093 11.7979 0.981593C12.0174 1.20126 12.1272 1.47068 12.1272 1.78984H16.3424C16.6616 1.78984 16.931 1.89959 17.1507 2.11909C17.3702 2.33876 17.4799 2.60818 17.4799 2.92734C17.4799 3.24651 17.3702 3.51593 17.1507 3.73559C16.931 3.95509 16.6616 4.06484 16.3424 4.06484V16.9273C16.3424 17.557 16.1207 18.0936 15.6772 18.5371C15.2337 18.9806 14.6971 19.2023 14.0674 19.2023H3.93594ZM14.0674 4.06484H3.93594V16.9273H14.0674V4.06484ZM6.96594 14.9931C7.2651 14.9931 7.51752 14.8903 7.72319 14.6846C7.92885 14.4791 8.03169 14.2267 8.03169 13.9273V7.05884C8.03169 6.75951 7.92885 6.50709 7.72319 6.30159C7.51752 6.09593 7.2651 5.99309 6.96594 5.99309C6.6666 5.99309 6.4131 6.09593 6.20544 6.30159C5.99794 6.50709 5.89419 6.75951 5.89419 7.05884V13.9273C5.89419 14.2267 5.99794 14.4791 6.20544 14.6846C6.4131 14.8903 6.6666 14.9931 6.96594 14.9931ZM11.0434 14.9931C11.3428 14.9931 11.5953 14.8903 11.8009 14.6846C12.0064 14.4791 12.1092 14.2267 12.1092 13.9273V7.05884C12.1092 6.75951 12.0064 6.50709 11.8009 6.30159C11.5953 6.09593 11.3428 5.99309 11.0434 5.99309C10.7443 5.99309 10.4909 6.09593 10.2832 6.30159C10.0755 6.50709 9.97169 6.75951 9.97169 7.05884V13.9273C9.97169 14.2267 10.0755 14.4791 10.2832 14.6846C10.4909 14.8903 10.7443 14.9931 11.0434 14.9931Z" fill="#181615"/>
</svg>
