<svg width="16" height="5" viewBox="0 0 16 5" fill="none" xmlns="http://www.w3.org/2000/svg">
<path d="M2 4.4375C1.45 4.4375 0.979167 4.24167 0.5875 3.85C0.195833 3.45833 0 2.9875 0 2.4375C0 1.8875 0.195833 1.41667 0.5875 1.025C0.979167 0.633333 1.45 0.4375 2 0.4375C2.55 0.4375 3.02083 0.633333 3.4125 1.025C3.80417 1.41667 4 1.8875 4 2.4375C4 2.9875 3.80417 3.45833 3.4125 3.85C3.02083 4.24167 2.55 4.4375 2 4.4375ZM8 4.4375C7.45 4.4375 6.97917 4.24167 6.5875 3.85C6.19583 3.45833 6 2.9875 6 2.4375C6 1.8875 6.19583 1.41667 6.5875 1.025C6.97917 0.633333 7.45 0.4375 8 0.4375C8.55 0.4375 9.02083 0.633333 9.4125 1.025C9.80417 1.41667 10 1.8875 10 2.4375C10 2.9875 9.80417 3.45833 9.4125 3.85C9.02083 4.24167 8.55 4.4375 8 4.4375ZM14 4.4375C13.45 4.4375 12.9792 4.24167 12.5875 3.85C12.1958 3.45833 12 2.9875 12 2.4375C12 1.8875 12.1958 1.41667 12.5875 1.025C12.9792 0.633333 13.45 0.4375 14 0.4375C14.55 0.4375 15.0208 0.633333 15.4125 1.025C15.8042 1.41667 16 1.8875 16 2.4375C16 2.9875 15.8042 3.45833 15.4125 3.85C15.0208 4.24167 14.55 4.4375 14 4.4375Z" fill="#707286"/>
</svg>
