<svg width="16" height="10" viewBox="0 0 16 10" fill="none" xmlns="http://www.w3.org/2000/svg">
<path d="M7.88522 9.14981C7.68611 9.14981 7.49556 9.11536 7.31356 9.04647C7.13133 8.97758 6.96555 8.86858 6.81622 8.71947L0.690888 2.59414C0.409333 2.31236 0.268555 1.95869 0.268555 1.53314C0.268555 1.10758 0.409333 0.753915 0.690888 0.472137C0.972666 0.190582 1.32633 0.0498047 1.75189 0.0498047C2.17744 0.0498047 2.53111 0.190582 2.81289 0.472137L7.88522 5.54481L12.9576 0.472137C13.2393 0.190582 13.593 0.0498047 14.0186 0.0498047C14.4441 0.0498047 14.7978 0.190582 15.0796 0.472137C15.3611 0.753915 15.5019 1.10758 15.5019 1.53314C15.5019 1.95869 15.3611 2.31236 15.0796 2.59414L8.95422 8.71947C8.80489 8.86858 8.63911 8.97758 8.45689 9.04647C8.27489 9.11536 8.08433 9.14981 7.88522 9.14981Z" fill="white"/>
</svg>
