<svg width="18" height="19" viewBox="0 0 18 19" fill="none" xmlns="http://www.w3.org/2000/svg">
<path d="M2 16.5H3.425L13.2 6.725L11.775 5.3L2 15.075V16.5ZM1 18.5C0.716667 18.5 0.479167 18.4042 0.2875 18.2125C0.0958333 18.0208 0 17.7833 0 17.5V15.075C0 14.8083 0.05 14.5542 0.15 14.3125C0.25 14.0708 0.391667 13.8583 0.575 13.675L13.2 1.075C13.4 0.891667 13.6208 0.75 13.8625 0.65C14.1042 0.55 14.3583 0.5 14.625 0.5C14.8917 0.5 15.15 0.55 15.4 0.65C15.65 0.75 15.8667 0.9 16.05 1.1L17.425 2.5C17.625 2.68333 17.7708 2.9 17.8625 3.15C17.9542 3.4 18 3.65 18 3.9C18 4.16667 17.9542 4.42083 17.8625 4.6625C17.7708 4.90417 17.625 5.125 17.425 5.325L4.825 17.925C4.64167 18.1083 4.42917 18.25 4.1875 18.35C3.94583 18.45 3.69167 18.5 3.425 18.5H1ZM12.475 6.025L11.775 5.3L13.2 6.725L12.475 6.025Z" fill="#827E79"/>
</svg>
