<svg width="32" height="33" viewBox="0 0 32 33" fill="none" xmlns="http://www.w3.org/2000/svg">
<g clip-path="url(#clip0_2220_68113)">
<path d="M32 16.3044C32.0006 13.2286 31.1251 10.2171 29.477 7.62633C27.8288 5.0356 25.4771 2.97417 22.7003 1.68615C19.9235 0.398131 16.8379 -0.0625453 13.8089 0.358671C10.7798 0.779888 7.93424 2.06535 5.60903 4.06287C3.28379 6.06037 1.57633 8.68627 0.688792 11.6296C-0.198747 14.573 -0.229182 17.7105 0.601088 20.6707C1.43136 23.631 3.08757 26.2898 5.37359 28.3326C7.65962 30.3754 10.4797 31.7165 13.5 32.1971V20.9555H9.438V16.3044H13.5V12.7577C13.4125 11.9298 13.5072 11.0926 13.7773 10.3056C14.0473 9.51855 14.4862 8.80091 15.0627 8.20351C15.6393 7.6061 16.3394 7.14358 17.1134 6.8487C17.8875 6.55383 18.7166 6.43381 19.5419 6.49719C20.7421 6.51304 21.9394 6.61794 23.124 6.81102V10.7761H21.108C20.7646 10.731 20.4155 10.7641 20.0864 10.8729C19.7574 10.9818 19.4571 11.1637 19.2074 11.4052C18.9578 11.6466 18.7653 11.9415 18.6442 12.2679C18.5232 12.5943 18.4766 12.9439 18.508 13.2908V16.3084H22.9459L22.236 20.9595H18.5V32.207C22.2645 31.608 25.6928 29.6771 28.1677 26.7617C30.6426 23.8463 32.0016 20.1379 32 16.3044Z" fill="#282624"/>
</g>
<defs>
<clipPath id="clip0_2220_68113">
<rect width="32" height="32" fill="white" transform="translate(0 0.207031)"/>
</clipPath>
</defs>
</svg>
