<svg width="174" height="218" viewBox="0 0 174 218" fill="none" xmlns="http://www.w3.org/2000/svg">
<path d="M22.7339 125.011L66.2155 126.279" stroke="white" stroke-width="6"/>
<circle cx="36.9994" cy="8.28554" r="4.71425" fill="white" stroke="white" stroke-width="6"/>
<circle cx="116.714" cy="37.7143" r="2.71427" fill="white" stroke="white" stroke-width="4"/>
<circle cx="14.7371" cy="124.383" r="6.56668" transform="rotate(89.0885 14.7371 124.383)" stroke="white" stroke-width="6"/>
<path d="M148.218 125.195L104.723 125.843" stroke="white" stroke-width="6"/>
<circle cx="9.56668" cy="9.56668" r="6.56668" transform="matrix(-0.0301397 0.999546 0.999546 0.0301397 146.949 114.83)" stroke="white" stroke-width="6"/>
<path d="M86.437 63.7632L85.6616 107.256" stroke="white" stroke-width="6"/>
<circle cx="86.9753" cy="55.7598" r="6.56668" transform="rotate(178.44 86.9753 55.7598)" stroke="white" stroke-width="6"/>
<path d="M87.6408 189.499L87.3153 146" stroke="white" stroke-width="6"/>
<circle cx="9.56668" cy="9.56668" r="6.56668" transform="matrix(-0.999295 -0.037558 -0.037558 0.999295 98.0146 188.307)" stroke="white" stroke-width="6"/>
<path d="M59.0174 153.077L40.1365 171.959" stroke="white" stroke-width="6"/>
<circle cx="34.5731" cy="177.673" r="9.42852" transform="rotate(136.084 34.5731 177.673)" stroke="white" stroke-width="6"/>
<path d="M59.3487 100.5L39.137 80.2883" stroke="white" stroke-width="6"/>
<circle cx="12.4285" cy="12.4285" r="9.42852" transform="matrix(-0.720363 -0.693597 -0.693597 0.720363 51.1465 74.2407)" stroke="white" stroke-width="6"/>
<path d="M111 155.33L128.754 173.083" stroke="white" stroke-width="6"/>
<circle cx="12.4285" cy="12.4285" r="9.42852" transform="matrix(0.720363 0.693597 0.693597 -0.720363 119 179.906)" stroke="white" stroke-width="6"/>
<path d="M112.999 97.0278L131.738 78.2883" stroke="white" stroke-width="6"/>
<circle cx="137.302" cy="72.5734" r="9.42852" transform="rotate(-43.9155 137.302 72.5734)" stroke="white" stroke-width="6"/>
<path d="M122.069 126.683L123.473 126.656L124.421 127.693C128.951 132.642 129.173 139.477 126.878 144.853C124.577 150.244 119.469 154.815 112.616 154.901L111.317 154.917L110.393 154.004L95.5567 139.348L93.6653 137.48L95.218 135.322C96.3137 133.799 97.6192 131.122 97.9413 129.568L98.4447 127.139L100.925 127.091L122.069 126.683Z" fill="#181615" stroke="white" stroke-width="6.21609"/>
<path d="M86.0005 92.0016L86.0005 91.1241L85.6331 90.3272C83.8953 86.5574 81.1061 84.0273 77.8171 82.8636C74.5906 81.7219 71.1669 81.9961 68.2662 83.2824C65.3631 84.5697 62.8527 86.9288 61.5295 90.1163C60.1829 93.3602 60.1907 97.1577 61.8083 101.04L62.0641 101.654L62.5047 102.152L74.0041 115.15L76.3861 117.843L79.3167 115.761C80.4435 114.96 80.9614 114.789 82.7897 114.422L86.0015 113.776L86.0013 110.5L86.0005 92.0016Z" fill="#181615" stroke="white" stroke-width="8"/>
<path d="M86.3877 91.6779L86.4162 90.8009L86.8091 90.0163C88.6681 86.3047 91.5378 83.8663 94.8627 82.8096C98.1245 81.7731 101.537 82.158 104.395 83.5375C107.255 84.9182 109.688 87.3574 110.907 90.586C112.148 93.8718 112.017 97.6671 110.275 101.495L109.999 102.1L109.543 102.584L97.6283 115.203L95.1603 117.817L92.2986 115.641C91.1984 114.804 90.6863 114.617 88.8709 114.19L85.6817 113.441L85.7879 110.166L86.3877 91.6779Z" fill="#181615" stroke="white" stroke-width="8"/>
<path d="M111.542 103.297L112.165 102.679L112.989 102.379C116.889 100.956 120.65 101.154 123.793 102.668C126.876 104.154 129.093 106.777 130.224 109.742C131.355 112.709 131.449 116.153 130.119 119.338C128.765 122.579 126.064 125.248 122.169 126.835L121.554 127.086L120.89 127.124L103.563 128.119L99.9741 128.325L99.3874 124.778C99.1618 123.415 98.9185 122.927 97.8914 121.37L96.0871 118.636L98.4124 116.328L111.542 103.297Z" fill="#181615" stroke="white" stroke-width="8"/>
<path d="M110.542 152.525L111.165 153.143L111.989 153.444C115.889 154.866 119.65 154.669 122.793 153.154C125.876 151.669 128.093 149.046 129.224 146.081C130.355 143.113 130.449 139.67 129.119 136.485C127.765 133.244 125.064 130.575 121.169 128.988L120.554 128.737L119.89 128.699L102.563 127.704L98.9741 127.497L98.3874 131.044C98.1618 132.408 97.9185 132.896 96.8914 134.453L95.0871 137.187L97.4124 139.495L110.542 152.525Z" fill="#181615" stroke="white" stroke-width="8"/>
<path d="M61.9091 101.353L61.3022 100.72L60.4858 100.398C56.6235 98.8768 52.8591 98.9783 49.6785 100.412C46.5584 101.819 44.2751 104.385 43.0694 107.32C41.8627 110.257 41.6808 113.697 42.9294 116.915C44.2001 120.189 46.8319 122.927 50.6851 124.612L51.2943 124.879L51.957 124.934L69.2526 126.371L72.8352 126.668L73.5122 123.137C73.7724 121.78 74.0281 121.298 75.0946 119.768L76.968 117.081L74.7023 114.715L61.9091 101.353Z" fill="#181615" stroke="white" stroke-width="8"/>
<path d="M60.6792 149.59L60.0408 150.192L59.2091 150.472C55.2743 151.794 51.5199 151.501 48.4166 149.907C45.3723 148.343 43.2227 145.664 42.1682 142.671C41.1128 139.676 41.1065 136.231 42.5175 133.082C43.9534 129.876 46.7214 127.277 50.6554 125.79L51.2775 125.554L51.9421 125.533L69.2884 124.98L72.8816 124.866L73.3777 128.426C73.5684 129.795 73.7992 130.289 74.7863 131.872L76.5203 134.651L74.1369 136.899L60.6792 149.59Z" fill="#181615" stroke="white" stroke-width="8"/>
<path d="M108.546 153.188L109.132 153.841L109.392 154.679C110.62 158.644 110.237 162.391 108.569 165.455C106.932 168.461 104.203 170.546 101.186 171.529C98.1663 172.512 94.7222 172.436 91.6072 170.95C88.4371 169.438 85.9042 166.608 84.5119 162.64L84.2917 162.012L84.2864 161.347L84.1484 143.993L84.1198 140.398L87.6913 139.987C89.0644 139.829 89.564 139.61 91.1694 138.661L93.9896 136.994L96.1797 139.431L108.546 153.188Z" fill="#181615" stroke="white" stroke-width="8"/>
<path d="M59.3376 151.385L58.7123 152L58.4022 152.821C56.935 156.704 57.0888 160.467 58.567 163.627C60.017 166.727 62.6143 168.975 65.566 170.139C68.5201 171.305 71.9624 171.439 75.1621 170.146C78.4185 168.829 81.1191 166.16 82.7507 162.283L83.0087 161.67L83.0545 161.007L84.2499 143.693L84.4975 140.107L80.9577 139.479C79.5967 139.238 79.1114 138.989 77.5669 137.944L74.8535 136.108L72.519 138.406L59.3376 151.385Z" fill="#181615" stroke="white" stroke-width="8"/>
<circle cx="86" cy="126" r="13" stroke="white" stroke-width="10"/>
</svg>
