<svg width="18" height="22" viewBox="0 0 18 22" fill="none" xmlns="http://www.w3.org/2000/svg">
<path d="M1.81962 18.3176C1.49539 18.3176 1.22169 18.2061 0.998539 17.9831C0.775555 17.7599 0.664062 17.4862 0.664062 17.162C0.664062 16.8378 0.775555 16.5641 0.998539 16.3409C1.22169 16.1179 1.49539 16.0064 1.81962 16.0064H2.62292V9.10181C2.62292 7.64387 3.05737 6.34355 3.92629 5.20086C4.79503 4.05817 5.93094 3.31151 7.33403 2.96086V2.29826C7.33403 1.83451 7.4953 1.44128 7.81784 1.11857C8.14055 0.796035 8.53378 0.634766 8.99752 0.634766C9.46127 0.634766 9.8545 0.796035 10.1772 1.11857C10.4997 1.44128 10.661 1.83451 10.661 2.29826V2.96086C12.0682 3.31151 13.2051 4.05716 14.0718 5.19781C14.9387 6.33847 15.3721 7.6398 15.3721 9.10181V16.0064H16.1754C16.4997 16.0064 16.7734 16.1179 16.9965 16.3409C17.2195 16.5641 17.331 16.8378 17.331 17.162C17.331 17.4862 17.2195 17.7599 16.9965 17.9831C16.7734 18.2061 16.4997 18.3176 16.1754 18.3176H1.81962ZM9.00362 21.432C8.42457 21.432 7.92908 21.2269 7.51714 20.8169C7.10504 20.407 6.89898 19.9125 6.89898 19.3334H11.1022C11.1022 19.9125 10.8971 20.407 10.487 20.8169C10.077 21.2269 9.5825 21.432 9.00362 21.432Z" fill="#B7B1AA"/>
</svg>
