<svg width="32" height="33" viewBox="0 0 32 33" fill="none" xmlns="http://www.w3.org/2000/svg">
<g clip-path="url(#clip0_2605_8119)">
<path d="M24.2908 9.9137C25.3513 9.9137 26.2108 9.05408 26.2108 7.9937C26.2108 6.93331 25.3513 6.0737 24.2908 6.0737C23.2305 6.0737 22.3708 6.93331 22.3708 7.9937C22.3708 9.05408 23.2305 9.9137 24.2908 9.9137Z" fill="#181615"/>
<path d="M16 24.207C11.588 24.207 8 20.619 8 16.207C8 11.795 11.588 8.20703 16 8.20703C20.412 8.20703 24 11.795 24 16.207C24 20.619 20.412 24.207 16 24.207ZM16 12.207C13.794 12.207 12 14.001 12 16.207C12 18.413 13.794 20.207 16 20.207C18.2059 20.207 20 18.413 20 16.207C20 14.001 18.2059 12.207 16 12.207Z" fill="#181615"/>
<path d="M24 32.207H8C3.888 32.207 0 28.319 0 24.207V8.20703C0 4.09503 3.888 0.207031 8 0.207031H24C28.112 0.207031 32 4.09503 32 8.20703V24.207C32 28.319 28.112 32.207 24 32.207ZM8 4.20703C6.13 4.20703 4 6.33703 4 8.20703V24.207C4 26.113 6.094 28.207 8 28.207H24C25.8701 28.207 28 26.0771 28 24.207V8.20703C28 6.33703 25.8701 4.20703 24 4.20703H8Z" fill="#181615"/>
</g>
<defs>
<clipPath id="clip0_2605_8119">
<rect width="32" height="32" fill="white" transform="translate(0 0.207031)"/>
</clipPath>
</defs>
</svg>
