<svg width="25" height="18" viewBox="0 0 25 18" fill="none" xmlns="http://www.w3.org/2000/svg">
<path d="M18.8619 7.74043H16.8783C16.5691 7.74043 16.3099 7.63583 16.1007 7.42663C15.8915 7.21743 15.7869 6.95822 15.7869 6.64902C15.7869 6.33965 15.8915 6.08036 16.1007 5.87116C16.3099 5.66196 16.5691 5.55736 16.8783 5.55736H18.8619V3.57376C18.8619 3.26456 18.9665 3.00536 19.1757 2.79616C19.3849 2.58696 19.6442 2.48236 19.9536 2.48236C20.2628 2.48236 20.522 2.58696 20.7312 2.79616C20.9404 3.00536 21.045 3.26456 21.045 3.57376V5.55736H23.0286C23.338 5.55736 23.5972 5.66196 23.8064 5.87116C24.0156 6.08036 24.1202 6.33965 24.1202 6.64902C24.1202 6.95822 24.0156 7.21743 23.8064 7.42663C23.5972 7.63583 23.338 7.74043 23.0286 7.74043H21.045V9.72402C21.045 10.0334 20.9404 10.2927 20.7312 10.5019C20.522 10.7111 20.2628 10.8157 19.9536 10.8157C19.6442 10.8157 19.3849 10.7111 19.1757 10.5019C18.9665 10.2927 18.8619 10.0334 18.8619 9.72402V7.74043ZM9.39369 8.89408C8.18553 8.89408 7.15376 8.46638 6.29837 7.611C5.44299 6.75562 5.0153 5.72385 5.0153 4.51569C5.0153 3.3077 5.44299 2.27698 6.29837 1.4235C7.15376 0.570205 8.18553 0.143555 9.39369 0.143555C10.6017 0.143555 11.6334 0.570205 12.489 1.4235C13.3444 2.27698 13.7721 3.3077 13.7721 4.51569C13.7721 5.72385 13.3444 6.75562 12.489 7.611C11.6334 8.46638 10.6017 8.89408 9.39369 8.89408ZM0.848633 15.2813V14.5102C0.848633 13.8812 1.01131 13.3032 1.33665 12.7761C1.662 12.2489 2.09429 11.8465 2.63353 11.5691C3.72242 11.0267 4.83058 10.6189 5.95801 10.3456C7.08561 10.0724 8.23084 9.93574 9.39369 9.93574C10.5643 9.93574 11.7136 10.0713 12.8413 10.3425C13.9691 10.6137 15.0732 11.0205 16.1536 11.5628C16.6928 11.8397 17.1252 12.2412 17.4507 12.7673C17.7761 13.2933 17.9387 13.8743 17.9387 14.5102V15.2813C17.9387 15.9372 17.7077 16.4962 17.2458 16.9581C16.7838 17.4201 16.2248 17.6511 15.5689 17.6511H3.21842C2.56235 17.6511 2.00341 17.4201 1.5416 16.9581C1.07962 16.4962 0.848633 15.9372 0.848633 15.2813ZM3.21842 15.2813H15.5689V14.5412C15.5689 14.3542 15.5212 14.1843 15.4257 14.0313C15.3302 13.8784 15.2044 13.7594 15.0481 13.6745C14.1354 13.2225 13.2079 12.8813 12.2656 12.6511C11.3232 12.4207 10.3659 12.3055 9.39369 12.3055C8.4298 12.3055 7.47242 12.4207 6.52155 12.6511C5.57086 12.8813 4.64342 13.2225 3.73926 13.6745C3.58301 13.7594 3.45714 13.8784 3.36165 14.0313C3.26617 14.1843 3.21842 14.3542 3.21842 14.5412V15.2813ZM9.39343 6.52428C9.94568 6.52428 10.4185 6.32767 10.8119 5.93444C11.2055 5.54121 11.4023 5.06838 11.4023 4.51595C11.4023 3.96369 11.2056 3.49191 10.8122 3.10059C10.4189 2.70909 9.9462 2.51335 9.39395 2.51335C8.84152 2.51335 8.3686 2.70944 7.9752 3.10163C7.58179 3.49382 7.38509 3.96517 7.38509 4.51569C7.38509 5.06812 7.58171 5.54104 7.97494 5.93444C8.36834 6.32767 8.84117 6.52428 9.39343 6.52428Z" fill="#181615"/>
</svg>
