<svg width="8" height="12" viewBox="0 0 8 12" fill="none" xmlns="http://www.w3.org/2000/svg">
<path d="M3.49086 6.0001L7.29536 9.80435C7.50653 10.0157 7.61211 10.2809 7.61211 10.6001C7.61211 10.9193 7.50653 11.1845 7.29536 11.3958C7.08403 11.607 6.81878 11.7126 6.49961 11.7126C6.18044 11.7126 5.91519 11.607 5.70386 11.3958L1.10986 6.80185C0.998026 6.68985 0.916276 6.56551 0.86461 6.42885C0.812943 6.29235 0.787109 6.14943 0.787109 6.0001C0.787109 5.85076 0.812943 5.70785 0.86461 5.57135C0.916276 5.43468 0.998026 5.31035 1.10986 5.19835L5.70386 0.604347C5.91519 0.393181 6.18044 0.287598 6.49961 0.287598C6.81878 0.287598 7.08403 0.393181 7.29536 0.604347C7.50653 0.815681 7.61211 1.08093 7.61211 1.4001C7.61211 1.71926 7.50653 1.98451 7.29536 2.19585L3.49086 6.0001Z" fill="#171929"/>
</svg>
