<svg width="32" height="33" viewBox="0 0 32 33" fill="none" xmlns="http://www.w3.org/2000/svg">
<g clip-path="url(#clip0_2220_68112)">
<path d="M30.4099 0.207031H1.3913C0.596273 0.207031 0 0.807031 0 1.60703V31.007C0 31.607 0.596273 32.207 1.3913 32.207H30.6087C31.4037 32.207 32 31.607 32 30.807V1.60703C31.8012 0.807031 31.205 0.207031 30.4099 0.207031ZM9.34161 27.407H4.77019V12.207H9.54037V27.407H9.34161ZM7.15528 10.207C5.56522 10.207 4.37267 8.80703 4.37267 7.40703C4.37267 5.80703 5.56522 4.60703 7.15528 4.60703C8.74534 4.60703 9.93789 5.80703 9.93789 7.40703C9.73913 8.80703 8.54658 10.207 7.15528 10.207ZM27.0311 27.407H22.2609V20.007C22.2609 18.207 22.2609 16.007 19.8758 16.007C17.4907 16.007 17.0932 18.007 17.0932 20.007V27.607H12.323V12.207H16.8944V14.207C17.4907 13.007 19.0807 11.807 21.2671 11.807C26.0373 11.807 26.8323 15.007 26.8323 19.007V27.407H27.0311Z" fill="#282624"/>
</g>
<defs>
<clipPath id="clip0_2220_68112">
<rect width="32" height="32" fill="white" transform="translate(0 0.207031)"/>
</clipPath>
</defs>
</svg>
