<svg width="19" height="17" viewBox="0 0 19 17" fill="none" xmlns="http://www.w3.org/2000/svg">
<path d="M7.90039 15.4375C7.61706 15.4375 7.37973 15.3415 7.18839 15.1495C6.99706 14.9575 6.90106 14.7202 6.90039 14.4375C6.89973 14.1548 6.99573 13.9175 7.18839 13.7255C7.38106 13.5335 7.61839 13.4375 7.90039 13.4375H17.9004C18.1837 13.4375 18.4214 13.5335 18.6134 13.7255C18.8054 13.9175 18.9011 14.1548 18.9004 14.4375C18.8997 14.7202 18.8037 14.9578 18.6124 15.1505C18.4211 15.3432 18.1837 15.4388 17.9004 15.4375H7.90039ZM7.90039 9.43751C7.61706 9.43751 7.37973 9.34151 7.18839 9.14951C6.99706 8.95751 6.90106 8.72017 6.90039 8.43751C6.89973 8.15484 6.99573 7.91751 7.18839 7.72551C7.38106 7.53351 7.61839 7.43751 7.90039 7.43751H17.9004C18.1837 7.43751 18.4214 7.53351 18.6134 7.72551C18.8054 7.91751 18.9011 8.15484 18.9004 8.43751C18.8997 8.72017 18.8037 8.95784 18.6124 9.15051C18.4211 9.34317 18.1837 9.43884 17.9004 9.43751H7.90039ZM7.90039 3.43751C7.61706 3.43751 7.37973 3.34151 7.18839 3.14951C6.99706 2.95751 6.90106 2.72017 6.90039 2.43751C6.89973 2.15484 6.99573 1.91751 7.18839 1.72551C7.38106 1.53351 7.61839 1.43751 7.90039 1.43751H17.9004C18.1837 1.43751 18.4214 1.53351 18.6134 1.72551C18.8054 1.91751 18.9011 2.15484 18.9004 2.43751C18.8997 2.72017 18.8037 2.95784 18.6124 3.15051C18.4211 3.34317 18.1837 3.43884 17.9004 3.43751H7.90039ZM2.90039 16.4375C2.35039 16.4375 1.87973 16.2418 1.48839 15.8505C1.09706 15.4592 0.901059 14.9882 0.900392 14.4375C0.899726 13.8868 1.09573 13.4162 1.48839 13.0255C1.88106 12.6348 2.35173 12.4388 2.90039 12.4375C3.44906 12.4362 3.92006 12.6322 4.31339 13.0255C4.70673 13.4188 4.90239 13.8895 4.90039 14.4375C4.89839 14.9855 4.70273 15.4565 4.31339 15.8505C3.92406 16.2445 3.45306 16.4402 2.90039 16.4375ZM2.90039 10.4375C2.35039 10.4375 1.87973 10.2418 1.48839 9.85051C1.09706 9.45917 0.901059 8.98817 0.900392 8.43751C0.899726 7.88684 1.09573 7.41617 1.48839 7.02551C1.88106 6.63484 2.35173 6.43884 2.90039 6.43751C3.44906 6.43617 3.92006 6.63217 4.31339 7.02551C4.70673 7.41884 4.90239 7.88951 4.90039 8.43751C4.89839 8.98551 4.70273 9.45651 4.31339 9.85051C3.92406 10.2445 3.45306 10.4402 2.90039 10.4375ZM2.90039 4.43751C2.35039 4.43751 1.87973 4.24184 1.48839 3.85051C1.09706 3.45917 0.901059 2.98817 0.900392 2.43751C0.899726 1.88684 1.09573 1.41617 1.48839 1.02551C1.88106 0.63484 2.35173 0.43884 2.90039 0.437507C3.44906 0.436173 3.92006 0.632173 4.31339 1.02551C4.70673 1.41884 4.90239 1.88951 4.90039 2.43751C4.89839 2.98551 4.70273 3.45651 4.31339 3.85051C3.92406 4.24451 3.45306 4.44017 2.90039 4.43751Z" fill="#827E79"/>
</svg>
