<svg width="18" height="22" viewBox="0 0 18 22" fill="none" xmlns="http://www.w3.org/2000/svg">
<path d="M3.07187 21.4042C2.44621 21.4042 1.91063 21.1815 1.46513 20.736C1.01963 20.2905 0.796875 19.7549 0.796875 19.1292V9.27273C0.796875 8.64706 1.01963 8.11148 1.46513 7.66598C1.91063 7.22048 2.44621 6.99773 3.07187 6.99773H3.91038V5.17123C3.91038 3.75589 4.40587 2.55081 5.39687 1.55598C6.38787 0.560975 7.58896 0.0634766 9.00012 0.0634766C10.4113 0.0634766 11.6124 0.560975 12.6034 1.55598C13.5944 2.55081 14.0899 3.75589 14.0899 5.17123V6.99773H14.9284C15.554 6.99773 16.0896 7.22048 16.5351 7.66598C16.9806 8.11148 17.2034 8.64706 17.2034 9.27273V19.1292C17.2034 19.7549 16.9806 20.2905 16.5351 20.736C16.0896 21.1815 15.554 21.4042 14.9284 21.4042H3.07187ZM9.00012 16.201C9.55012 16.201 10.021 16.0051 10.4126 15.6135C10.8043 15.2218 11.0001 14.751 11.0001 14.201C11.0001 13.651 10.8043 13.1801 10.4126 12.7885C10.021 12.3968 9.55012 12.201 9.00012 12.201C8.45012 12.201 7.97929 12.3968 7.58762 12.7885C7.19596 13.1801 7.00012 13.651 7.00012 14.201C7.00012 14.751 7.19596 15.2218 7.58762 15.6135C7.97929 16.0051 8.45012 16.201 9.00012 16.201ZM6.18537 6.99773H11.8149V5.17123C11.8149 4.38439 11.5421 3.71556 10.9966 3.16473C10.4511 2.61389 9.78562 2.33848 9.00012 2.33848C8.21462 2.33848 7.54913 2.61389 7.00362 3.16473C6.45813 3.71556 6.18537 4.38439 6.18537 5.17123V6.99773Z" fill="#171929"/>
</svg>
