<svg width="323" height="56" viewBox="0 0 323 56" fill="none" xmlns="http://www.w3.org/2000/svg">
<path d="M291.458 9.5233H297.138V30.6002H299.049L309.143 19.9137H316.519L303.787 33.4266L317.649 47.8009H309.709L298.538 36.2799H297.138V47.8009H291.458V9.5233Z" fill="white"/>
<path d="M272.077 27.7199C272.077 26.2843 272.436 24.9743 273.154 23.7899C273.89 22.6055 274.859 21.6633 276.061 20.9635C277.281 20.2636 278.627 19.9136 280.099 19.9136H286.317V25.5665H280.099C279.453 25.5665 278.896 25.7908 278.43 26.2394C277.981 26.6701 277.757 27.1995 277.757 27.8276V47.8009H272.077V27.7199Z" fill="white"/>
<path d="M239.668 29.981C239.668 28.1327 240.116 26.4458 241.014 24.9204C241.929 23.3951 243.149 22.1837 244.675 21.2865C246.2 20.3713 247.887 19.9136 249.735 19.9136H255.819C257.667 19.9136 259.354 20.3713 260.879 21.2865C262.405 22.1837 263.616 23.3951 264.513 24.9204C265.428 26.4458 265.886 28.1327 265.886 29.981V37.7335C265.886 39.5818 265.428 41.2687 264.513 42.7941C263.616 44.3194 262.405 45.5397 260.879 46.455C259.354 47.3522 257.667 47.8009 255.819 47.8009H249.735C247.887 47.8009 246.2 47.3522 244.675 46.455C243.149 45.5397 241.929 44.3194 241.014 42.7941C240.116 41.2687 239.668 39.5818 239.668 37.7335V29.981ZM245.347 37.6796C245.347 38.8999 245.778 39.9497 246.64 40.8291C247.501 41.6904 248.533 42.1211 249.735 42.1211H255.819C257.039 42.1211 258.071 41.6904 258.914 40.8291C259.776 39.9497 260.206 38.8999 260.206 37.6796V30.0349C260.206 28.8146 259.776 27.7738 258.914 26.9124C258.071 26.033 257.039 25.5934 255.819 25.5934H249.735C248.533 25.5934 247.501 26.033 246.64 26.9124C245.778 27.7738 245.347 28.8146 245.347 30.0349V37.6796Z" fill="white"/>
<path d="M199.99 9.5233L204.997 38.3796L211.888 25.8357H217.245L224.136 38.3796L229.143 9.5233H234.822L228.174 47.8009H223.059L214.553 32.4037L206.074 47.8009H200.932L194.284 9.5233H199.99Z" fill="white"/>
<path fill-rule="evenodd" clip-rule="evenodd" d="M290.356 8.42074H298.241V29.4977H298.574L308.668 18.8111H319.073L305.31 33.4178L320.245 48.9035H309.242L298.241 37.5574V48.9035H290.356V8.42074ZM298.538 36.2799L309.709 47.8009H317.649L303.787 33.4266L316.519 19.9137H309.143L299.049 30.6002H297.138V9.5233H291.458V47.8009H297.138V36.2799H298.538Z" fill="white"/>
<path fill-rule="evenodd" clip-rule="evenodd" d="M273.154 23.7899C272.436 24.9743 272.077 26.2843 272.077 27.7199V47.8009H277.757V27.8276C277.757 27.1995 277.981 26.6701 278.43 26.2394C278.896 25.7908 279.453 25.5665 280.099 25.5665H286.317V19.9136H280.099C278.627 19.9136 277.281 20.2636 276.061 20.9635C274.859 21.6633 273.89 22.6055 273.154 23.7899ZM272.214 23.2132L272.217 23.2081C273.048 21.871 274.148 20.8013 275.506 20.0106L275.509 20.0088L275.512 20.007C276.908 19.2069 278.444 18.8111 280.099 18.8111H287.419V26.669H280.099C279.738 26.669 279.456 26.7826 279.194 27.0342L279.193 27.0348C278.964 27.2553 278.859 27.4964 278.859 27.8276V48.9034H270.975V27.7199C270.975 26.0905 271.385 24.5816 272.211 23.2184L272.214 23.2132Z" fill="white"/>
<path fill-rule="evenodd" clip-rule="evenodd" d="M241.014 24.9204C240.116 26.4458 239.668 28.1327 239.668 29.981V37.7335C239.668 39.5818 240.116 41.2687 241.014 42.7941C241.929 44.3194 243.149 45.5397 244.675 46.455C246.2 47.3522 247.887 47.8009 249.735 47.8009H255.819C257.667 47.8009 259.354 47.3522 260.879 46.455C262.405 45.5397 263.616 44.3194 264.513 42.7941C265.428 41.2687 265.886 39.5818 265.886 37.7335V29.981C265.886 28.1327 265.428 26.4458 264.513 24.9204C263.616 23.3951 262.405 22.1837 260.879 21.2865C259.354 20.3713 257.667 19.9136 255.819 19.9136H249.735C247.887 19.9136 246.2 20.3713 244.675 21.2865C243.149 22.1837 241.929 23.3951 241.014 24.9204ZM261.442 20.3386C263.126 21.3298 264.47 22.6735 265.461 24.3571C266.481 26.0597 266.988 27.9426 266.988 29.9811V37.7335C266.988 39.7719 266.481 41.6549 265.461 43.3574C264.47 45.0404 263.127 46.3918 261.446 47.4004L261.442 47.4029L261.438 47.4053C259.736 48.4068 257.854 48.9034 255.819 48.9034H249.735C247.699 48.9034 245.818 48.4068 244.115 47.4053L244.111 47.4029L244.107 47.4004C242.427 46.3921 241.076 45.0419 240.068 43.3614L240.066 43.3573L240.063 43.3531C239.062 41.6506 238.565 39.7693 238.565 37.7335V29.9811C238.565 27.9452 239.062 26.0639 240.063 24.3614L240.066 24.3573L240.068 24.3532C241.077 22.672 242.428 21.3294 244.112 20.3384C245.814 19.318 247.697 18.8111 249.735 18.8111H255.819C257.857 18.8111 259.74 19.3181 261.442 20.3386ZM246.64 40.8291C245.778 39.9497 245.347 38.8999 245.347 37.6796V30.0349C245.347 28.8146 245.778 27.7738 246.64 26.9124C247.501 26.033 248.533 25.5934 249.735 25.5934H255.819C257.039 25.5934 258.071 26.033 258.914 26.9124C259.776 27.7738 260.206 28.8146 260.206 30.0349V37.6796C260.206 38.8999 259.776 39.9497 258.914 40.8291C258.071 41.6904 257.039 42.1211 255.819 42.1211H249.735C248.533 42.1211 247.501 41.6904 246.64 40.8291ZM258.126 40.0575C258.788 39.3823 259.104 38.6086 259.104 37.6796V30.0349C259.104 29.1064 258.789 28.3462 258.134 27.692L258.126 27.6839L258.118 27.6756C257.483 27.0134 256.739 26.696 255.819 26.696H249.735C248.837 26.696 248.087 27.0107 247.427 27.6839L247.423 27.688L247.419 27.692C246.765 28.3462 246.45 29.1064 246.45 30.0349V37.6796C246.45 38.6068 246.764 39.3792 247.423 40.0535C248.08 40.7084 248.831 41.0186 249.735 41.0186H255.819C256.746 41.0186 257.493 40.7042 258.126 40.0575Z" fill="white"/>
<path fill-rule="evenodd" clip-rule="evenodd" d="M200.918 8.42074L205.546 35.0912L211.236 24.7331H217.897L223.587 35.0912L228.215 8.42074H236.133L229.101 48.9035H222.409L214.555 34.6866L206.725 48.9035H200.005L192.973 8.42074H200.918ZM214.553 32.4037L223.059 47.8009H228.174L234.822 9.5233H229.143L224.136 38.3796L217.245 25.8357H211.888L204.997 38.3796L199.99 9.5233H194.284L200.932 47.8009H206.074L214.553 32.4037Z" fill="white"/>
<path d="M173.091 26.3949C173.091 24.9593 173.45 23.6492 174.168 22.4648C174.904 21.2804 175.873 20.3383 177.075 19.6384C178.296 18.9386 179.641 18.5886 181.113 18.5886H187.331V24.2414H181.113C180.467 24.2414 179.911 24.4658 179.444 24.9144C178.995 25.3451 178.771 25.8745 178.771 26.5026V46.4758H173.091V26.3949Z" fill="white"/>
<path fill-rule="evenodd" clip-rule="evenodd" d="M173.228 21.8882L173.232 21.883C174.062 20.546 175.162 19.4763 176.521 18.6855L176.524 18.6838L176.527 18.682C177.922 17.8819 179.458 17.4861 181.113 17.4861H188.434V25.344H181.113C180.753 25.344 180.47 25.4576 180.208 25.7092L180.208 25.7098C179.978 25.9302 179.874 26.1713 179.874 26.5026V47.5784H171.989V26.3949C171.989 24.7655 172.399 23.2566 173.225 21.8934L173.228 21.8882ZM174.168 22.4648C173.45 23.6492 173.091 24.9593 173.091 26.3949V46.4758H178.771V26.5026C178.771 25.8745 178.995 25.3451 179.444 24.9144C179.911 24.4658 180.467 24.2414 181.113 24.2414H187.331V18.5886H181.113C179.641 18.5886 178.296 18.9386 177.075 19.6384C175.873 20.3383 174.904 21.2804 174.168 22.4648Z" fill="white"/>
<path d="M141.274 24.3491C141.274 22.752 141.857 21.3971 143.024 20.2845C144.19 19.1539 145.59 18.5886 147.223 18.5886H158.851C160.341 18.5886 161.687 18.9565 162.889 19.6923C164.109 20.4101 165.078 21.3881 165.796 22.6263C166.532 23.8466 166.9 25.2015 166.9 26.691V27.4716C166.9 28.9431 166.532 30.2891 165.796 31.5093C165.078 32.7117 164.109 33.6807 162.889 34.4165C161.687 35.1343 160.341 35.4932 158.851 35.4932H150.184V29.8404H158.905C159.551 29.8404 160.099 29.6071 160.547 29.1405C161.014 28.674 161.247 28.1087 161.247 27.4447V26.691C161.247 26.0091 161.014 25.4348 160.547 24.9682C160.099 24.5016 159.551 24.2684 158.905 24.2684H146.954V38.5888C146.954 39.199 147.16 39.7194 147.573 40.1501C147.985 40.5808 148.488 40.7961 149.08 40.7961H164.935V46.4758H149.08C147.644 46.4758 146.334 46.1259 145.15 45.426C143.966 44.7082 143.024 43.7571 142.324 42.5727C141.624 41.3704 141.274 40.0514 141.274 38.6157V24.3491Z" fill="white"/>
<path fill-rule="evenodd" clip-rule="evenodd" d="M163.456 35.362L163.454 35.3632C162.07 36.1896 160.527 36.5958 158.851 36.5958H149.081V28.7378H158.905C159.251 28.7378 159.511 28.6272 159.752 28.3763L159.76 28.3686L159.768 28.3609C160.026 28.1026 160.145 27.8183 160.145 27.4447V26.691C160.145 26.2905 160.02 26.0001 159.768 25.7479L159.76 25.7402L159.752 25.7324C159.511 25.4816 159.251 25.3709 158.905 25.3709H148.056V38.5888C148.056 38.9219 148.158 39.1669 148.369 39.3872C148.575 39.6027 148.791 39.6935 149.08 39.6935H166.037V47.5784H149.08C147.456 47.5784 145.951 47.18 144.589 46.3753L144.584 46.3721L144.579 46.3689C143.24 45.5575 142.167 44.4756 141.374 43.1336L141.373 43.1305L141.371 43.1274C140.57 41.7511 140.171 40.2397 140.171 38.6157V24.3491C140.171 22.4488 140.879 20.8077 142.259 19.4897C143.632 18.1606 145.306 17.4861 147.223 17.4861H158.851C160.529 17.4861 162.073 17.9023 163.456 18.7468C164.836 19.56 165.936 20.6712 166.745 22.0652C167.586 23.4632 168.002 25.0136 168.002 26.691V27.4716C168.002 29.1361 167.584 30.6792 166.742 32.0765C165.93 33.4362 164.83 34.5336 163.458 35.3607L163.456 35.362ZM165.796 31.5093C166.532 30.2891 166.9 28.9431 166.9 27.4716V26.691C166.9 25.2015 166.532 23.8466 165.796 22.6263C165.078 21.3881 164.109 20.4101 162.889 19.6923C161.687 18.9565 160.341 18.5886 158.851 18.5886H147.223C145.59 18.5886 144.19 19.1539 143.024 20.2845C141.857 21.3971 141.274 22.752 141.274 24.3491V38.6157C141.274 40.0514 141.624 41.3704 142.324 42.5727C143.024 43.7571 143.966 44.7082 145.15 45.426C146.334 46.1259 147.644 46.4758 149.08 46.4758H164.935V40.7961H149.08C148.488 40.7961 147.985 40.5808 147.573 40.1501C147.16 39.7194 146.954 39.199 146.954 38.5888V24.2684H158.905C159.551 24.2684 160.099 24.5016 160.547 24.9682C161.014 25.4348 161.247 26.0091 161.247 26.691V27.4447C161.247 28.1087 161.014 28.674 160.547 29.1405C160.099 29.6071 159.551 29.8404 158.905 29.8404H150.184V35.4932H158.851C160.341 35.4932 161.687 35.1343 162.889 34.4165C164.109 33.6807 165.078 32.7117 165.796 31.5093Z" fill="white"/>
<path d="M105.204 18.5887L108.407 37.0545L115.298 25.2913H120.655L127.546 37.0545L130.749 18.5887H136.429L131.61 46.4759H126.63L117.99 31.8593L109.322 46.4759H104.342L101.92 32.5323L99.497 18.5887H105.204Z" fill="white"/>
<path fill-rule="evenodd" clip-rule="evenodd" d="M106.131 17.4861L108.978 33.8978L114.666 24.1887H121.287L126.974 33.8978L129.821 17.4861H137.738L132.539 47.5785H126.001L117.988 34.0235L109.95 47.5785H103.415L98.1863 17.4861H106.131ZM117.99 31.8593L126.63 46.4759H131.61L136.429 18.5887H130.749L127.546 37.0545L120.655 25.2913H115.298L108.407 37.0545L105.204 18.5887H99.497L101.92 32.5323L104.342 46.4759H109.322L117.99 31.8593Z" fill="white"/>
<path d="M35.5561 8.19827H41.2359V46.4759H35.5561V8.19827Z" fill="white"/>
<path fill-rule="evenodd" clip-rule="evenodd" d="M34.4536 7.0957H42.3384V47.5785H34.4536V7.0957ZM35.5561 8.19827V46.4759H41.2359V8.19827H35.5561Z" fill="white"/>
<path d="M3.46976 8.19827H29.0958V13.8511H9.14949V46.4759H3.46976V8.19827ZM12.3797 23.73H29.0958V29.3829H12.3797V23.73Z" fill="white"/>
<path fill-rule="evenodd" clip-rule="evenodd" d="M2.36719 7.0957H30.1984V14.9537H10.2521V47.5785H2.36719V7.0957ZM9.14949 13.8511H29.0958V8.19827H3.46976V46.4759H9.14949V13.8511ZM11.2771 22.6275H30.1984V30.4854H11.2771V22.6275ZM12.3797 23.73V29.3829H29.0958V23.73H12.3797Z" fill="white"/>
<path fill-rule="evenodd" clip-rule="evenodd" d="M70.3681 30.5475C72.4593 30.5475 74.1546 28.8523 74.1546 26.761C74.1546 24.6698 72.4593 22.9746 70.3681 22.9746C68.2769 22.9746 66.5816 24.6698 66.5816 26.761C66.5816 28.8523 68.2769 30.5475 70.3681 30.5475ZM70.3681 32.5642C73.5731 32.5642 76.1713 29.9661 76.1713 26.761C76.1713 23.556 73.5731 20.9578 70.3681 20.9578C67.1631 20.9578 64.5649 23.556 64.5649 26.761C64.5649 29.9661 67.1631 32.5642 70.3681 32.5642Z" fill="white"/>
<path fill-rule="evenodd" clip-rule="evenodd" d="M90.0514 27.6996L82.742 27.717L75.4325 27.7343L75.4284 26.0057L90.0473 25.971L90.0514 27.6996Z" fill="white"/>
<path fill-rule="evenodd" clip-rule="evenodd" d="M64.9557 27.7768L50.2701 27.7768V26.0482L64.9557 26.0482V27.7768Z" fill="white"/>
<path fill-rule="evenodd" clip-rule="evenodd" d="M71.4024 9.05844L71.15 21.3284H69.4214L69.6738 9.05844L71.4024 9.05844Z" fill="white"/>
<path fill-rule="evenodd" clip-rule="evenodd" d="M71.294 32.2718L71.3526 49.7675L69.624 49.7628L69.5654 32.2671L71.294 32.2718Z" fill="white"/>
<path fill-rule="evenodd" clip-rule="evenodd" d="M85.462 13.5796L74.9659 23.6332L73.7429 22.4115L84.2391 12.3579L85.462 13.5796Z" fill="white"/>
<path fill-rule="evenodd" clip-rule="evenodd" d="M67.0023 22.0585L58.9504 13.4848L57.7281 14.7072L65.78 23.2809L67.0023 22.0585Z" fill="white"/>
<path fill-rule="evenodd" clip-rule="evenodd" d="M86.2414 44.5021L79.9371 38.6043L78.7489 39.8598L85.0532 45.7576L86.2414 44.5021Z" fill="white"/>
<path fill-rule="evenodd" clip-rule="evenodd" d="M78.2496 45.6525V40.3432H79.1139V45.6525H78.2496Z" fill="white"/>
<path fill-rule="evenodd" clip-rule="evenodd" d="M84.2874 42.0229L89.6685 41.6635L89.4989 39.9432L84.8724 40.2282L74.9352 30.3417L73.7845 31.6317L84.2874 42.0229Z" fill="white"/>
<path fill-rule="evenodd" clip-rule="evenodd" d="M70.4916 8.11672C71.8554 8.11672 72.961 7.01111 72.961 5.64728C72.961 4.28344 71.8554 3.17784 70.4916 3.17784C69.1277 3.17784 68.0221 4.28344 68.0221 5.64728C68.0221 7.01111 69.1277 8.11672 70.4916 8.11672ZM70.4916 9.84534C72.8101 9.84534 74.6896 7.9658 74.6896 5.64728C74.6896 3.32875 72.8101 1.44922 70.4916 1.44922C68.173 1.44922 66.2935 3.32875 66.2935 5.64728C66.2935 7.9658 68.173 9.84534 70.4916 9.84534Z" fill="white"/>
<path fill-rule="evenodd" clip-rule="evenodd" d="M91.2271 41.4591C91.8153 41.4011 92.245 40.8774 92.1871 40.2892C92.1291 39.7011 91.6053 39.2713 91.0172 39.3293C90.429 39.3872 89.9992 39.911 90.0572 40.4992C90.1152 41.0873 90.639 41.5171 91.2271 41.4591ZM91.3402 42.606C92.5617 42.4856 93.4543 41.3977 93.3339 40.1762C93.2135 38.9546 92.1257 38.062 90.9041 38.1824C89.6826 38.3028 88.79 39.3907 88.9104 40.6122C89.0308 41.8337 90.1186 42.7264 91.3402 42.606Z" fill="white"/>
<path fill-rule="evenodd" clip-rule="evenodd" d="M48.0194 6.18233C48.2921 6.18233 48.5133 5.96121 48.5133 5.68844C48.5133 5.41568 48.2921 5.19456 48.0194 5.19456C47.7466 5.19456 47.5255 5.41568 47.5255 5.68844C47.5255 5.96121 47.7466 6.18233 48.0194 6.18233ZM48.0194 7.91095C49.2468 7.91095 50.2419 6.9159 50.2419 5.68844C50.2419 4.46099 49.2468 3.46594 48.0194 3.46594C46.7919 3.46594 45.7969 4.46099 45.7969 5.68844C45.7969 6.9159 46.7919 7.91095 48.0194 7.91095Z" fill="white"/>
<path fill-rule="evenodd" clip-rule="evenodd" d="M87.0444 47.911C87.8687 47.7943 88.4423 47.0313 88.3256 46.207C88.2088 45.3826 87.4459 44.809 86.6216 44.9258C85.7972 45.0425 85.2236 45.8055 85.3404 46.6298C85.4571 47.4542 86.22 48.0278 87.0444 47.911ZM87.206 49.052C88.6605 48.846 89.6726 47.4999 89.4666 46.0454C89.2606 44.5909 87.9145 43.5788 86.46 43.7848C85.0054 43.9908 83.9933 45.3369 84.1993 46.7914C84.4053 48.2459 85.7515 49.258 87.206 49.052Z" fill="white"/>
<path d="M79.9165 46.6441C79.9165 47.3942 79.3084 48.0023 78.5583 48.0023C77.8082 48.0023 77.2001 47.3942 77.2001 46.6441C77.2001 45.894 77.8082 45.2859 78.5583 45.2859C79.3084 45.2859 79.9165 45.894 79.9165 46.6441Z" fill="white"/>
<path fill-rule="evenodd" clip-rule="evenodd" d="M78.5583 46.8499C78.672 46.8499 78.7641 46.7578 78.7641 46.6441C78.7641 46.5305 78.672 46.4384 78.5583 46.4384C78.4447 46.4384 78.3526 46.5305 78.3526 46.6441C78.3526 46.7578 78.4447 46.8499 78.5583 46.8499ZM78.5583 48.0023C79.3084 48.0023 79.9165 47.3942 79.9165 46.6441C79.9165 45.894 79.3084 45.2859 78.5583 45.2859C77.8082 45.2859 77.2001 45.894 77.2001 46.6441C77.2001 47.3942 77.8082 48.0023 78.5583 48.0023Z" fill="white"/>
<path d="M52.7115 21.3283C52.7115 22.0784 52.1035 22.6865 51.3533 22.6865C50.6032 22.6865 49.9952 22.0784 49.9952 21.3283C49.9952 20.5782 50.6032 19.9701 51.3533 19.9701C52.1035 19.9701 52.7115 20.5782 52.7115 21.3283Z" fill="white"/>
<path fill-rule="evenodd" clip-rule="evenodd" d="M51.3533 21.534C51.467 21.534 51.5591 21.4419 51.5591 21.3283C51.5591 21.2146 51.467 21.1225 51.3533 21.1225C51.2397 21.1225 51.1476 21.2146 51.1476 21.3283C51.1476 21.4419 51.2397 21.534 51.3533 21.534ZM51.3533 22.6865C52.1035 22.6865 52.7115 22.0784 52.7115 21.3283C52.7115 20.5782 52.1035 19.9701 51.3533 19.9701C50.6032 19.9701 49.9952 20.5782 49.9952 21.3283C49.9952 22.0784 50.6032 22.6865 51.3533 22.6865Z" fill="white"/>
<path fill-rule="evenodd" clip-rule="evenodd" d="M61.411 47.1575L64.1184 38.8699L67.4999 31.6317L68.7927 32.2671L65.4561 39.414L62.7803 47.6048L61.411 47.1575Z" fill="white"/>
<path fill-rule="evenodd" clip-rule="evenodd" d="M47.6479 27.0919C47.6734 27.6589 48.1537 28.0977 48.7207 28.0722C49.2876 28.0466 49.7265 27.5663 49.7009 26.9994C49.6754 26.4324 49.1951 25.9936 48.6281 26.0191C48.0612 26.0447 47.6223 26.525 47.6479 27.0919ZM45.921 27.1698C45.9895 28.6904 47.2779 29.8676 48.7985 29.799C50.3192 29.7305 51.4963 28.4422 51.4278 26.9215C51.3592 25.4009 50.0709 24.2237 48.5503 24.2922C47.0296 24.3608 45.8524 25.6491 45.921 27.1698Z" fill="white"/>
<path fill-rule="evenodd" clip-rule="evenodd" d="M86.2999 12.72C85.6013 12.7949 84.9743 12.2894 84.8994 11.5908C84.8244 10.8923 85.33 10.2653 86.0285 10.1903C86.7271 10.1154 87.3541 10.621 87.429 11.3195C87.5039 12.018 86.9984 12.6451 86.2999 12.72ZM86.4842 14.4388C84.8364 14.6155 83.3574 13.423 83.1806 11.7752C83.0039 10.1274 84.1964 8.64833 85.8442 8.47159C87.4919 8.29484 88.971 9.48736 89.1478 11.1351C89.3245 12.7829 88.132 14.262 86.4842 14.4388Z" fill="white"/>
<path fill-rule="evenodd" clip-rule="evenodd" d="M57.0509 14.2488C56.0546 14.471 55.0667 13.8435 54.8445 12.8473C54.6222 11.851 55.2497 10.8631 56.246 10.6409C57.2423 10.4186 58.2301 11.0461 58.4524 12.0424C58.6746 13.0387 58.0472 14.0265 57.0509 14.2488ZM57.3018 15.3735C55.6843 15.7344 54.0806 14.7157 53.7197 13.0982C53.3589 11.4807 54.3776 9.87695 55.9951 9.51611C57.6125 9.15527 59.2163 10.174 59.5771 11.7915C59.938 13.4089 58.9193 15.0127 57.3018 15.3735Z" fill="white"/>
<path d="M67.4433 52.3736C67.8056 53.9972 69.4154 55.0199 71.0391 54.6576C72.6628 54.2954 73.6854 52.6855 73.3232 51.0619C72.9609 49.4382 71.3511 48.4156 69.7274 48.7778C68.1037 49.14 67.0811 50.7499 67.4433 52.3736Z" fill="white"/>
<path fill-rule="evenodd" clip-rule="evenodd" d="M70.7882 53.5329C69.7857 53.7565 68.7917 53.1251 68.5681 52.1227C68.3445 51.1202 68.9758 50.1262 69.9783 49.9026C70.9808 49.6789 71.9748 50.3103 72.1984 51.3128C72.422 52.3153 71.7907 53.3092 70.7882 53.5329ZM71.0391 54.6576C69.4154 55.0199 67.8056 53.9972 67.4433 52.3736C67.0811 50.7499 68.1037 49.14 69.7274 48.7778C71.3511 48.4156 72.9609 49.4382 73.3232 51.0619C73.6854 52.6855 72.6628 54.2954 71.0391 54.6576Z" fill="white"/>
<path d="M60.2493 47.8453C60.4572 48.7771 61.381 49.3639 62.3128 49.156C63.2446 48.9482 63.8315 48.0243 63.6236 47.0925C63.4157 46.1607 62.4918 45.5739 61.5601 45.7818C60.6283 45.9896 60.0414 46.9135 60.2493 47.8453Z" fill="white"/>
<path fill-rule="evenodd" clip-rule="evenodd" d="M62.0619 48.0313C61.7513 48.1006 61.4434 47.9049 61.3741 47.5944C61.3048 47.2838 61.5004 46.9758 61.811 46.9065C62.1216 46.8372 62.4295 47.0328 62.4988 47.3434C62.5681 47.654 62.3725 47.962 62.0619 48.0313ZM62.3128 49.156C61.381 49.3639 60.4572 48.7771 60.2493 47.8453C60.0414 46.9135 60.6283 45.9896 61.5601 45.7818C62.4918 45.5739 63.4157 46.1607 63.6236 47.0925C63.8315 48.0243 63.2446 48.9482 62.3128 49.156Z" fill="white"/>
<path d="M72.0143 5.62672C72.0143 6.50185 71.3048 7.21129 70.4297 7.21129C69.5546 7.21129 68.8451 6.50185 68.8451 5.62672C68.8451 4.75158 69.5546 4.04215 70.4297 4.04215C71.3048 4.04215 72.0143 4.75158 72.0143 5.62672Z" fill="white"/>
<path fill-rule="evenodd" clip-rule="evenodd" d="M70.4297 6.05887C70.6684 6.05887 70.8619 5.86539 70.8619 5.62672C70.8619 5.38804 70.6684 5.19456 70.4297 5.19456C70.191 5.19456 69.9976 5.38804 69.9976 5.62672C69.9976 5.86539 70.191 6.05887 70.4297 6.05887ZM70.4297 7.21129C71.3048 7.21129 72.0143 6.50185 72.0143 5.62672C72.0143 4.75158 71.3048 4.04215 70.4297 4.04215C69.5546 4.04215 68.8451 4.75158 68.8451 5.62672C68.8451 6.50185 69.5546 7.21129 70.4297 7.21129Z" fill="white"/>
<path fill-rule="evenodd" clip-rule="evenodd" d="M92.3462 28.6131C93.369 28.6131 94.1982 27.7839 94.1982 26.761C94.1982 25.7382 93.369 24.909 92.3462 24.909C91.3233 24.909 90.4941 25.7382 90.4941 26.761C90.4941 27.7839 91.3233 28.6131 92.3462 28.6131ZM92.3462 30.3417C94.3237 30.3417 95.9269 28.7386 95.9269 26.761C95.9269 24.7835 94.3237 23.1803 92.3462 23.1803C90.3686 23.1803 88.7655 24.7835 88.7655 26.761C88.7655 28.7386 90.3686 30.3417 92.3462 30.3417Z" fill="white"/>
<path fill-rule="evenodd" clip-rule="evenodd" d="M57.3255 39.1439L66.2776 30.4094L67.4999 31.6317L58.5478 40.3662L57.3255 39.1439Z" fill="white"/>
<path fill-rule="evenodd" clip-rule="evenodd" d="M55.0492 40.0672C54.3124 40.7767 54.2902 41.9491 54.9996 42.686C55.7091 43.4228 56.8816 43.445 57.6184 42.7355C58.3552 42.0261 58.3774 40.8536 57.668 40.1168C56.9585 39.3799 55.786 39.3577 55.0492 40.0672ZM53.8502 38.822C52.4257 40.1936 52.3828 42.4604 53.7544 43.8849C55.126 45.3095 57.3928 45.3524 58.8174 43.9808C60.2419 42.6091 60.2848 40.3424 58.9132 38.9178C57.5416 37.4932 55.2748 37.4503 53.8502 38.822Z" fill="white"/>
<path d="M69.8886 40.4457C66.9141 42.9295 61.7687 40.5117 61.8998 36.5378L67.5779 31.2889C68.2083 31.7873 69.3216 32.4103 70.0933 32.6071L69.8886 40.4457Z" fill="#533658"/>
<path fill-rule="evenodd" clip-rule="evenodd" d="M60.1959 35.7588L60.1721 36.4808C60.0792 39.2971 61.8633 41.4516 63.9795 42.4708C66.0875 43.486 68.8758 43.5435 70.9966 41.7725L71.5962 41.2718L71.8574 31.2731L70.5206 30.9321C70.051 30.8124 69.1534 30.3309 68.6502 29.933L67.4903 29.0158L60.1959 35.7588ZM67.5779 31.2889L61.8998 36.5378C61.7687 40.5117 66.9141 42.9295 69.8886 40.4457L70.0933 32.6071C69.3216 32.4103 68.2083 31.7873 67.5779 31.2889Z" fill="white"/>
<path d="M79.7719 36.9755C79.6169 40.8475 74.3713 43.0393 71.5132 40.2752L71.4329 32.543C72.2254 32.4103 73.4344 32.003 74.0983 31.563L79.7719 36.9755Z" fill="#6B4374"/>
<path fill-rule="evenodd" clip-rule="evenodd" d="M69.7922 41.0155L70.3115 41.5177C72.337 43.4767 75.1315 43.6 77.3074 42.7152C79.4747 41.8338 81.3886 39.8054 81.4991 37.0446L81.5303 36.264L74.2932 29.3599L73.1433 30.1221C72.7394 30.3898 71.78 30.7322 71.1473 30.8382L69.689 31.0824L69.7922 41.0155ZM71.4329 32.543L71.5132 40.2752C74.3713 43.0393 79.6169 40.8475 79.7719 36.9755L74.0983 31.563C73.4344 32.003 72.2254 32.4103 71.4329 32.543Z" fill="white"/>
<path d="M57.2246 27.6283C54.5914 30.4713 56.7418 35.734 60.7173 35.8072L66.2507 30.406C65.7853 29.7509 65.2203 28.607 65.0634 27.8262L57.2246 27.6283Z" fill="#49314E"/>
<path fill-rule="evenodd" clip-rule="evenodd" d="M61.4077 37.5488L60.6854 37.5355C57.8681 37.4837 55.8081 35.5913 54.8988 33.4256C53.9932 31.2683 54.0789 28.4807 55.9564 26.4536L56.4873 25.8805L66.4862 26.133L66.7581 27.4855C66.8536 27.9606 67.2883 28.8818 67.6599 29.4048L68.5163 30.6102L61.4077 37.5488ZM66.2507 30.406L60.7173 35.8072C56.7418 35.734 54.5914 30.4713 57.2246 27.6283L65.0634 27.8262C65.2203 28.607 65.7853 29.7509 66.2507 30.406Z" fill="white"/>
<path d="M69.8112 13.3348C66.9681 10.7016 61.7054 12.852 61.6323 16.8275L67.0335 22.3609C67.6886 21.8955 68.8324 21.3305 69.6132 21.1736L69.8112 13.3348Z" fill="#1D181A"/>
<path fill-rule="evenodd" clip-rule="evenodd" d="M59.8906 17.5179L59.9039 16.7956C59.9558 13.9783 61.8481 11.9183 64.0139 11.009C66.1712 10.1034 68.9587 10.1891 70.9858 12.0666L71.559 12.5975L71.3065 22.5964L69.9539 22.8683C69.4789 22.9638 68.5577 23.3985 68.0347 23.7701L66.8293 24.6265L59.8906 17.5179ZM67.0335 22.3609L61.6323 16.8275C61.7054 12.852 66.9681 10.7016 69.8112 13.3348L69.6132 21.1736C68.8324 21.3305 67.6886 21.8955 67.0335 22.3609Z" fill="white"/>
<path d="M84.0101 27.7586C86.6263 30.6173 84.4445 35.8671 80.4687 35.9165L74.9676 30.4824C75.4369 29.8301 76.0087 28.6896 76.1703 27.9098L84.0101 27.7586Z" fill="#835191"/>
<path fill-rule="evenodd" clip-rule="evenodd" d="M79.7678 37.654L80.4902 37.645C83.3078 37.61 85.3791 35.73 86.3012 33.5697C87.2197 31.4178 87.1506 28.6298 85.2853 26.5916L84.7578 26.0152L74.7576 26.2081L74.4776 27.559C74.3793 28.0334 73.9391 28.952 73.5644 29.4728L72.7008 30.673L79.7678 37.654ZM74.9676 30.4824L80.4687 35.9165C84.4445 35.8671 86.6263 30.6173 84.0101 27.7586L76.1703 27.9098C76.0087 28.6896 75.4369 29.8301 74.9676 30.4824Z" fill="white"/>
<path d="M60.5797 17.753C56.7074 17.9014 54.5066 23.1433 57.266 26.0061L64.998 26.0996C65.1321 25.3073 65.5414 24.0989 65.9825 23.4358L60.5797 17.753Z" fill="#2A2029"/>
<path fill-rule="evenodd" clip-rule="evenodd" d="M56.5227 27.7258L56.0214 27.2057C54.0659 25.1769 53.9473 22.3821 54.8358 20.2078C55.7208 18.0419 57.7526 16.1315 60.5135 16.0257L61.2942 15.9958L68.1859 23.2446L67.4218 24.3933C67.1534 24.7967 66.8094 25.7555 66.7023 26.3881L66.4556 27.8459L56.5227 27.7258ZM64.998 26.0996L57.266 26.0061C54.5066 23.1433 56.7074 17.9014 60.5797 17.753L65.9825 23.4358C65.5414 24.0989 65.1321 25.3073 64.998 26.0996Z" fill="white"/>
<path d="M83.8507 26.0831C86.4344 23.195 84.1934 17.9702 80.2173 17.9658L74.778 23.4618C75.2546 24.1088 75.8393 25.2427 76.0097 26.0206L83.8507 26.0831Z" fill="#A061B3"/>
<path fill-rule="evenodd" clip-rule="evenodd" d="M79.4968 16.2363L80.2192 16.2371C83.037 16.2403 85.1294 18.0967 86.076 20.2465C87.0188 22.3878 86.9812 25.1764 85.1391 27.2356L84.6182 27.8179L74.6164 27.7382L74.3212 26.3906C74.2175 25.9172 73.7669 25.0037 73.3863 24.4872L72.5092 23.2968L79.4968 16.2363ZM74.778 23.4618L80.2173 17.9658C84.1934 17.9702 86.4344 23.195 83.8507 26.0831L76.0097 26.0206C75.8393 25.2427 75.2546 24.1088 74.778 23.4618Z" fill="white"/>
<path d="M79.4651 16.8739C79.3167 13.0016 74.0749 10.8009 71.212 13.5602L71.1185 21.2922C71.9108 21.4263 73.1192 21.8356 73.7823 22.2767L79.4651 16.8739Z" fill="#BA6FD1"/>
<path fill-rule="evenodd" clip-rule="evenodd" d="M69.4923 12.8169L70.0124 12.3156C72.0413 10.3601 74.836 10.2415 77.0104 11.13C79.1762 12.015 81.0866 14.0468 81.1924 16.8077L81.2223 17.5884L73.9735 24.4801L72.8248 23.716C72.4214 23.4476 71.4626 23.1036 70.83 22.9965L69.3722 22.7498L69.4923 12.8169ZM71.1185 21.2922L71.212 13.5602C74.0749 10.8009 79.3167 13.0016 79.4651 16.8739L73.7823 22.2767C73.1192 21.8356 71.9108 21.4263 71.1185 21.2922Z" fill="white"/>
<path fill-rule="evenodd" clip-rule="evenodd" d="M70.4927 30.5471C72.5157 30.5471 74.1557 28.9071 74.1557 26.8841C74.1557 24.8611 72.5157 23.2211 70.4927 23.2211C68.4697 23.2211 66.8297 24.8611 66.8297 26.8841C66.8297 28.9071 68.4697 30.5471 70.4927 30.5471ZM70.4927 32.5638C73.6296 32.5638 76.1725 30.0209 76.1725 26.8841C76.1725 23.7473 73.6296 21.2044 70.4927 21.2044C67.3559 21.2044 64.813 23.7473 64.813 26.8841C64.813 30.0209 67.3559 32.5638 70.4927 32.5638Z" fill="white"/>
</svg>
