<svg width="429" height="75" viewBox="0 0 429 75" fill="none" xmlns="http://www.w3.org/2000/svg">
<path d="M386.964 12.6192H394.491V40.5488H397.023L410.4 26.3878H420.173L403.301 44.2941L421.671 63.3418H411.149L396.346 48.0751H394.491V63.3418H386.964V12.6192Z" fill="#282624"/>
<path d="M361.282 36.732C361.282 34.8296 361.758 33.0937 362.709 31.5242C363.684 29.9547 364.968 28.7063 366.561 27.7789C368.179 26.8514 369.962 26.3877 371.912 26.3877H380.152V33.8784H371.912C371.056 33.8784 370.319 34.1757 369.7 34.7702C369.106 35.3409 368.809 36.0424 368.809 36.8747V63.3418H361.282V36.732Z" fill="#282624"/>
<path d="M318.336 39.7283C318.336 37.2789 318.93 35.0436 320.119 33.0223C321.332 31.001 322.949 29.3959 324.97 28.2069C326.992 26.9941 329.227 26.3877 331.676 26.3877H339.738C342.187 26.3877 344.422 26.9941 346.444 28.2069C348.465 29.3959 350.07 31.001 351.259 33.0223C352.472 35.0436 353.078 37.2789 353.078 39.7283V50.0012C353.078 52.4506 352.472 54.6859 351.259 56.7072C350.07 58.7285 348.465 60.3455 346.444 61.5583C344.422 62.7473 342.187 63.3418 339.738 63.3418H331.676C329.227 63.3418 326.992 62.7473 324.97 61.5583C322.949 60.3455 321.332 58.7285 320.119 56.7072C318.93 54.6859 318.336 52.4506 318.336 50.0012V39.7283ZM325.862 49.9299C325.862 51.5469 326.433 52.938 327.574 54.1033C328.716 55.2447 330.083 55.8154 331.676 55.8154H339.738C341.355 55.8154 342.722 55.2447 343.84 54.1033C344.981 52.938 345.552 51.5469 345.552 49.9299V39.7996C345.552 38.1826 344.981 36.8033 343.84 35.6619C342.722 34.4967 341.355 33.9141 339.738 33.9141H331.676C330.083 33.9141 328.716 34.4967 327.574 35.6619C326.433 36.8033 325.862 38.1826 325.862 39.7996V49.9299Z" fill="#282624"/>
<path d="M265.758 12.6192L272.393 50.8574L281.524 34.2352H288.623L297.754 50.8574L304.389 12.6192H311.915L303.105 63.3418H296.327L285.056 42.9386L273.82 63.3418H267.007L258.196 12.6192H265.758Z" fill="#282624"/>
<path fill-rule="evenodd" clip-rule="evenodd" d="M385.504 11.1582H395.952V39.0877H396.394L409.77 24.9268H423.557L405.32 44.2824L425.11 64.8029H410.53L395.952 49.7678V64.8029H385.504V11.1582ZM396.346 48.0751L411.149 63.3418H421.671L403.301 44.2941L420.173 26.3878H410.4L397.023 40.5488H394.491V12.6192H386.964V63.3418H394.491V48.0751H396.346Z" fill="#282624"/>
<path fill-rule="evenodd" clip-rule="evenodd" d="M362.709 31.5242C361.758 33.0937 361.282 34.8296 361.282 36.732V63.3418H368.809V36.8747C368.809 36.0424 369.106 35.3409 369.7 34.7702C370.319 34.1757 371.056 33.8784 371.912 33.8784H380.152V26.3877H371.912C369.962 26.3877 368.179 26.8514 366.561 27.7789C364.968 28.7063 363.684 29.9547 362.709 31.5242ZM361.464 30.7601L361.468 30.7532C362.569 28.9814 364.026 27.564 365.826 26.5162L365.83 26.5138L365.834 26.5115C367.683 25.4512 369.719 24.9267 371.912 24.9267H381.613V35.3395H371.912C371.434 35.3395 371.06 35.49 370.713 35.8233L370.712 35.8241C370.408 36.1163 370.27 36.4358 370.27 36.8747V64.8028H359.821V36.732C359.821 34.5729 360.365 32.5734 361.459 30.7669L361.464 30.7601Z" fill="#282624"/>
<path fill-rule="evenodd" clip-rule="evenodd" d="M320.119 33.0223C318.93 35.0436 318.336 37.2789 318.336 39.7283V50.0012C318.336 52.4506 318.93 54.6859 320.119 56.7072C321.332 58.7285 322.949 60.3455 324.97 61.5583C326.992 62.7473 329.227 63.3418 331.676 63.3418H339.738C342.187 63.3418 344.422 62.7473 346.444 61.5583C348.465 60.3455 350.07 58.7285 351.259 56.7072C352.472 54.6859 353.078 52.4506 353.078 50.0012V39.7283C353.078 37.2789 352.472 35.0436 351.259 33.0223C350.07 31.001 348.465 29.3959 346.444 28.2069C344.422 26.9941 342.187 26.3877 339.738 26.3877H331.676C329.227 26.3877 326.992 26.9941 324.97 28.2069C322.949 29.3959 321.332 31.001 320.119 33.0223ZM347.19 26.9508C349.421 28.2643 351.201 30.0449 352.515 32.2759C353.867 34.532 354.539 37.0271 354.539 39.7283V50.0012C354.539 52.7024 353.867 55.1975 352.515 57.4537C351.202 59.6839 349.423 61.4746 347.195 62.8111L347.19 62.8144L347.184 62.8176C344.928 64.1447 342.435 64.8028 339.738 64.8028H331.676C328.978 64.8028 326.485 64.1447 324.229 62.8176L324.224 62.8144L324.218 62.8111C321.992 61.475 320.202 59.6858 318.866 57.4589L318.863 57.4534L318.86 57.448C317.533 55.1919 316.875 52.699 316.875 50.0012V39.7283C316.875 37.0305 317.533 34.5376 318.86 32.2816L318.863 32.2761L318.866 32.2706C320.203 30.0428 321.994 28.2637 324.224 26.9506C326.48 25.5984 328.975 24.9267 331.676 24.9267H339.738C342.439 24.9267 344.934 25.5985 347.19 26.9508ZM327.574 54.1033C326.433 52.938 325.862 51.5469 325.862 49.9299V39.7996C325.862 38.1826 326.433 36.8033 327.574 35.6619C328.716 34.4967 330.083 33.9141 331.676 33.9141H339.738C341.355 33.9141 342.722 34.4967 343.84 35.6619C344.981 36.8033 345.552 38.1826 345.552 39.7996V49.9299C345.552 51.5469 344.981 52.938 343.84 54.1033C342.722 55.2447 341.355 55.8154 339.738 55.8154H331.676C330.083 55.8154 328.716 55.2447 327.574 54.1033ZM342.796 53.0809C343.672 52.1861 344.091 51.1609 344.091 49.9299V39.7996C344.091 38.5693 343.673 37.5619 342.806 36.695L342.796 36.6843L342.785 36.6733C341.943 35.7958 340.957 35.3751 339.738 35.3751H331.676C330.486 35.3751 329.492 35.7921 328.618 36.6843L328.613 36.6897L328.607 36.695C327.74 37.5619 327.323 38.5693 327.323 39.7996V49.9299C327.323 51.1585 327.74 52.182 328.613 53.0755C329.483 53.9433 330.479 54.3544 331.676 54.3544H339.738C340.967 54.3544 341.957 53.9378 342.796 53.0809Z" fill="#282624"/>
<path fill-rule="evenodd" clip-rule="evenodd" d="M266.988 11.1582L273.12 46.4999L280.66 32.7742H289.487L297.027 46.4999L303.159 11.1582H313.652L304.334 64.8029H295.465L285.058 45.9637L274.683 64.8029H265.778L256.459 11.1582H266.988ZM285.056 42.9386L296.327 63.3418H303.105L311.915 12.6192H304.389L297.754 50.8574L288.623 34.2352H281.524L272.393 50.8574L265.758 12.6192H258.196L267.007 63.3418H273.82L285.056 42.9386Z" fill="#282624"/>
<path d="M230.114 34.9762C230.114 33.0738 230.589 31.3379 231.541 29.7684C232.516 28.1989 233.8 26.9504 235.393 26.023C237.01 25.0956 238.793 24.6319 240.743 24.6319H248.983V32.1226H240.743C239.887 32.1226 239.15 32.4198 238.532 33.0143C237.937 33.5851 237.64 34.2866 237.64 35.1189V61.5859H230.114V34.9762Z" fill="#282624"/>
<path fill-rule="evenodd" clip-rule="evenodd" d="M230.295 29.0042L230.299 28.9974C231.4 27.2256 232.858 25.8081 234.658 24.7603L234.662 24.758L234.666 24.7556C236.515 23.6954 238.551 23.1709 240.743 23.1709H250.444V33.5836H240.743C240.266 33.5836 239.891 33.7341 239.544 34.0675L239.544 34.0683C239.239 34.3604 239.101 34.6799 239.101 35.1189V63.047H228.653V34.9762C228.653 32.817 229.196 30.8175 230.291 29.0111L230.295 29.0042ZM231.541 29.7684C230.589 31.3379 230.114 33.0738 230.114 34.9762V61.5859H237.64V35.1189C237.64 34.2866 237.937 33.5851 238.532 33.0143C239.15 32.4198 239.887 32.1226 240.743 32.1226H248.983V24.6319H240.743C238.793 24.6319 237.01 25.0956 235.393 26.023C233.8 26.9504 232.516 28.1989 231.541 29.7684Z" fill="#282624"/>
<path d="M187.951 32.2653C187.951 30.1488 188.724 28.3535 190.27 26.8791C191.816 25.381 193.671 24.6319 195.835 24.6319H211.244C213.218 24.6319 215.001 25.1194 216.594 26.0944C218.211 27.0456 219.496 28.3416 220.447 29.9824C221.422 31.5994 221.909 33.3948 221.909 35.3686V36.403C221.909 38.3529 221.422 40.1364 220.447 41.7535C219.496 43.3467 218.211 44.6308 216.594 45.6058C215.001 46.557 213.218 47.0326 211.244 47.0326H199.758V39.5419H211.315C212.171 39.5419 212.897 39.2328 213.491 38.6145C214.109 37.9962 214.419 37.2472 214.419 36.3673V35.3686C214.419 34.4649 214.109 33.704 213.491 33.0857C212.897 32.4674 212.171 32.1583 211.315 32.1583H195.478V51.1347C195.478 51.9432 195.751 52.6328 196.298 53.2035C196.845 53.7742 197.511 54.0596 198.296 54.0596H219.305V61.5859H198.296C196.393 61.5859 194.657 61.1222 193.088 60.1948C191.518 59.2436 190.27 57.9833 189.343 56.4138C188.415 54.8205 187.951 53.0727 187.951 51.1703V32.2653Z" fill="#282624"/>
<path fill-rule="evenodd" clip-rule="evenodd" d="M217.346 46.8587L217.343 46.8603C215.509 47.9554 213.464 48.4937 211.244 48.4937H198.297V38.0809H211.315C211.773 38.0809 212.118 37.9343 212.438 37.6019L212.448 37.5915L212.458 37.5814C212.8 37.239 212.958 36.8624 212.958 36.3673V35.3686C212.958 34.8379 212.792 34.453 212.458 34.1188L212.448 34.1087L212.438 34.0983C212.118 33.7659 211.773 33.6193 211.315 33.6193H196.939V51.1347C196.939 51.576 197.073 51.9007 197.353 52.1926C197.627 52.4782 197.913 52.5985 198.296 52.5985H220.766V63.047H198.296C196.144 63.047 194.149 62.519 192.345 61.4527L192.338 61.4485L192.331 61.4443C190.557 60.3691 189.136 58.9354 188.085 57.1571L188.082 57.1529L188.08 57.1488C187.018 55.3251 186.49 53.3223 186.49 51.1703V32.2653C186.49 29.7471 187.428 27.5724 189.257 25.8259C191.076 24.0647 193.295 23.1709 195.835 23.1709H211.244C213.466 23.1709 215.513 23.7224 217.346 24.8415C219.174 25.919 220.631 27.3916 221.705 29.2388C222.819 31.0913 223.37 33.1459 223.37 35.3686V36.403C223.37 38.6086 222.815 40.6534 221.7 42.5051C220.623 44.3068 219.167 45.761 217.349 46.857L217.346 46.8587ZM220.447 41.7535C221.422 40.1364 221.909 38.3529 221.909 36.403V35.3686C221.909 33.3948 221.422 31.5994 220.447 29.9824C219.496 28.3416 218.211 27.0456 216.594 26.0944C215.001 25.1194 213.218 24.6319 211.244 24.6319H195.835C193.671 24.6319 191.816 25.381 190.27 26.8791C188.724 28.3535 187.951 30.1488 187.951 32.2653V51.1703C187.951 53.0727 188.415 54.8205 189.343 56.4138C190.27 57.9833 191.518 59.2436 193.088 60.1948C194.657 61.1222 196.393 61.5859 198.296 61.5859H219.305V54.0596H198.296C197.511 54.0596 196.845 53.7742 196.298 53.2035C195.751 52.6328 195.478 51.9432 195.478 51.1347V32.1583H211.315C212.171 32.1583 212.897 32.4674 213.491 33.0857C214.109 33.704 214.419 34.4649 214.419 35.3686V36.3673C214.419 37.2472 214.109 37.9962 213.491 38.6145C212.897 39.2328 212.171 39.5419 211.315 39.5419H199.758V47.0326H211.244C213.218 47.0326 215.001 46.557 216.594 45.6058C218.211 44.6308 219.496 43.3467 220.447 41.7535Z" fill="#282624"/>
<path d="M140.154 24.632L144.399 49.1016L153.53 33.5138H160.628L169.76 49.1016L174.005 24.632H181.531L175.146 61.586H168.547L157.097 42.2173L145.611 61.586H139.013L135.802 43.109L132.592 24.632H140.154Z" fill="#282624"/>
<path fill-rule="evenodd" clip-rule="evenodd" d="M141.383 23.171L145.156 44.9185L152.693 32.0528H161.466L169.003 44.9185L172.775 23.171H183.266L176.376 63.0471H167.714L157.095 45.085L146.444 63.0471H137.783L130.855 23.171H141.383ZM157.097 42.2173L168.547 61.586H175.146L181.531 24.632H174.005L169.76 49.1016L160.628 33.5138H153.53L144.399 49.1016L140.154 24.632H132.592L135.802 43.109L139.013 61.586H145.611L157.097 42.2173Z" fill="#282624"/>
<path d="M47.8623 10.8634H55.3887V61.586H47.8623V10.8634Z" fill="#282624"/>
<path fill-rule="evenodd" clip-rule="evenodd" d="M46.4013 9.40234H56.8497V63.0471H46.4013V9.40234ZM47.8623 10.8634V61.586H55.3887V10.8634H47.8623Z" fill="#282624"/>
<path d="M5.34385 10.8634H39.3016V18.3541H12.8702V61.586H5.34385V10.8634ZM17.1506 31.4449H39.3016V38.9356H17.1506V31.4449Z" fill="#282624"/>
<path fill-rule="evenodd" clip-rule="evenodd" d="M3.88281 9.40234H40.7627V19.8151H14.3312V63.0471H3.88281V9.40234ZM12.8702 18.3541H39.3016V10.8634H5.34385V61.586H12.8702V18.3541ZM15.6896 29.9839H40.7627V40.3967H15.6896V29.9839ZM17.1506 31.4449V38.9356H39.3016V31.4449H17.1506Z" fill="#282624"/>
<path fill-rule="evenodd" clip-rule="evenodd" d="M93.9974 40.4769C96.7685 40.4769 99.015 38.2304 99.015 35.4593C99.015 32.6882 96.7685 30.4418 93.9974 30.4418C91.2263 30.4418 88.9799 32.6882 88.9799 35.4593C88.9799 38.2304 91.2263 40.4769 93.9974 40.4769ZM93.9974 43.1493C98.2445 43.1493 101.687 39.7064 101.687 35.4593C101.687 31.2123 98.2445 27.7693 93.9974 27.7693C89.7504 27.7693 86.3075 31.2123 86.3075 35.4593C86.3075 39.7064 89.7504 43.1493 93.9974 43.1493Z" fill="#181615"/>
<path fill-rule="evenodd" clip-rule="evenodd" d="M120.08 36.703L110.394 36.726L100.708 36.749L100.703 34.4584L120.075 34.4124L120.08 36.703Z" fill="#181615"/>
<path fill-rule="evenodd" clip-rule="evenodd" d="M86.8254 36.8053L67.365 36.8053L67.365 34.5147L86.8254 34.5147V36.8053Z" fill="#181615"/>
<path fill-rule="evenodd" clip-rule="evenodd" d="M95.368 12.0011L95.0335 28.2603H92.7429L93.0774 12.0011L95.368 12.0011Z" fill="#181615"/>
<path fill-rule="evenodd" clip-rule="evenodd" d="M95.2244 42.7618L95.3021 65.9458L93.0115 65.9395L92.9338 42.7555L95.2244 42.7618Z" fill="#181615"/>
<path fill-rule="evenodd" clip-rule="evenodd" d="M113.999 17.9922L100.09 31.3145L98.4695 29.6956L112.378 16.3734L113.999 17.9922Z" fill="#181615"/>
<path fill-rule="evenodd" clip-rule="evenodd" d="M89.5373 29.2279L78.8676 17.8667L77.2479 19.4864L87.9176 30.8476L89.5373 29.2279Z" fill="#181615"/>
<path fill-rule="evenodd" clip-rule="evenodd" d="M115.032 58.9685L106.678 51.1531L105.103 52.8168L113.457 60.6322L115.032 58.9685Z" fill="#181615"/>
<path fill-rule="evenodd" clip-rule="evenodd" d="M104.441 60.4928V53.4573H105.587V60.4928H104.441Z" fill="#181615"/>
<path fill-rule="evenodd" clip-rule="evenodd" d="M112.442 55.6831L119.573 55.2069L119.348 52.9274L113.217 53.305L100.049 40.2042L98.5246 41.9135L112.442 55.6831Z" fill="#181615"/>
<path fill-rule="evenodd" clip-rule="evenodd" d="M94.161 10.7532C95.9683 10.7532 97.4334 9.28817 97.4334 7.48092C97.4334 5.67367 95.9683 4.20861 94.161 4.20861C92.3538 4.20861 90.8887 5.67367 90.8887 7.48092C90.8887 9.28817 92.3538 10.7532 94.161 10.7532ZM94.161 13.0439C97.2334 13.0439 99.724 10.5533 99.724 7.48092C99.724 4.40859 97.2334 1.91797 94.161 1.91797C91.0887 1.91797 88.5981 4.40859 88.5981 7.48092C88.5981 10.5533 91.0887 13.0439 94.161 13.0439Z" fill="#181615"/>
<path fill-rule="evenodd" clip-rule="evenodd" d="M121.638 54.9361C122.418 54.8593 122.987 54.1652 122.91 53.3858C122.833 52.6065 122.139 52.0369 121.36 52.1138C120.581 52.1906 120.011 52.8846 120.088 53.664C120.165 54.4434 120.859 55.0129 121.638 54.9361ZM121.788 56.4558C123.407 56.2963 124.59 54.8547 124.43 53.236C124.27 51.6173 122.829 50.4345 121.21 50.594C119.592 50.7536 118.409 52.1951 118.568 53.8138C118.728 55.4325 120.169 56.6154 121.788 56.4558Z" fill="#181615"/>
<path fill-rule="evenodd" clip-rule="evenodd" d="M64.3826 8.18993C64.744 8.18993 65.037 7.89692 65.037 7.53547C65.037 7.17403 64.744 6.88102 64.3826 6.88102C64.0211 6.88102 63.7281 7.17403 63.7281 7.53547C63.7281 7.89692 64.0211 8.18993 64.3826 8.18993ZM64.3826 10.4806C66.0091 10.4806 67.3277 9.162 67.3277 7.53547C67.3277 5.90894 66.0091 4.59038 64.3826 4.59038C62.7561 4.59038 61.4375 5.90894 61.4375 7.53547C61.4375 9.162 62.7561 10.4806 64.3826 10.4806Z" fill="#181615"/>
<path fill-rule="evenodd" clip-rule="evenodd" d="M116.096 63.4856C117.188 63.3309 117.948 62.32 117.793 61.2276C117.639 60.1353 116.628 59.3751 115.535 59.5299C114.443 59.6846 113.683 60.6955 113.838 61.7879C113.992 62.8803 115.003 63.6404 116.096 63.4856ZM116.31 64.9977C118.237 64.7247 119.578 62.9409 119.305 61.0135C119.032 59.086 117.249 57.7449 115.321 58.0179C113.394 58.2908 112.053 60.0746 112.326 62.002C112.599 63.9295 114.382 65.2706 116.31 64.9977Z" fill="#181615"/>
<path d="M106.65 61.8069C106.65 62.8009 105.845 63.6067 104.851 63.6067C103.857 63.6067 103.051 62.8009 103.051 61.8069C103.051 60.8129 103.857 60.0071 104.851 60.0071C105.845 60.0071 106.65 60.8129 106.65 61.8069Z" fill="#181615"/>
<path fill-rule="evenodd" clip-rule="evenodd" d="M104.851 62.0796C105.001 62.0796 105.123 61.9575 105.123 61.8069C105.123 61.6563 105.001 61.5342 104.851 61.5342C104.7 61.5342 104.578 61.6563 104.578 61.8069C104.578 61.9575 104.7 62.0796 104.851 62.0796ZM104.851 63.6067C105.845 63.6067 106.65 62.8009 106.65 61.8069C106.65 60.8129 105.845 60.0071 104.851 60.0071C103.857 60.0071 103.051 60.8129 103.051 61.8069C103.051 62.8009 103.857 63.6067 104.851 63.6067Z" fill="#181615"/>
<path d="M70.6003 28.2602C70.6003 29.2542 69.7945 30.06 68.8005 30.06C67.8065 30.06 67.0007 29.2542 67.0007 28.2602C67.0007 27.2662 67.8065 26.4604 68.8005 26.4604C69.7945 26.4604 70.6003 27.2662 70.6003 28.2602Z" fill="#181615"/>
<path fill-rule="evenodd" clip-rule="evenodd" d="M68.8005 28.5329C68.9511 28.5329 69.0732 28.4108 69.0732 28.2602C69.0732 28.1096 68.9511 27.9875 68.8005 27.9875C68.6499 27.9875 68.5278 28.1096 68.5278 28.2602C68.5278 28.4108 68.6499 28.5329 68.8005 28.5329ZM68.8005 30.06C69.7945 30.06 70.6003 29.2542 70.6003 28.2602C70.6003 27.2662 69.7945 26.4604 68.8005 26.4604C67.8065 26.4604 67.0007 27.2662 67.0007 28.2602C67.0007 29.2542 67.8065 30.06 68.8005 30.06Z" fill="#181615"/>
<path fill-rule="evenodd" clip-rule="evenodd" d="M82.1282 62.4871L85.7158 51.5051L90.1968 41.9135L91.9099 42.7555L87.4884 52.2261L83.9427 63.0799L82.1282 62.4871Z" fill="#181615"/>
<path fill-rule="evenodd" clip-rule="evenodd" d="M63.8903 35.8978C63.9242 36.649 64.5606 37.2306 65.3119 37.1967C66.0632 37.1628 66.6447 36.5264 66.6108 35.7751C66.577 35.0238 65.9405 34.4423 65.1892 34.4762C64.438 34.51 63.8564 35.1465 63.8903 35.8978ZM61.602 36.0009C61.6928 38.016 63.4 39.5759 65.415 39.485C67.4301 39.3942 68.99 37.687 68.8992 35.672C68.8083 33.6569 67.1012 32.097 65.0861 32.1878C63.071 32.2787 61.5111 33.9858 61.602 36.0009Z" fill="#181615"/>
<path fill-rule="evenodd" clip-rule="evenodd" d="M115.109 16.8532C114.183 16.9524 113.352 16.2825 113.253 15.3569C113.154 14.4312 113.824 13.6003 114.749 13.5011C115.675 13.4018 116.506 14.0717 116.605 14.9973C116.705 15.923 116.035 16.7539 115.109 16.8532ZM115.353 19.1307C113.17 19.3649 111.21 17.7847 110.976 15.6012C110.741 13.4177 112.322 11.4577 114.505 11.2235C116.689 10.9893 118.649 12.5695 118.883 14.753C119.117 16.9366 117.537 18.8965 115.353 19.1307Z" fill="#181615"/>
<path fill-rule="evenodd" clip-rule="evenodd" d="M76.3504 18.879C75.0302 19.1735 73.7212 18.342 73.4267 17.0218C73.1322 15.7016 73.9637 14.3926 75.2839 14.0981C76.6041 13.8035 77.9131 14.635 78.2076 15.9552C78.5021 17.2754 77.6706 18.5844 76.3504 18.879ZM76.6829 20.3694C74.5396 20.8476 72.4144 19.4977 71.9363 17.3543C71.4581 15.2109 72.808 13.0858 74.9514 12.6076C77.0947 12.1295 79.2199 13.4794 79.6981 15.6227C80.1762 17.7661 78.8263 19.8913 76.6829 20.3694Z" fill="#181615"/>
<path d="M90.1218 69.3991C90.6018 71.5507 92.7351 72.9058 94.8866 72.4258C97.0382 71.9458 98.3932 69.8125 97.9133 67.6609C97.4333 65.5094 95.3 64.1543 93.1484 64.6343C90.9969 65.1143 89.6418 67.2476 90.1218 69.3991Z" fill="#181615"/>
<path fill-rule="evenodd" clip-rule="evenodd" d="M94.5541 70.9353C93.2257 71.2317 91.9086 70.395 91.6122 69.0666C91.3159 67.7382 92.1525 66.4211 93.4809 66.1247C94.8093 65.8284 96.1265 66.665 96.4228 67.9934C96.7192 69.3218 95.8825 70.639 94.5541 70.9353ZM94.8866 72.4258C92.7351 72.9058 90.6018 71.5507 90.1218 69.3991C89.6418 67.2476 90.9969 65.1143 93.1484 64.6343C95.3 64.1543 97.4333 65.5094 97.9133 67.6609C98.3932 69.8125 97.0382 71.9458 94.8866 72.4258Z" fill="#181615"/>
<path d="M80.5888 63.3985C80.8642 64.6333 82.0885 65.4109 83.3232 65.1355C84.5579 64.86 85.3356 63.6358 85.0601 62.401C84.7847 61.1663 83.5604 60.3887 82.3257 60.6641C81.091 60.9396 80.3133 62.1638 80.5888 63.3985Z" fill="#181615"/>
<path fill-rule="evenodd" clip-rule="evenodd" d="M82.9907 63.645C82.5791 63.7368 82.171 63.4776 82.0792 63.066C81.9874 62.6545 82.2466 62.2464 82.6582 62.1546C83.0698 62.0628 83.4779 62.322 83.5697 62.7335C83.6615 63.1451 83.4023 63.5532 82.9907 63.645ZM83.3232 65.1355C82.0885 65.4109 80.8642 64.6333 80.5888 63.3985C80.3133 62.1638 81.091 60.9396 82.3257 60.6641C83.5604 60.3887 84.7847 61.1663 85.0601 62.401C85.3356 63.6358 84.5579 64.86 83.3232 65.1355Z" fill="#181615"/>
<path d="M96.1788 7.45368C96.1788 8.61334 95.2387 9.55343 94.0791 9.55343C92.9194 9.55343 91.9793 8.61334 91.9793 7.45368C91.9793 6.29402 92.9194 5.35393 94.0791 5.35393C95.2387 5.35393 96.1788 6.29402 96.1788 7.45368Z" fill="#181615"/>
<path fill-rule="evenodd" clip-rule="evenodd" d="M94.0791 8.02634C94.3954 8.02634 94.6517 7.76995 94.6517 7.45368C94.6517 7.13741 94.3954 6.88102 94.0791 6.88102C93.7628 6.88102 93.5064 7.13741 93.5064 7.45368C93.5064 7.76995 93.7628 8.02634 94.0791 8.02634ZM94.0791 9.55343C95.2387 9.55343 96.1788 8.61334 96.1788 7.45368C96.1788 6.29402 95.2387 5.35393 94.0791 5.35393C92.9194 5.35393 91.9793 6.29402 91.9793 7.45368C91.9793 8.61334 92.9194 9.55343 94.0791 9.55343Z" fill="#181615"/>
<path fill-rule="evenodd" clip-rule="evenodd" d="M123.121 37.9135C124.477 37.9135 125.575 36.8147 125.575 35.4593C125.575 34.1039 124.477 33.0051 123.121 33.0051C121.766 33.0051 120.667 34.1039 120.667 35.4593C120.667 36.8147 121.766 37.9135 123.121 37.9135ZM123.121 40.2042C125.742 40.2042 127.866 38.0798 127.866 35.4593C127.866 32.8388 125.742 30.7144 123.121 30.7144C120.501 30.7144 118.376 32.8388 118.376 35.4593C118.376 38.0798 120.501 40.2042 123.121 40.2042Z" fill="#181615"/>
<path fill-rule="evenodd" clip-rule="evenodd" d="M76.7143 51.8681L88.577 40.2938L90.1968 41.9135L78.3341 53.4878L76.7143 51.8681Z" fill="#181615"/>
<path fill-rule="evenodd" clip-rule="evenodd" d="M73.698 53.0916C72.7216 54.0318 72.6922 55.5854 73.6323 56.5618C74.5724 57.5382 76.1261 57.5676 77.1025 56.6275C78.0789 55.6874 78.1083 54.1337 77.1682 53.1573C76.2281 52.1809 74.6744 52.1515 73.698 53.0916ZM72.1092 51.4415C70.2215 53.2591 70.1646 56.2629 71.9822 58.1506C73.7998 60.0383 76.8036 60.0952 78.6913 58.2776C80.579 56.46 80.6359 53.4563 78.8183 51.5685C77.0007 49.6808 73.9969 49.624 72.1092 51.4415Z" fill="#181615"/>
<path d="M93.3616 53.5928C89.42 56.8841 82.6017 53.6804 82.7754 48.4144L90.2997 41.4589C91.1349 42.1194 92.6103 42.9449 93.6329 43.2058L93.3616 53.5928Z" fill="#DCB5E8"/>
<path fill-rule="evenodd" clip-rule="evenodd" d="M80.5175 47.3821L80.486 48.3389C80.3629 52.0708 82.727 54.9258 85.5313 56.2763C88.3246 57.6216 92.0194 57.6978 94.8298 55.3511L95.6244 54.6875L95.9704 41.438L94.199 40.9862C93.5768 40.8275 92.3873 40.1895 91.7205 39.6622L90.1836 38.4469L80.5175 47.3821ZM90.2997 41.4589L82.7754 48.4144C82.6017 53.6804 89.42 56.8841 93.3616 53.5928L93.6329 43.2058C92.6103 42.9449 91.1349 42.1194 90.2997 41.4589Z" fill="#181615"/>
<path d="M106.458 48.9944C106.253 54.1253 99.3017 57.0297 95.5144 53.3669L95.4079 43.1208C96.4581 42.9449 98.0602 42.4052 98.9399 41.8221L106.458 48.9944Z" fill="#D8ABE5"/>
<path fill-rule="evenodd" clip-rule="evenodd" d="M93.2338 54.3479L93.9219 55.0134C96.606 57.6092 100.309 57.7727 103.192 56.6002C106.064 55.4323 108.601 52.7443 108.747 49.086L108.788 48.0515L99.1983 38.9028L97.6744 39.9128C97.1392 40.2675 95.8679 40.7212 95.0295 40.8616L93.097 41.1853L93.2338 54.3479ZM95.4079 43.1208L95.5144 53.3669C99.3017 57.0297 106.253 54.1253 106.458 48.9944L98.9399 41.8221C98.0602 42.4052 96.4581 42.9449 95.4079 43.1208Z" fill="#181615"/>
<path d="M76.5802 36.6081C73.0909 40.3755 75.9404 47.3493 81.2084 47.4463L88.5409 40.2889C87.9242 39.4209 87.1755 37.9051 86.9675 36.8705L76.5802 36.6081Z" fill="#E5C7EE"/>
<path fill-rule="evenodd" clip-rule="evenodd" d="M82.1234 49.7541L81.1662 49.7365C77.4329 49.6678 74.7031 47.1602 73.4983 44.2903C72.2982 41.4316 72.4118 37.7378 74.8997 35.0516L75.6032 34.2921L88.8529 34.6267L89.2132 36.419C89.3398 37.0485 89.9159 38.2692 90.4083 38.9622L91.5431 40.5595L82.1234 49.7541ZM88.5409 40.2889L81.2084 47.4463C75.9404 47.3493 73.0909 40.3755 76.5802 36.6081L86.9675 36.8705C87.1755 37.9051 87.9242 39.4209 88.5409 40.2889Z" fill="#181615"/>
<path d="M93.259 17.6676C89.4916 14.1782 82.5179 17.0278 82.4209 22.2957L89.5782 29.6283C90.4462 29.0115 91.962 28.2628 92.9967 28.0549L93.259 17.6676Z" fill="#FDFCFE"/>
<path fill-rule="evenodd" clip-rule="evenodd" d="M80.113 23.2107L80.1306 22.2536C80.1994 18.5202 82.7069 15.7904 85.5769 14.5856C88.4355 13.3855 92.1294 13.4991 94.8155 15.987L95.575 16.6905L95.2404 29.9403L93.4481 30.3006C92.8186 30.4271 91.5979 31.0032 90.9049 31.4956L89.3076 32.6304L80.113 23.2107ZM89.5782 29.6283L82.4209 22.2957C82.5179 17.0278 89.4916 14.1782 93.259 17.6676L92.9967 28.0549C91.962 28.2628 90.4462 29.0115 89.5782 29.6283Z" fill="#181615"/>
<path d="M112.074 36.7808C115.541 40.569 112.65 47.5256 107.382 47.5911L100.092 40.3902C100.714 39.5258 101.471 38.0145 101.686 36.9812L112.074 36.7808Z" fill="#D5A5E4"/>
<path fill-rule="evenodd" clip-rule="evenodd" d="M106.453 49.8935L107.41 49.8816C111.144 49.8352 113.888 47.3439 115.11 44.4812C116.327 41.6298 116.236 37.9353 113.764 35.2344L113.065 34.4707L99.8136 34.7262L99.4426 36.5163C99.3123 37.1451 98.729 38.3623 98.2325 39.0524L97.0881 40.6428L106.453 49.8935ZM100.092 40.3902L107.382 47.5911C112.65 47.5256 115.541 40.569 112.074 36.7808L101.686 36.9812C101.471 38.0145 100.714 39.5258 100.092 40.3902Z" fill="#181615"/>
<path d="M81.0261 23.5222C75.8948 23.7188 72.9786 30.6649 76.635 34.4585L86.8809 34.5824C87.0586 33.5325 87.601 31.9313 88.1855 31.0526L81.0261 23.5222Z" fill="#F4E7F8"/>
<path fill-rule="evenodd" clip-rule="evenodd" d="M75.6501 36.7374L74.9857 36.0482C72.3945 33.3597 72.2373 29.6563 73.4147 26.775C74.5875 23.9051 77.2798 21.3734 80.9384 21.2333L81.9729 21.1936L91.1053 30.7993L90.0927 32.3214C89.7371 32.856 89.2813 34.1265 89.1394 34.9647L88.8124 36.8966L75.6501 36.7374ZM86.8809 34.5824L76.635 34.4585C72.9786 30.6649 75.8948 23.7188 81.0261 23.5222L88.1855 31.0526C87.601 31.9313 87.0586 33.5325 86.8809 34.5824Z" fill="#181615"/>
<path d="M111.863 34.5606C115.287 30.7335 112.317 23.81 107.048 23.8041L99.8406 31.0871C100.472 31.9443 101.247 33.447 101.473 34.4778L111.863 34.5606Z" fill="#C889DB"/>
<path fill-rule="evenodd" clip-rule="evenodd" d="M106.094 21.5124L107.051 21.5135C110.785 21.5176 113.558 23.9777 114.812 26.8263C116.061 29.6638 116.011 33.3591 113.57 36.0878L112.88 36.8594L99.6265 36.7539L99.2353 34.9681C99.0979 34.3408 98.5008 33.1303 97.9965 32.4459L96.8342 30.8684L106.094 21.5124ZM99.8406 31.0871L107.048 23.8041C112.317 23.81 115.287 30.7335 111.863 34.5606L101.473 34.4778C101.247 33.447 100.472 31.9443 99.8406 31.0871Z" fill="#181615"/>
<path d="M106.052 22.3573C105.855 17.226 98.9089 14.3097 95.1153 17.9661L94.9914 28.212C96.0413 28.3897 97.6425 28.9322 98.5212 29.5167L106.052 22.3573Z" fill="#BA6FD1"/>
<path fill-rule="evenodd" clip-rule="evenodd" d="M92.8364 16.9812L93.5256 16.3169C96.2141 13.7256 99.9175 13.5685 102.799 14.7459C105.669 15.9186 108.2 18.611 108.341 22.2696L108.38 23.304L98.7746 32.4364L97.2524 31.4239C96.7178 31.0682 95.4473 30.6124 94.6091 30.4705L92.6772 30.1435L92.8364 16.9812ZM94.9914 28.212L95.1153 17.9661C98.9089 14.3097 105.855 17.226 106.052 22.3573L98.5212 29.5167C97.6425 28.9322 96.0413 28.3897 94.9914 28.212Z" fill="#181615"/>
<path fill-rule="evenodd" clip-rule="evenodd" d="M94.1621 40.476C96.8429 40.476 99.0161 38.3028 99.0161 35.622C99.0161 32.9413 96.8429 30.7681 94.1621 30.7681C91.4814 30.7681 89.3082 32.9413 89.3082 35.622C89.3082 38.3028 91.4814 40.476 94.1621 40.476ZM94.1621 43.1484C98.3188 43.1484 101.688 39.7787 101.688 35.622C101.688 31.4653 98.3188 28.0957 94.1621 28.0957C90.0054 28.0957 86.6358 31.4653 86.6358 35.622C86.6358 39.7787 90.0054 43.1484 94.1621 43.1484Z" fill="#181615"/>
</svg>
