<svg width="21" height="16" viewBox="0 0 21 16" fill="none" xmlns="http://www.w3.org/2000/svg">
<path d="M0.712891 12.6283C0.712891 12.101 0.849172 11.6156 1.12173 11.1721C1.39444 10.7286 1.75793 10.3905 2.2122 10.1578C3.12687 9.70217 4.0578 9.35961 5.00498 9.13007C5.95232 8.90053 6.91423 8.78575 7.89073 8.78575C8.87409 8.78575 9.83943 8.89965 10.7868 9.12744C11.7341 9.35523 12.6615 9.69692 13.569 10.1525C14.0235 10.3853 14.387 10.7225 14.6595 11.1642C14.9322 11.6061 15.0686 12.0941 15.0686 12.6283V13.276C15.0686 13.827 14.8745 14.2965 14.4865 14.6846C14.0984 15.0726 13.6289 15.2667 13.078 15.2667H2.70352C2.15241 15.2667 1.6829 15.0726 1.29498 14.6846C0.906922 14.2965 0.712891 13.827 0.712891 13.276V12.6283ZM16.2275 15.2667C16.4263 14.9727 16.5745 14.6561 16.672 14.3171C16.7697 13.978 16.8186 13.631 16.8186 13.276V12.4951C16.8186 11.8291 16.6399 11.1772 16.2826 10.5395C15.9253 9.90174 15.3942 9.35574 14.689 8.90147C15.4084 8.99247 16.1006 9.148 16.7654 9.36807C17.4304 9.58827 18.0455 9.84975 18.6108 10.1525C19.1498 10.4442 19.564 10.7887 19.8533 11.1861C20.1425 11.5835 20.2871 12.0163 20.2871 12.4846V13.276C20.2871 13.827 20.093 14.2965 19.705 14.6846C19.3171 15.0726 18.8476 15.2667 18.2965 15.2667H16.2275ZM7.89073 7.91075C6.90023 7.91075 6.05447 7.56024 5.35345 6.85922C4.65229 6.15806 4.3017 5.3123 4.3017 4.32194C4.3017 3.33159 4.65229 2.48583 5.35345 1.78466C6.05447 1.08349 6.90023 0.73291 7.89073 0.73291C8.88109 0.73291 9.72685 1.08349 10.428 1.78466C11.129 2.48583 11.4795 3.33159 11.4795 4.32194C11.4795 5.3123 11.129 6.15806 10.428 6.85922C9.72685 7.56024 8.88109 7.91075 7.89073 7.91075ZM16.8971 4.32194C16.8971 5.3088 16.5457 6.15368 15.8427 6.8566C15.1398 7.55937 14.2949 7.91075 13.3081 7.91075C13.1442 7.91075 12.94 7.89172 12.6956 7.85366C12.4512 7.81545 12.2417 7.77097 12.0673 7.72022C12.4681 7.24656 12.7751 6.71835 12.9883 6.1356C13.2015 5.55299 13.3081 4.94844 13.3081 4.32194C13.3081 3.69544 13.2015 3.09089 12.9883 2.50829C12.7751 1.92554 12.4681 1.39733 12.0673 0.923661C12.275 0.847244 12.4809 0.796347 12.6851 0.770972C12.8892 0.745597 13.0969 0.73291 13.3081 0.73291C14.2949 0.73291 15.1398 1.08437 15.8427 1.78729C16.5457 2.4902 16.8971 3.33509 16.8971 4.32194Z" fill="white"/>
</svg>
