<svg width="24" height="18" viewBox="0 0 24 18" fill="none" xmlns="http://www.w3.org/2000/svg">
<path d="M0.816406 14.2901C0.816406 13.6862 0.972573 13.1313 1.28491 12.6253C1.59724 12.1191 2.01224 11.7329 2.52991 11.4666C3.57524 10.9459 4.63907 10.5544 5.72141 10.2921C6.80391 10.0297 7.90332 9.89856 9.01966 9.89856C10.1435 9.89856 11.2467 10.0287 12.3294 10.2891C13.4121 10.5494 14.472 10.9399 15.5092 11.4606C16.0268 11.7264 16.4419 12.1118 16.7544 12.6168C17.0667 13.1218 17.2229 13.6796 17.2229 14.2901V15.0303C17.2229 15.66 17.0012 16.1966 16.5577 16.6401C16.1142 17.0836 15.5776 17.3053 14.9479 17.3053H3.09141C2.46157 17.3053 1.92499 17.0836 1.48166 16.6401C1.03816 16.1966 0.816406 15.66 0.816406 15.0303V14.2901ZM20.9119 17.3053H18.5474C18.7746 16.9693 18.9439 16.6076 19.0554 16.2201C19.1671 15.8326 19.2229 15.436 19.2229 15.0303V14.1378C19.2229 13.3766 19.0187 12.6316 18.6104 11.9028C18.2021 11.174 17.595 10.55 16.7892 10.0308C17.6113 10.1348 18.4023 10.3126 19.1622 10.5641C19.9222 10.8157 20.6252 11.1146 21.2712 11.4606C21.8872 11.7939 22.3605 12.1873 22.6912 12.6408C23.0217 13.0941 23.1869 13.5891 23.1869 14.1258V15.0303C23.1869 15.66 22.9652 16.1966 22.5217 16.6401C22.0783 17.0836 21.5417 17.3053 20.9119 17.3053ZM9.01966 8.89856C7.88766 8.89856 6.92107 8.49798 6.11991 7.69681C5.31857 6.89548 4.91791 5.9289 4.91791 4.79706C4.91791 3.66523 5.31857 2.69865 6.11991 1.89731C6.92107 1.09598 7.88766 0.695312 9.01966 0.695312C10.1515 0.695312 11.1181 1.09598 11.9194 1.89731C12.7206 2.69865 13.1212 3.66523 13.1212 4.79706C13.1212 5.9289 12.7206 6.89548 11.9194 7.69681C11.1181 8.49798 10.1515 8.89856 9.01966 8.89856ZM19.3127 4.79706C19.3127 5.9249 18.9111 6.89048 18.1079 7.69381C17.3049 8.49698 16.3396 8.89856 15.2119 8.89856C15.0239 8.89856 14.7902 8.87681 14.5109 8.83331C14.2316 8.78965 13.9922 8.73881 13.7929 8.68081C14.2509 8.13948 14.6017 7.53615 14.8454 6.87081C15.0891 6.20548 15.2109 5.51448 15.2109 4.79781C15.2109 4.08131 15.0891 3.39015 14.8454 2.72431C14.6017 2.05831 14.2509 1.45465 13.7929 0.913313C14.0302 0.82598 14.2656 0.767812 14.4989 0.738812C14.7322 0.709812 14.9687 0.695312 15.2082 0.695312C16.3368 0.695312 17.3031 1.09698 18.1069 1.90031C18.9107 2.70348 19.3127 3.66906 19.3127 4.79706ZM3.09141 15.0303H14.9479V14.3198C14.9479 14.1403 14.9021 13.9771 14.8104 13.8303C14.7187 13.6835 14.5979 13.5693 14.4479 13.4878C13.5717 13.0538 12.6813 12.7263 11.7767 12.5053C10.872 12.2841 9.95299 12.1736 9.01966 12.1736C8.09432 12.1736 7.17524 12.2841 6.26241 12.5053C5.34974 12.7263 4.45941 13.0538 3.59141 13.4878C3.44141 13.5693 3.32057 13.6835 3.22891 13.8303C3.13724 13.9771 3.09141 14.1403 3.09141 14.3198V15.0303ZM9.01866 6.71331C9.54532 6.71331 9.99657 6.52581 10.3724 6.15081C10.7481 5.77565 10.9359 5.32473 10.9359 4.79806C10.9359 4.27123 10.7483 3.81998 10.3732 3.44431C9.99816 3.06865 9.54732 2.88081 9.02066 2.88081C8.49382 2.88081 8.04257 3.06831 7.66691 3.44331C7.29124 3.81848 7.10341 4.2694 7.10341 4.79606C7.10341 5.32273 7.29091 5.77398 7.66591 6.14981C8.04107 6.52548 8.49199 6.71331 9.01866 6.71331Z" fill="white"/>
</svg>
