<svg width="21" height="27" viewBox="0 0 21 27" fill="none" xmlns="http://www.w3.org/2000/svg">
<path d="M10.4966 17.0344C9.30107 17.0344 8.28518 16.616 7.44896 15.7794C6.61273 14.9427 6.19462 13.9267 6.19462 12.7314V4.78738C6.19462 3.59204 6.61307 2.57604 7.44996 1.73938C8.28684 0.902709 9.30307 0.484375 10.4986 0.484375C11.6942 0.484375 12.7101 0.902709 13.5463 1.73938C14.3825 2.57604 14.8006 3.59204 14.8006 4.78738V12.7314C14.8006 13.9267 14.3822 14.9427 13.5453 15.7794C12.7084 16.616 11.6922 17.0344 10.4966 17.0344ZM9.04462 25.0344V22.3554C6.92596 22.0612 5.11351 21.1653 3.60729 19.6677C2.10129 18.1702 1.18473 16.3535 0.857622 14.2177C0.802733 13.8082 0.910733 13.458 1.18162 13.1674C1.45273 12.8767 1.79307 12.7314 2.20262 12.7314C2.6124 12.7314 2.95962 12.8725 3.24429 13.1547C3.52918 13.4367 3.7214 13.7826 3.82096 14.1924C4.15851 15.7693 4.95596 17.059 6.21329 18.0617C7.4704 19.0642 8.8984 19.5654 10.4973 19.5654C12.1188 19.5654 13.5526 19.0586 14.7986 18.045C16.0448 17.0313 16.8367 15.747 17.1743 14.1924C17.2738 13.7826 17.4661 13.4367 17.751 13.1547C18.0356 12.8725 18.3828 12.7314 18.7926 12.7314C19.2022 12.7314 19.5412 12.878 19.8096 13.1714C20.0781 13.4645 20.1847 13.8159 20.1296 14.2257C19.8025 16.317 18.8928 18.1213 17.4006 19.6384C15.9082 21.1555 14.0915 22.0612 11.9506 22.3554V25.0344C11.9506 25.4459 11.8114 25.791 11.533 26.0697C11.2543 26.3482 10.9092 26.4874 10.4976 26.4874C10.0861 26.4874 9.74096 26.3482 9.46229 26.0697C9.18384 25.791 9.04462 25.4459 9.04462 25.0344ZM10.4976 14.001C10.8574 14.001 11.159 13.8794 11.4023 13.636C11.6456 13.3927 11.7673 13.0912 11.7673 12.7314V4.78738C11.7673 4.4276 11.6456 4.12604 11.4023 3.88271C11.159 3.63938 10.8574 3.51771 10.4976 3.51771C10.1378 3.51771 9.83629 3.63938 9.59295 3.88271C9.34962 4.12604 9.22796 4.4276 9.22796 4.78738V12.7314C9.22796 13.0912 9.34962 13.3927 9.59295 13.636C9.83629 13.8794 10.1378 14.001 10.4976 14.001Z" fill="#B7B1AA"/>
</svg>
