<svg width="19" height="20" viewBox="0 0 19 20" fill="none" xmlns="http://www.w3.org/2000/svg">
<path d="M3.07163 19.2034C2.44196 19.2034 1.90538 18.9816 1.46188 18.5381C1.01838 18.0946 0.796631 17.558 0.796631 16.9284V3.07188C0.796631 2.44221 1.01838 1.90562 1.46188 1.46212C1.90538 1.01862 2.44196 0.796875 3.07163 0.796875H8.91013C9.22946 0.796875 9.49888 0.906625 9.71838 1.12612C9.93788 1.34579 10.0476 1.61521 10.0476 1.93438C10.0476 2.25354 9.93788 2.52296 9.71838 2.74263C9.49888 2.96213 9.22946 3.07188 8.91013 3.07188H3.07163V16.9284H8.91013C9.22946 16.9284 9.49888 17.0381 9.71838 17.2576C9.93788 17.4773 10.0476 17.7467 10.0476 18.0659C10.0476 18.385 9.93788 18.6545 9.71838 18.8741C9.49888 19.0936 9.22946 19.2034 8.91013 19.2034H3.07163ZM14.8639 11.1376H8.08963C7.7703 11.1376 7.50088 11.0279 7.28138 10.8084C7.06188 10.5887 6.95213 10.3193 6.95213 10.0001C6.95213 9.68096 7.06188 9.41154 7.28138 9.19187C7.50088 8.97237 7.7703 8.86263 8.08963 8.86263H14.8639L13.1266 7.12513C12.9153 6.91396 12.8096 6.65504 12.8096 6.34837C12.8096 6.04187 12.9153 5.77671 13.1266 5.55288C13.3378 5.32487 13.602 5.20771 13.9191 5.20138C14.2363 5.19504 14.5089 5.30587 14.7369 5.53387L18.4074 9.20438C18.6314 9.43238 18.7434 9.69763 18.7434 10.0001C18.7434 10.3026 18.6314 10.5679 18.4074 10.7959L14.7369 14.4664C14.5129 14.6944 14.2445 14.8052 13.9316 14.7989C13.6188 14.7925 13.3505 14.6754 13.1266 14.4474C12.9153 14.2235 12.8128 13.9551 12.8191 13.6421C12.8255 13.3293 12.9343 13.0673 13.1456 12.8561L14.8639 11.1376Z" fill="#181615"/>
</svg>
