<svg width="15" height="18" viewBox="0 0 15 18" fill="none" xmlns="http://www.w3.org/2000/svg">
<path d="M1.31758 15.3025C1.03831 15.3025 0.802568 15.2064 0.610359 15.0144C0.418297 14.8222 0.322266 14.5864 0.322266 14.3072C0.322266 14.0279 0.418297 13.7921 0.610359 13.5999C0.802568 13.4079 1.03831 13.3118 1.31758 13.3118H2.00948V7.36468C2.00948 6.10891 2.38369 4.98891 3.13211 4.00468C3.88038 3.02045 4.85878 2.37733 6.0673 2.07531V1.50459C6.0673 1.10515 6.2062 0.766454 6.48402 0.488496C6.76197 0.210683 7.10067 0.0717773 7.50011 0.0717773C7.89955 0.0717773 8.23825 0.210683 8.5162 0.488496C8.79402 0.766454 8.93292 1.10515 8.93292 1.50459V2.07531C10.1449 2.37733 11.1242 3.01958 11.8707 4.00206C12.6174 4.98454 12.9907 6.10541 12.9907 7.36468V13.3118H13.6826C13.9619 13.3118 14.1977 13.4079 14.3899 13.5999C14.5819 13.7921 14.678 14.0279 14.678 14.3072C14.678 14.5864 14.5819 14.8222 14.3899 15.0144C14.1977 15.2064 13.9619 15.3025 13.6826 15.3025H1.31758ZM7.50536 17.985C7.00661 17.985 6.57983 17.8084 6.22502 17.4552C5.87006 17.1021 5.69258 16.6762 5.69258 16.1775H9.31289C9.31289 16.6762 9.13629 17.1021 8.78308 17.4552C8.42987 17.8084 8.00396 17.985 7.50536 17.985Z" fill="white"/>
</svg>
