<svg width="29" height="29" viewBox="0 0 29 29" fill="none" xmlns="http://www.w3.org/2000/svg">
<path d="M23.6504 5.6875V9.1875H6.15039V5.6875H23.6504ZM23.6504 3.9375H6.15039C5.68626 3.9375 5.24114 4.12187 4.91295 4.45006C4.58477 4.77825 4.40039 5.22337 4.40039 5.6875V9.1875C4.40039 9.65163 4.58477 10.0967 4.91295 10.4249C5.24114 10.7531 5.68626 10.9375 6.15039 10.9375H23.6504C24.1145 10.9375 24.5596 10.7531 24.8878 10.4249C25.216 10.0967 25.4004 9.65163 25.4004 9.1875V5.6875C25.4004 5.22337 25.216 4.77825 24.8878 4.45006C24.5596 4.12187 24.1145 3.9375 23.6504 3.9375ZM9.65039 14.4375V23.1875H6.15039V14.4375H9.65039ZM9.65039 12.6875H6.15039C5.68626 12.6875 5.24114 12.8719 4.91295 13.2001C4.58477 13.5283 4.40039 13.9734 4.40039 14.4375V23.1875C4.40039 23.6516 4.58477 24.0967 4.91295 24.4249C5.24114 24.7531 5.68626 24.9375 6.15039 24.9375H9.65039C10.1145 24.9375 10.5596 24.7531 10.8878 24.4249C11.216 24.0967 11.4004 23.6516 11.4004 23.1875V14.4375C11.4004 13.9734 11.216 13.5283 10.8878 13.2001C10.5596 12.8719 10.1145 12.6875 9.65039 12.6875Z" fill="#181615"/>
<path fill-rule="evenodd" clip-rule="evenodd" d="M13.1504 13.5625C13.1504 13.0793 13.5421 12.6875 14.0254 12.6875H24.5254C25.0086 12.6875 25.4004 13.0793 25.4004 13.5625C25.4004 14.0457 25.0086 14.4375 24.5254 14.4375H14.0254C13.5421 14.4375 13.1504 14.0457 13.1504 13.5625Z" fill="#181615"/>
<path fill-rule="evenodd" clip-rule="evenodd" d="M13.1504 17.0625C13.1504 16.5793 13.5421 16.1875 14.0254 16.1875H24.5254C25.0086 16.1875 25.4004 16.5793 25.4004 17.0625C25.4004 17.5457 25.0086 17.9375 24.5254 17.9375H14.0254C13.5421 17.9375 13.1504 17.5457 13.1504 17.0625Z" fill="#181615"/>
<path fill-rule="evenodd" clip-rule="evenodd" d="M13.1504 20.5625C13.1504 20.0793 13.5421 19.6875 14.0254 19.6875H24.5254C25.0086 19.6875 25.4004 20.0793 25.4004 20.5625C25.4004 21.0457 25.0086 21.4375 24.5254 21.4375H14.0254C13.5421 21.4375 13.1504 21.0457 13.1504 20.5625Z" fill="#181615"/>
<path fill-rule="evenodd" clip-rule="evenodd" d="M13.1504 24.0625C13.1504 23.5793 13.5421 23.1875 14.0254 23.1875H24.5254C25.0086 23.1875 25.4004 23.5793 25.4004 24.0625C25.4004 24.5457 25.0086 24.9375 24.5254 24.9375H14.0254C13.5421 24.9375 13.1504 24.5457 13.1504 24.0625Z" fill="#181615"/>
</svg>
