<svg width="17" height="18" viewBox="0 0 17 18" fill="none" xmlns="http://www.w3.org/2000/svg">
<path d="M2.43789 8.12511C1.89043 8.12511 1.4218 7.9302 1.03198 7.54039C0.642172 7.15058 0.447266 6.68194 0.447266 6.13448V2.93789C0.447266 2.39043 0.642172 1.9218 1.03198 1.53198C1.4218 1.14217 1.89043 0.947266 2.43789 0.947266H5.63448C6.18194 0.947266 6.65058 1.14217 7.04039 1.53198C7.4302 1.9218 7.62511 2.39043 7.62511 2.93789V6.13448C7.62511 6.68194 7.4302 7.15058 7.04039 7.54039C6.65058 7.9302 6.18194 8.12511 5.63448 8.12511H2.43789ZM2.43789 17.053C1.89043 17.053 1.4218 16.858 1.03198 16.4682C0.642172 16.0784 0.447266 15.6098 0.447266 15.0623V11.8657C0.447266 11.3183 0.642172 10.8496 1.03198 10.4598C1.4218 10.07 1.89043 9.87511 2.43789 9.87511H5.63448C6.18194 9.87511 6.65058 10.07 7.04039 10.4598C7.4302 10.8496 7.62511 11.3183 7.62511 11.8657V15.0623C7.62511 15.6098 7.4302 16.0784 7.04039 16.4682C6.65058 16.858 6.18194 17.053 5.63448 17.053H2.43789ZM11.3657 8.12511C10.8183 8.12511 10.3496 7.9302 9.95983 7.54039C9.57001 7.15058 9.37511 6.68194 9.37511 6.13448V2.93789C9.37511 2.39043 9.57001 1.9218 9.95983 1.53198C10.3496 1.14217 10.8183 0.947266 11.3657 0.947266H14.5623C15.1098 0.947266 15.5784 1.14217 15.9682 1.53198C16.358 1.9218 16.553 2.39043 16.553 2.93789V6.13448C16.553 6.68194 16.358 7.15058 15.9682 7.54039C15.5784 7.9302 15.1098 8.12511 14.5623 8.12511H11.3657ZM11.3657 17.053C10.8183 17.053 10.3496 16.858 9.95983 16.4682C9.57001 16.0784 9.37511 15.6098 9.37511 15.0623V11.8657C9.37511 11.3183 9.57001 10.8496 9.95983 10.4598C10.3496 10.07 10.8183 9.87511 11.3657 9.87511H14.5623C15.1098 9.87511 15.5784 10.07 15.9682 10.4598C16.358 10.8496 16.553 11.3183 16.553 11.8657V15.0623C16.553 15.6098 16.358 16.0784 15.9682 16.4682C15.5784 16.858 15.1098 17.053 14.5623 17.053H11.3657Z" fill="white"/>
</svg>
