<svg width="17" height="21" viewBox="0 0 17 21" fill="none" xmlns="http://www.w3.org/2000/svg">
<path d="M5.90039 16.4375H11.9004C12.1837 16.4375 12.4212 16.3417 12.6129 16.15C12.8046 15.9583 12.9004 15.7208 12.9004 15.4375C12.9004 15.1542 12.8046 14.9167 12.6129 14.725C12.4212 14.5333 12.1837 14.4375 11.9004 14.4375H5.90039C5.61706 14.4375 5.37956 14.5333 5.18789 14.725C4.99622 14.9167 4.90039 15.1542 4.90039 15.4375C4.90039 15.7208 4.99622 15.9583 5.18789 16.15C5.37956 16.3417 5.61706 16.4375 5.90039 16.4375ZM5.90039 12.4375H11.9004C12.1837 12.4375 12.4212 12.3417 12.6129 12.15C12.8046 11.9583 12.9004 11.7208 12.9004 11.4375C12.9004 11.1542 12.8046 10.9167 12.6129 10.725C12.4212 10.5333 12.1837 10.4375 11.9004 10.4375H5.90039C5.61706 10.4375 5.37956 10.5333 5.18789 10.725C4.99622 10.9167 4.90039 11.1542 4.90039 11.4375C4.90039 11.7208 4.99622 11.9583 5.18789 12.15C5.37956 12.3417 5.61706 12.4375 5.90039 12.4375ZM2.90039 20.4375C2.35039 20.4375 1.87956 20.2417 1.48789 19.85C1.09622 19.4583 0.900391 18.9875 0.900391 18.4375V2.4375C0.900391 1.8875 1.09622 1.41667 1.48789 1.025C1.87956 0.633333 2.35039 0.4375 2.90039 0.4375H10.0754C10.3421 0.4375 10.5962 0.4875 10.8379 0.5875C11.0796 0.6875 11.2921 0.829167 11.4754 1.0125L16.3254 5.8625C16.5087 6.04583 16.6504 6.25833 16.7504 6.5C16.8504 6.74167 16.9004 6.99583 16.9004 7.2625V18.4375C16.9004 18.9875 16.7046 19.4583 16.3129 19.85C15.9212 20.2417 15.4504 20.4375 14.9004 20.4375H2.90039ZM9.90039 6.4375V2.4375H2.90039V18.4375H14.9004V7.4375H10.9004C10.6171 7.4375 10.3796 7.34167 10.1879 7.15C9.99622 6.95833 9.90039 6.72083 9.90039 6.4375Z" fill="#B7B1AA"/>
</svg>
