<svg width="13" height="14" viewBox="0 0 13 14" fill="none" xmlns="http://www.w3.org/2000/svg">
<path d="M5.5048 7.99493H1.19258C0.913307 7.99493 0.677568 7.8989 0.485359 7.70684C0.293297 7.51463 0.197266 7.27889 0.197266 6.99962C0.197266 6.72035 0.293297 6.48461 0.485359 6.2924C0.677568 6.10034 0.913307 6.00431 1.19258 6.00431H5.5048V1.69209C5.5048 1.41282 5.60083 1.17708 5.79289 0.984871C5.9851 0.792808 6.22084 0.696777 6.50011 0.696777C6.77938 0.696777 7.01512 0.792808 7.20733 0.984871C7.39939 1.17708 7.49542 1.41282 7.49542 1.69209V6.00431H11.8076C12.0869 6.00431 12.3227 6.10034 12.5149 6.2924C12.7069 6.48461 12.803 6.72035 12.803 6.99962C12.803 7.27889 12.7069 7.51463 12.5149 7.70684C12.3227 7.8989 12.0869 7.99493 11.8076 7.99493H7.49542V12.3072C7.49542 12.5864 7.39939 12.8222 7.20733 13.0144C7.01512 13.2064 6.77938 13.3025 6.50011 13.3025C6.22084 13.3025 5.9851 13.2064 5.79289 13.0144C5.60083 12.8222 5.5048 12.5864 5.5048 12.3072V7.99493Z" fill="white"/>
</svg>
