<svg width="22" height="22" viewBox="0 0 22 22" fill="none" xmlns="http://www.w3.org/2000/svg">
<path d="M10.9989 16.2034C11.3309 16.2034 11.6096 16.091 11.8351 15.8664C12.0606 15.6417 12.1734 15.3634 12.1734 15.0314C12.1734 14.6994 12.0611 14.4195 11.8366 14.1919C11.612 13.9644 11.3335 13.8506 11.0014 13.8506C10.6694 13.8506 10.3906 13.9644 10.1651 14.1919C9.93963 14.4195 9.82688 14.6994 9.82688 15.0314C9.82688 15.3634 9.93913 15.6417 10.1636 15.8664C10.3883 16.091 10.6667 16.2034 10.9989 16.2034ZM11.0001 12.0121C11.3193 12.0121 11.5887 11.9023 11.8084 11.6826C12.0279 11.4631 12.1376 11.1938 12.1376 10.8746V7.01212C12.1376 6.69296 12.0279 6.42354 11.8084 6.20388C11.5887 5.98438 11.3193 5.87462 11.0001 5.87462C10.681 5.87462 10.4115 5.98438 10.1919 6.20388C9.97238 6.42354 9.86263 6.69296 9.86263 7.01212V10.8746C9.86263 11.1938 9.97238 11.4631 10.1919 11.6826C10.4115 11.9023 10.681 12.0121 11.0001 12.0121ZM11.0001 21.2034C9.58496 21.2034 8.25713 20.9357 7.01663 20.4004C5.77596 19.865 4.69679 19.1386 3.77912 18.2211C2.86162 17.3035 2.13521 16.2243 1.59987 14.9836C1.06454 13.7431 0.796875 12.4153 0.796875 11.0001C0.796875 9.58496 1.06454 8.25712 1.59987 7.01662C2.13521 5.77596 2.86162 4.69679 3.77912 3.77912C4.69679 2.86162 5.77596 2.13521 7.01663 1.59987C8.25713 1.06454 9.58496 0.796875 11.0001 0.796875C12.4153 0.796875 13.7431 1.06454 14.9836 1.59987C16.2243 2.13521 17.3035 2.86162 18.2211 3.77912C19.1386 4.69679 19.865 5.77596 20.4004 7.01662C20.9357 8.25712 21.2034 9.58496 21.2034 11.0001C21.2034 12.4153 20.9357 13.7431 20.4004 14.9836C19.865 16.2243 19.1386 17.3035 18.2211 18.2211C17.3035 19.1386 16.2243 19.865 14.9836 20.4004C13.7431 20.9357 12.4153 21.2034 11.0001 21.2034ZM11.0001 18.9284C13.2175 18.9284 15.0932 18.1614 16.6274 16.6274C18.1614 15.0932 18.9284 13.2175 18.9284 11.0001C18.9284 8.78279 18.1614 6.90704 16.6274 5.37287C15.0932 3.83887 13.2175 3.07188 11.0001 3.07188C8.78279 3.07188 6.90704 3.83887 5.37288 5.37287C3.83888 6.90704 3.07187 8.78279 3.07187 11.0001C3.07187 13.2175 3.83888 15.0932 5.37288 16.6274C6.90704 18.1614 8.78279 18.9284 11.0001 18.9284Z" fill="#827E79"/>
</svg>
