<svg width="21" height="20" viewBox="0 0 21 20" fill="none" xmlns="http://www.w3.org/2000/svg">
<path d="M12.5771 13.3434C12.2445 13.3434 11.9639 13.2291 11.7352 13.0005C11.5066 12.7716 11.3923 12.491 11.3923 12.1585V1.65462C11.3923 1.32216 11.5066 1.0416 11.7352 0.812956C11.9639 0.584136 12.2445 0.469727 12.5771 0.469727H18.9641C19.2966 0.469727 19.5771 0.584136 19.8058 0.812956C20.0346 1.0416 20.149 1.32216 20.149 1.65462V12.1585C20.149 12.491 20.0346 12.7716 19.8058 13.0005C19.5771 13.2291 19.2966 13.3434 18.9641 13.3434H12.5771ZM1.83626 19.7367C1.5038 19.7367 1.22324 19.6223 0.994596 19.3934C0.765777 19.1648 0.651367 18.8842 0.651367 18.5518L0.651628 1.65462C0.651628 1.32216 0.766038 1.0416 0.994858 0.812956C1.2235 0.584136 1.50406 0.469727 1.83652 0.469727H8.2235C8.55614 0.469727 8.83679 0.584136 9.06543 0.812956C9.29408 1.0416 9.4084 1.32216 9.4084 1.65462L9.40814 18.5518C9.40814 18.8842 9.29382 19.1648 9.06517 19.3934C8.83652 19.6223 8.55588 19.7367 8.22324 19.7367H1.83626Z" fill="#181615"/>
</svg>
