<svg width="24" height="24" viewBox="0 0 24 24" fill="none" xmlns="http://www.w3.org/2000/svg">
<path d="M24 12C24 18.6274 18.6274 24 12 24C5.37258 24 0 18.6274 0 12C0 5.37258 5.37258 0 12 0C18.6274 0 24 5.37258 24 12Z" fill="#2A2D4B"/>
<path fill-rule="evenodd" clip-rule="evenodd" d="M12 23C18.0751 23 23 18.0751 23 12C23 5.92487 18.0751 1 12 1C5.92487 1 1 5.92487 1 12C1 18.0751 5.92487 23 12 23ZM12 24C18.6274 24 24 18.6274 24 12C24 5.37258 18.6274 0 12 0C5.37258 0 0 5.37258 0 12C0 18.6274 5.37258 24 12 24Z" fill="white"/>
<path d="M13.6205 12L9.81597 8.19575C9.6048 7.98442 9.49922 7.71917 9.49922 7.4C9.49922 7.08083 9.6048 6.81558 9.81597 6.60425C10.0273 6.39308 10.2925 6.2875 10.6117 6.2875C10.9309 6.2875 11.1961 6.39308 11.4075 6.60425L16.0015 11.1982C16.1133 11.3103 16.1951 11.4346 16.2467 11.5712C16.2984 11.7078 16.3242 11.8507 16.3242 12C16.3242 12.1493 16.2984 12.2922 16.2467 12.4288C16.1951 12.5654 16.1133 12.6897 16.0015 12.8018L11.4075 17.3958C11.1961 17.6069 10.9309 17.7125 10.6117 17.7125C10.2925 17.7125 10.0273 17.6069 9.81597 17.3958C9.6048 17.1844 9.49922 16.9192 9.49922 16.6C9.49922 16.2808 9.6048 16.0156 9.81597 15.8043L13.6205 12Z" fill="white"/>
</svg>
