<svg width="19" height="19" viewBox="0 0 19 19" fill="none" xmlns="http://www.w3.org/2000/svg">
<path d="M7.45244 14.1373C5.59978 14.1373 4.03036 13.4942 2.74419 12.2081C1.45802 10.9217 0.814941 9.3523 0.814941 7.4998C0.814941 5.64731 1.45802 4.07789 2.74419 2.79155C4.03036 1.50539 5.59978 0.862305 7.45244 0.862305C9.30494 0.862305 10.8743 1.50539 12.1604 2.79155C13.4468 4.07789 14.0899 5.64731 14.0899 7.4998C14.0899 8.24114 13.9773 8.9338 13.7519 9.5778C13.5264 10.2218 13.2217 10.7898 12.8377 11.2818L18.3899 16.8401C18.6011 17.0552 18.7067 17.3214 18.7067 17.6386C18.7067 17.9559 18.5991 18.2201 18.3839 18.4313C18.1726 18.6425 17.9074 18.7481 17.5882 18.7481C17.269 18.7481 17.0039 18.6425 16.7927 18.4313L11.2464 12.8851C10.7504 13.2692 10.1784 13.574 9.53044 13.7993C8.88244 14.0246 8.18978 14.1373 7.45244 14.1373ZM7.45244 11.8623C8.66644 11.8623 9.69703 11.4387 10.5442 10.5916C11.3914 9.74456 11.8149 8.71397 11.8149 7.4998C11.8149 6.28564 11.3914 5.25506 10.5442 4.40806C9.69703 3.56089 8.66644 3.1373 7.45244 3.1373C6.23828 3.1373 5.20761 3.56089 4.36044 4.40806C3.51344 5.25506 3.08994 6.28564 3.08994 7.4998C3.08994 8.71397 3.51344 9.74456 4.36044 10.5916C5.20761 11.4387 6.23828 11.8623 7.45244 11.8623Z" fill="#827E79"/>
</svg>
