<svg width="27" height="26" viewBox="0 0 27 26" fill="none" xmlns="http://www.w3.org/2000/svg">
<path d="M5.5013 21.9994L2.43464 25.066C2.01241 25.4882 1.52908 25.5827 0.984635 25.3494C0.440191 25.116 0.167969 24.6994 0.167969 24.0994V3.33268C0.167969 2.59935 0.42908 1.97157 0.951302 1.44935C1.47352 0.927127 2.1013 0.666016 2.83464 0.666016H24.168C24.9013 0.666016 25.5291 0.927127 26.0513 1.44935C26.5735 1.97157 26.8346 2.59935 26.8346 3.33268V19.3327C26.8346 20.066 26.5735 20.6938 26.0513 21.216C25.5291 21.7382 24.9013 21.9994 24.168 21.9994H5.5013ZM4.36797 19.3327H24.168V3.33268H2.83464V20.8327L4.36797 19.3327ZM6.83464 16.666H14.8346C15.2124 16.666 15.5291 16.5382 15.7846 16.2827C16.0402 16.0271 16.168 15.7105 16.168 15.3327C16.168 14.9549 16.0402 14.6382 15.7846 14.3827C15.5291 14.1271 15.2124 13.9993 14.8346 13.9993H6.83464C6.45686 13.9993 6.14019 14.1271 5.88464 14.3827C5.62908 14.6382 5.5013 14.9549 5.5013 15.3327C5.5013 15.7105 5.62908 16.0271 5.88464 16.2827C6.14019 16.5382 6.45686 16.666 6.83464 16.666ZM6.83464 12.666H20.168C20.5457 12.666 20.8624 12.5382 21.118 12.2827C21.3735 12.0271 21.5013 11.7105 21.5013 11.3327C21.5013 10.9549 21.3735 10.6382 21.118 10.3827C20.8624 10.1271 20.5457 9.99935 20.168 9.99935H6.83464C6.45686 9.99935 6.14019 10.1271 5.88464 10.3827C5.62908 10.6382 5.5013 10.9549 5.5013 11.3327C5.5013 11.7105 5.62908 12.0271 5.88464 12.2827C6.14019 12.5382 6.45686 12.666 6.83464 12.666ZM6.83464 8.66602H20.168C20.5457 8.66602 20.8624 8.53824 21.118 8.28268C21.3735 8.02713 21.5013 7.71046 21.5013 7.33268C21.5013 6.9549 21.3735 6.63824 21.118 6.38268C20.8624 6.12713 20.5457 5.99935 20.168 5.99935H6.83464C6.45686 5.99935 6.14019 6.12713 5.88464 6.38268C5.62908 6.63824 5.5013 6.9549 5.5013 7.33268C5.5013 7.71046 5.62908 8.02713 5.88464 8.28268C6.14019 8.53824 6.45686 8.66602 6.83464 8.66602Z" fill="#B7B1AA"/>
</svg>
