<svg width="20" height="22" viewBox="0 0 20 22" fill="none" xmlns="http://www.w3.org/2000/svg">
<path d="M8.71188 21.2034C8.24188 21.2034 7.83738 21.0484 7.49838 20.7384C7.15955 20.4284 6.9568 20.0468 6.89013 19.5936L6.66513 17.9376C6.4803 17.8663 6.30497 17.7802 6.13913 17.6794C5.97347 17.5787 5.81088 17.4717 5.65138 17.3584L4.10738 18.0084C3.67488 18.1957 3.2403 18.2134 2.80363 18.0614C2.36697 17.9094 2.02805 17.6317 1.78688 17.2284L0.498133 14.9691C0.2568 14.5698 0.187133 14.1445 0.289133 13.6934C0.391133 13.242 0.625133 12.8707 0.991133 12.5794L2.31013 11.5794C2.29747 11.4787 2.29113 11.3822 2.29113 11.2899V10.7104C2.29113 10.618 2.29747 10.5215 2.31013 10.4209L0.991133 9.42688C0.621133 9.13554 0.386133 8.76421 0.286133 8.31288C0.186133 7.86154 0.2568 7.43429 0.498133 7.03113L1.78688 4.77787C2.02805 4.37854 2.36597 4.10187 2.80063 3.94787C3.2353 3.79387 3.66888 3.81054 4.10138 3.99787L5.66338 4.64787C5.82288 4.53454 5.98663 4.42846 6.15463 4.32962C6.3228 4.23096 6.49297 4.14596 6.66513 4.07462L6.89013 2.41263C6.9568 1.95546 7.15955 1.57187 7.49838 1.26187C7.83738 0.951874 8.24188 0.796875 8.71188 0.796875H11.2889C11.7589 0.796875 12.1634 0.951874 12.5024 1.26187C12.8412 1.57187 13.044 1.95546 13.1106 2.41263L13.3356 4.07462C13.5205 4.14596 13.6958 4.23096 13.8616 4.32962C14.0273 4.42846 14.1899 4.53454 14.3494 4.64787L15.8934 3.99787C16.3259 3.81054 16.7605 3.79387 17.1971 3.94787C17.6338 4.10187 17.9727 4.37854 18.2139 4.77787L19.5026 7.03113C19.744 7.43429 19.8146 7.86154 19.7146 8.31288C19.6146 8.76421 19.3796 9.13554 19.0096 9.42688L17.6846 10.4209C17.6973 10.5215 17.7036 10.618 17.7036 10.7104V11.0001C17.7036 11.1008 17.7026 11.1974 17.7006 11.2899C17.6986 11.3822 17.685 11.4787 17.6596 11.5794L18.9846 12.5734C19.3546 12.8647 19.5896 13.236 19.6896 13.6874C19.7896 14.1387 19.719 14.566 19.4776 14.9691L18.1639 17.2284C17.9227 17.6277 17.5848 17.9044 17.1501 18.0584C16.7155 18.2124 16.2819 18.1957 15.8494 18.0084L14.3374 17.3584C14.1779 17.4717 14.0141 17.5787 13.8461 17.6794C13.678 17.7802 13.5078 17.8663 13.3356 17.9376L13.1106 19.5936C13.044 20.0468 12.8412 20.4284 12.5024 20.7384C12.1634 21.0484 11.7589 21.2034 11.2889 21.2034H8.71188ZM9.06613 18.9284H10.9036L11.2596 16.2904C11.7803 16.157 12.2665 15.9602 12.7181 15.6999C13.1696 15.4395 13.5787 15.118 13.9454 14.7354L16.4146 15.7604L17.3179 14.1681L15.1856 12.5551C15.269 12.3138 15.3293 12.062 15.3666 11.7996C15.404 11.5373 15.4226 11.2708 15.4226 11.0001C15.4226 10.7295 15.404 10.463 15.3666 10.2006C15.3293 9.93829 15.269 9.68646 15.1856 9.44512L17.3296 7.83213L16.4146 6.23988L13.9514 7.28988C13.5847 6.89454 13.1756 6.56471 12.7241 6.30038C12.2725 6.03604 11.7843 5.83921 11.2596 5.70988L10.9346 3.07188H9.08513L8.74713 5.70388C8.21847 5.83321 7.7273 6.03004 7.27363 6.29438C6.82013 6.55871 6.40805 6.88221 6.03738 7.26488L3.58038 6.23988L2.67113 7.83213L4.79713 9.41438C4.7138 9.67221 4.65347 9.92913 4.61613 10.1851C4.5788 10.4411 4.56013 10.7128 4.56013 11.0001C4.56013 11.2708 4.5788 11.5351 4.61613 11.7931C4.65347 12.0511 4.7138 12.309 4.79713 12.5669L2.67113 14.1681L3.58038 15.7604L6.03738 14.7164C6.40805 15.1077 6.82113 15.4355 7.27663 15.6999C7.7323 15.9642 8.22247 16.163 8.74713 16.2964L9.06613 18.9284ZM10.0324 14.5001C10.9991 14.5001 11.8241 14.1585 12.5074 13.4751C13.1907 12.7918 13.5324 11.9668 13.5324 11.0001C13.5324 10.0335 13.1907 9.20846 12.5074 8.52513C11.8241 7.84179 10.9991 7.50013 10.0324 7.50013C9.05305 7.50013 8.22488 7.84179 7.54788 8.52513C6.87088 9.20846 6.53238 10.0335 6.53238 11.0001C6.53238 11.9668 6.87088 12.7918 7.54788 13.4751C8.22488 14.1585 9.05305 14.5001 10.0324 14.5001Z" fill="white"/>
</svg>
