<svg width="174" height="185" viewBox="0 0 174 185" fill="none" xmlns="http://www.w3.org/2000/svg">
<circle cx="85.7144" cy="88.7007" r="39.357" stroke="#181615" stroke-width="7"/>
<circle cx="85.2863" cy="87.8566" r="16.6428" stroke="#181615" stroke-width="7"/>
<path d="M102.858 88.2348L153.6 88.1144" stroke="#181615" stroke-width="6"/>
<path d="M15.5263 88.3828H68.669" stroke="#181615" stroke-width="6"/>
<path d="M85.8759 70.8603L85.8759 26.4112" stroke="#181615" stroke-width="6"/>
<path d="M85.703 167.704L85.873 105.685" stroke="#181615" stroke-width="6"/>
<path d="M98.9534 73.3759L132.81 39.4841" stroke="#181615" stroke-width="6"/>
<path d="M51.8964 53.9987L42.4678 44.5702" stroke="#181615" stroke-width="6"/>
<path d="M112 126.706L132.496 146.104L138.32 151.615" stroke="#181615" stroke-width="6"/>
<path d="M114.143 135V153.428" stroke="#181615" stroke-width="3"/>
<path d="M110 113.408L135.648 136.288L153.559 134.522" stroke="#181615" stroke-width="6"/>
<circle cx="85.7149" cy="14.5714" r="11.5714" stroke="#181615" stroke-width="6"/>
<circle cx="157.866" cy="134.53" r="5.71425" transform="rotate(-5.62937 157.866 134.53)" stroke="#181615" stroke-width="4"/>
<circle cx="7.71425" cy="14.7143" r="4.71425" stroke="#181615" stroke-width="6"/>
<circle cx="142.435" cy="156.087" r="7.23252" transform="rotate(-8.06147 142.435 156.087)" stroke="#181615" stroke-width="4"/>
<circle cx="113.714" cy="156.871" r="2.71427" fill="#181615" stroke="#181615" stroke-width="4"/>
<circle cx="19.2865" cy="68.9994" r="2.71427" fill="#181615" stroke="#181615" stroke-width="4"/>
<path d="M79.971 102.233L65.9153 130.831L56.5728 159.429" stroke="#181615" stroke-width="5"/>
<circle cx="9.98811" cy="88.8442" r="6.56668" transform="rotate(87.4189 9.98811 88.8442)" stroke="#181615" stroke-width="6"/>
<circle cx="10.4154" cy="10.4154" r="7.41536" transform="matrix(-0.994297 0.106651 0.106651 0.994297 146.614 22.7637)" stroke="#181615" stroke-width="6"/>
<circle cx="10.4154" cy="10.4154" r="8.41536" transform="matrix(-0.976008 0.217736 0.217736 0.976008 45.1885 25.7139)" stroke="#181615" stroke-width="4"/>
<circle cx="10.4552" cy="10.4552" r="8.45519" transform="matrix(-0.976008 0.217736 0.217736 0.976008 93.2666 162)" fill="#181615" stroke="#181615" stroke-width="4"/>
<circle cx="5.99997" cy="5.99997" r="3.99997" transform="matrix(-0.976008 0.217736 0.217736 0.976008 60.5693 152.57)" fill="#181615" stroke="#181615" stroke-width="4"/>
<circle cx="85.5" cy="14.5" r="3.5" fill="#181615" stroke="#181615" stroke-width="4"/>
<circle cx="161.571" cy="87.8572" r="9.42852" stroke="#181615" stroke-width="6"/>
<path d="M50.9997 123.095L41.1366 132.958" stroke="#181615" stroke-width="6"/>
<circle cx="35.5731" cy="138.673" r="9.42852" transform="rotate(136.084 35.5731 138.673)" stroke="#181615" stroke-width="6"/>
<path d="M86.1288 39.8788L85.2261 40.7489L85.211 42.0026L84.8864 68.8401L84.8554 71.4061L87.3855 71.8343C89.8584 72.2529 93.6194 73.5603 95.4704 74.7916L97.4638 76.1177L99.1991 74.468L118.924 55.7149L119.907 54.7807L119.855 53.4259C119.542 45.2741 113.888 39.1131 107.202 36.3809C100.501 33.6426 92.134 34.0907 86.1288 39.8788Z" fill="#BA6FD1" stroke="#181615" stroke-width="6"/>
<path d="M119.472 54.3298L118.218 54.3284L117.336 55.2195L98.4567 74.2963L96.6516 76.1202L98.1738 78.1861C99.6615 80.2052 101.458 83.7586 101.934 85.9302L102.446 88.269L104.841 88.2881L132.056 88.5048L133.412 88.5156L134.316 87.5051C139.755 81.4252 139.969 73.0656 137.058 66.455C134.141 59.8298 127.812 54.3392 119.472 54.3298Z" fill="#C889DB" stroke="#181615" stroke-width="6"/>
<path d="M37.6445 87.3204L38.5145 88.2231L39.7682 88.2382L66.6058 88.5628L69.1717 88.5938L69.6 86.0637C70.0185 83.5908 71.3259 79.8298 72.5572 77.9789L73.8834 75.9854L72.2336 74.2501L53.4805 54.5253L52.5463 53.5426L51.1915 53.5946C43.0397 53.9069 36.8787 59.5612 34.1465 66.2474C31.4082 72.9485 31.8564 81.3152 37.6445 87.3204Z" fill="#F4E7F8" stroke="#181615" stroke-width="6"/>
<path d="M120.378 122.637L119.124 122.653L118.232 121.772L99.1378 102.91L97.3122 101.107L98.8109 99.0235C100.276 96.9877 102.032 93.4142 102.483 91.2374L102.969 88.8929L105.363 88.8468L132.575 88.322L133.93 88.2959L134.845 89.2961C140.353 95.3141 140.661 103.671 137.826 110.314C134.984 116.972 128.718 122.534 120.378 122.637Z" fill="#D5A5E4" stroke="#181615" stroke-width="6"/>
<path d="M51.9605 53.324L51.9374 54.5776L52.8132 55.4748L71.5607 74.6813L73.3532 76.5176L75.4451 75.0314C77.4896 73.5787 81.0735 71.8438 83.253 71.4056L85.6003 70.9338L85.6608 68.5402L86.3479 41.3322L86.3822 39.9768L85.3874 39.0555C79.4024 33.5122 71.0478 33.1539 64.3879 35.9498C57.7132 38.7519 52.114 44.9849 51.9605 53.324Z" fill="#FDFCFE" stroke="#181615" stroke-width="6"/>
<path d="M51.7293 122.257L52.9828 122.28L53.88 121.405L73.0866 102.657L74.9229 100.865L73.4366 98.7727C71.984 96.7281 70.2491 93.1442 69.8109 90.9648L69.339 88.6174L66.9455 88.557L39.7375 87.8698L38.3821 87.8356L37.4607 88.8303C31.9174 94.8154 31.5591 103.17 34.3551 109.83C37.1572 116.505 43.3902 122.104 51.7293 122.257Z" fill="#E5C7EE" stroke="#181615" stroke-width="6"/>
<path d="M87.1712 136.921L86.27 136.05L86.2569 134.796L85.978 107.958L85.9513 105.392L88.4822 104.968C90.9558 104.553 94.719 103.252 96.572 102.024L98.5678 100.702L100.3 102.354L119.993 121.141L120.974 122.077L120.92 123.432C120.594 131.583 114.929 137.734 108.238 140.455C101.532 143.182 93.1665 142.719 87.1712 136.921Z" fill="#D8ABE5" stroke="#181615" stroke-width="6"/>
<path d="M52.8902 121.695L52.9315 120.442L53.8521 119.591L73.561 101.372L75.4454 99.63L77.4582 101.222C79.4255 102.777 82.9156 104.694 85.0697 105.244L87.3897 105.835L87.3272 108.229L86.6166 135.436L86.5812 136.792L85.5405 137.661C79.2788 142.889 70.9167 142.818 64.4092 139.684C57.8872 136.543 52.6153 130.031 52.8902 121.695Z" fill="#DCB5E8" stroke="#181615" stroke-width="6"/>
<circle cx="85.7142" cy="88.2855" r="16.2142" stroke="#181615" stroke-width="7"/>
</svg>
