<svg width="1076" height="227" viewBox="0 0 1076 227" fill="none" xmlns="http://www.w3.org/2000/svg">
<path d="M977.745 32.0562H996.955V103.341H1003.42L1037.56 67.1979H1062.5L1019.44 112.9L1066.33 161.516H1039.47L1001.69 122.551H996.955V161.516H977.745V32.0562Z" fill="#181615"/>
<path d="M912.196 93.5996C912.196 88.7441 913.41 84.3134 915.838 80.3076C918.326 76.3018 921.604 73.1154 925.67 70.7484C929.798 68.3813 934.35 67.1978 939.326 67.1978H960.357V86.3163H939.326C937.141 86.3163 935.26 87.075 933.682 88.5924C932.165 90.049 931.406 91.8395 931.406 93.9638V161.516H912.196V93.5996Z" fill="#181615"/>
<path d="M802.583 101.247C802.583 94.9956 804.1 89.2903 807.135 84.1314C810.23 78.9724 814.358 74.8755 819.517 71.8408C824.676 68.7455 830.381 67.1978 836.632 67.1978H857.208C863.459 67.1978 869.164 68.7455 874.323 71.8408C879.482 74.8755 883.579 78.9724 886.614 84.1314C889.709 89.2903 891.257 94.9956 891.257 101.247V127.467C891.257 133.718 889.709 139.424 886.614 144.583C883.579 149.742 879.482 153.869 874.323 156.964C869.164 159.999 863.459 161.516 857.208 161.516H836.632C830.381 161.516 824.676 159.999 819.517 156.964C814.358 153.869 810.23 149.742 807.135 144.583C804.1 139.424 802.583 133.718 802.583 127.467V101.247ZM821.793 127.285C821.793 131.412 823.249 134.963 826.163 137.937C829.076 140.85 832.566 142.307 836.632 142.307H857.208C861.335 142.307 864.825 140.85 867.677 137.937C870.591 134.963 872.047 131.412 872.047 127.285V101.429C872.047 97.3019 870.591 93.7817 867.677 90.8684C864.825 87.8944 861.335 86.4074 857.208 86.4074H836.632C832.566 86.4074 829.076 87.8944 826.163 90.8684C823.249 93.7817 821.793 97.3019 821.793 101.429V127.285Z" fill="#181615"/>
<path d="M668.389 32.0562L685.322 129.652L708.629 87.2269H726.746L750.052 129.652L766.986 32.0562H786.195L763.708 161.516H746.411L717.642 109.441L688.964 161.516H671.575L649.088 32.0562H668.389Z" fill="#181615"/>
<path fill-rule="evenodd" clip-rule="evenodd" d="M974.017 28.3271H1000.68V99.6122H1001.81L1035.95 63.4689H1071.14L1024.59 112.871L1075.11 165.245H1037.89L1000.68 126.871V165.245H974.017V28.3271ZM1001.69 122.551L1039.47 161.516H1066.33L1019.44 112.9L1062.5 67.1979H1037.56L1003.42 103.341H996.955V32.0562H977.745V161.516H996.955V122.551H1001.69Z" fill="#181615"/>
<path fill-rule="evenodd" clip-rule="evenodd" d="M915.838 80.3076C913.41 84.3134 912.196 88.7441 912.196 93.5996V161.516H931.406V93.9638C931.406 91.8395 932.165 90.049 933.682 88.5924C935.26 87.075 937.141 86.3163 939.326 86.3163H960.357V67.1978H939.326C934.35 67.1978 929.798 68.3813 925.67 70.7484C921.604 73.1154 918.326 76.3018 915.838 80.3076ZM912.659 78.3574L912.67 78.3399C915.479 73.8177 919.2 70.1999 923.794 67.5256L923.804 67.5196L923.815 67.5136C928.533 64.8075 933.729 63.4688 939.326 63.4688H964.086V90.0454H939.326C938.107 90.0454 937.151 90.4296 936.266 91.2804L936.264 91.2825C935.487 92.0281 935.135 92.8435 935.135 93.9638V165.245H908.467V93.5996C908.467 88.0888 909.854 82.9855 912.648 78.3749L912.659 78.3574Z" fill="#181615"/>
<path fill-rule="evenodd" clip-rule="evenodd" d="M807.135 84.1314C804.1 89.2903 802.583 94.9956 802.583 101.247V127.467C802.583 133.718 804.1 139.424 807.135 144.583C810.23 149.742 814.358 153.869 819.517 156.964C824.676 159.999 830.381 161.516 836.632 161.516H857.208C863.459 161.516 869.164 159.999 874.323 156.964C879.482 153.869 883.579 149.742 886.614 144.583C889.709 139.424 891.257 133.718 891.257 127.467V101.247C891.257 94.9956 889.709 89.2903 886.614 84.1314C883.579 78.9724 879.482 74.8755 874.323 71.8408C869.164 68.7455 863.459 67.1978 857.208 67.1978H836.632C830.381 67.1978 824.676 68.7455 819.517 71.8408C814.358 74.8755 810.23 78.9724 807.135 84.1314ZM876.227 68.6348C881.921 71.9874 886.466 76.5321 889.819 82.2261C893.271 87.9844 894.985 94.3527 894.985 101.247V127.467C894.985 134.361 893.271 140.729 889.819 146.488C886.467 152.18 881.927 156.75 876.241 160.162L876.227 160.17L876.214 160.178C870.455 163.565 864.093 165.245 857.207 165.245H836.632C829.746 165.245 823.384 163.565 817.625 160.178L817.612 160.17L817.598 160.162C811.914 156.751 807.347 152.185 803.937 146.501L803.929 146.487L803.92 146.473C800.533 140.715 798.854 134.352 798.854 127.467V101.247C798.854 94.3616 800.533 87.9988 803.92 82.2407L803.929 82.2267L803.937 82.2128C807.349 76.5268 811.92 71.9859 817.612 68.6343C823.37 65.1832 829.738 63.4688 836.632 63.4688H857.207C864.101 63.4688 870.469 65.1834 876.227 68.6348ZM826.163 137.937C823.249 134.963 821.793 131.412 821.793 127.285V101.429C821.793 97.3019 823.249 93.7817 826.163 90.8684C829.076 87.8944 832.566 86.4074 836.632 86.4074H857.208C861.335 86.4074 864.825 87.8944 867.677 90.8684C870.591 93.7817 872.047 97.3019 872.047 101.429V127.285C872.047 131.412 870.591 134.963 867.677 137.937C864.825 140.85 861.335 142.307 857.208 142.307H836.632C832.566 142.307 829.076 140.85 826.163 137.937ZM865.013 135.327C867.25 133.043 868.318 130.427 868.318 127.285V101.429C868.318 98.289 867.253 95.7179 865.04 93.5052L865.013 93.4778L864.986 93.4498C862.837 91.2102 860.32 90.1365 857.207 90.1365H836.632C833.594 90.1365 831.057 91.2008 828.826 93.4779L828.813 93.4917L828.799 93.5052C826.586 95.7179 825.521 98.289 825.521 101.429V127.285C825.521 130.421 826.585 133.033 828.813 135.313C831.034 137.528 833.575 138.577 836.632 138.577H857.207C860.345 138.577 862.871 137.514 865.013 135.327Z" fill="#181615"/>
<path fill-rule="evenodd" clip-rule="evenodd" d="M671.526 28.3271L687.177 118.53L706.422 83.4979H728.952L748.197 118.53L763.848 28.3271H790.628L766.846 165.245H744.21L717.647 117.162L691.167 165.245H668.438L644.655 28.3271H671.526ZM717.642 109.441L746.411 161.516H763.708L786.195 32.0562H766.986L750.052 129.652L726.746 87.2269H708.629L685.322 129.652L668.389 32.0562H649.088L671.575 161.516H688.964L717.642 109.441Z" fill="#181615"/>
<path d="M577.413 89.1182C577.413 84.2627 578.627 79.832 581.054 75.8262C583.543 71.8204 586.82 68.634 590.887 66.2669C595.014 63.8999 599.566 62.7163 604.543 62.7163H625.573V81.8349H604.543C602.358 81.8349 600.476 82.5936 598.898 84.1109C597.381 85.5676 596.622 87.3581 596.622 89.4824V157.035H577.413V89.1182Z" fill="#181615"/>
<path fill-rule="evenodd" clip-rule="evenodd" d="M577.876 73.8759L577.887 73.8585C580.696 69.3363 584.416 65.7184 589.011 63.0441L589.021 63.0381L589.031 63.0322C593.75 60.3261 598.946 58.9873 604.543 58.9873H629.302V85.564H604.543C603.324 85.564 602.368 85.9481 601.483 86.799L601.481 86.801C600.704 87.5466 600.351 88.362 600.351 89.4824V160.764H573.684V89.1182C573.684 83.6073 575.071 78.504 577.865 73.8935L577.876 73.8759ZM581.054 75.8262C578.627 79.832 577.413 84.2627 577.413 89.1182V157.035H596.622V89.4824C596.622 87.3581 597.381 85.5676 598.898 84.1109C600.476 82.5936 602.358 81.8349 604.543 81.8349H625.573V62.7163H604.543C599.566 62.7163 595.014 63.8999 590.887 66.2669C586.82 68.634 583.543 71.8204 581.054 75.8262Z" fill="#181615"/>
<path d="M469.801 82.1991C469.801 76.7973 471.774 72.2149 475.719 68.4519C479.664 64.6282 484.398 62.7163 489.921 62.7163H529.251C534.289 62.7163 538.841 63.9606 542.907 66.449C547.034 68.8768 550.312 72.1846 552.74 76.3725C555.228 80.4997 556.472 85.0821 556.472 90.1197V92.7598C556.472 97.7367 555.228 102.289 552.74 106.416C550.312 110.482 547.034 113.76 542.907 116.248C538.841 118.676 534.289 119.89 529.251 119.89H499.936V100.771H529.433C531.618 100.771 533.469 99.9824 534.987 98.4044C536.565 96.8263 537.354 94.9145 537.354 92.6688V90.1197C537.354 87.8133 536.565 85.8711 534.987 84.293C533.469 82.715 531.618 81.926 529.433 81.926H489.011V130.36C489.011 132.423 489.709 134.183 491.105 135.64C492.501 137.097 494.2 137.825 496.203 137.825H549.826V157.035H496.203C491.348 157.035 486.917 155.851 482.911 153.484C478.905 151.056 475.719 147.84 473.352 143.834C470.985 139.767 469.801 135.306 469.801 130.451V82.1991Z" fill="#181615"/>
<path fill-rule="evenodd" clip-rule="evenodd" d="M544.826 119.446L544.819 119.45C540.137 122.245 534.917 123.619 529.251 123.619H496.207V97.0424H529.433C530.602 97.0424 531.483 96.6682 532.299 95.8197L532.324 95.7934L532.35 95.7675C533.224 94.8938 533.625 93.9324 533.625 92.6688V90.1197C533.625 88.7653 533.203 87.7828 532.35 86.9299L532.324 86.904L532.299 86.8777C531.483 86.0292 530.602 85.655 529.433 85.655H492.74V130.36C492.74 131.486 493.083 132.315 493.797 133.06C494.496 133.789 495.225 134.096 496.203 134.096H553.555V160.764H496.203C490.711 160.764 485.62 159.416 481.014 156.695L480.996 156.684L480.978 156.673C476.45 153.929 472.824 150.27 470.141 145.731L470.135 145.72L470.129 145.71C467.42 141.055 466.072 135.943 466.072 130.451V82.1991C466.072 75.772 468.466 70.2214 473.134 65.7638C477.777 61.2687 483.44 58.9873 489.921 58.9873H529.251C534.924 58.9873 540.147 60.3951 544.826 63.2513C549.491 66.0015 553.211 69.76 555.95 74.4747C558.794 79.2027 560.201 84.4467 560.201 90.1197V92.7598C560.201 98.3892 558.785 103.608 555.937 108.334C553.191 112.933 549.472 116.644 544.833 119.442L544.826 119.446ZM552.74 106.416C555.228 102.289 556.472 97.7367 556.472 92.7598V90.1197C556.472 85.0821 555.228 80.4997 552.74 76.3725C550.312 72.1846 547.034 68.8768 542.907 66.449C538.841 63.9606 534.289 62.7163 529.251 62.7163H489.921C484.398 62.7163 479.664 64.6282 475.719 68.4519C471.774 72.2149 469.801 76.7973 469.801 82.1991V130.451C469.801 135.306 470.985 139.767 473.352 143.834C475.719 147.84 478.905 151.056 482.911 153.484C486.917 155.851 491.348 157.035 496.203 157.035H549.826V137.825H496.203C494.2 137.825 492.501 137.097 491.105 135.64C489.709 134.183 489.011 132.423 489.011 130.36V81.926H529.433C531.618 81.926 533.469 82.715 534.987 84.293C536.565 85.8711 537.354 87.8133 537.354 90.1197V92.6688C537.354 94.9145 536.565 96.8263 534.987 98.4044C533.469 99.9824 531.618 100.771 529.433 100.771H499.936V119.89H529.251C534.289 119.89 538.841 118.676 542.907 116.248C547.034 113.76 550.312 110.482 552.74 106.416Z" fill="#181615"/>
<path d="M347.807 62.7166L358.641 125.171L381.947 85.3857H400.064L423.371 125.171L434.205 62.7166H453.414L437.118 157.035H420.275L391.051 107.6L361.736 157.035H344.894L336.7 109.876L328.506 62.7166H347.807Z" fill="#181615"/>
<path fill-rule="evenodd" clip-rule="evenodd" d="M350.945 58.9875L360.573 114.494L379.81 81.6567H402.202L421.438 114.494L431.067 58.9875H457.843L440.258 160.764H418.148L391.046 114.919L363.86 160.764H341.757L324.073 58.9875H350.945ZM391.051 107.6L420.275 157.035H437.118L453.414 62.7166H434.205L423.371 125.171L400.064 85.3857H381.947L358.641 125.171L347.807 62.7166H328.506L336.7 109.876L344.894 157.035H361.736L391.051 107.6Z" fill="#181615"/>
<path d="M112.25 27.5747H131.459V157.035H112.25V27.5747Z" fill="#181615"/>
<path fill-rule="evenodd" clip-rule="evenodd" d="M108.521 23.8457H135.188V160.764H108.521V23.8457ZM112.25 27.5747V157.035H131.459V27.5747H112.25Z" fill="#181615"/>
<path d="M3.72904 27.5747H90.4V46.6933H22.9387V157.035H3.72904V27.5747ZM33.8636 80.1053H90.4V99.2239H33.8636V80.1053Z" fill="#181615"/>
<path fill-rule="evenodd" clip-rule="evenodd" d="M0 23.8457H94.129V50.4224H26.6677V160.764H0V23.8457ZM22.9387 46.6933H90.4V27.5747H3.72904V157.035H22.9387V46.6933ZM30.1345 76.3763H94.129V102.953H30.1345V76.3763ZM33.8636 80.1053V99.2239H90.4V80.1053H33.8636Z" fill="#181615"/>
<circle cx="230.714" cy="97.7007" r="39.357" stroke="#181615" stroke-width="7"/>
<circle cx="230.286" cy="96.8566" r="16.6428" stroke="#181615" stroke-width="7"/>
<path d="M247.858 97.2348L298.6 97.1144" stroke="#181615" stroke-width="6"/>
<path d="M160.526 97.3828H213.669" stroke="#181615" stroke-width="6"/>
<path d="M230.876 79.8603L230.876 35.4112" stroke="#181615" stroke-width="6"/>
<path d="M230.703 176.704L230.873 114.684" stroke="#181615" stroke-width="6"/>
<path d="M243.953 82.3759L277.81 48.4841" stroke="#181615" stroke-width="6"/>
<path d="M196.896 62.9987L187.468 53.5702" stroke="#181615" stroke-width="6"/>
<path d="M257 135.705L277.496 155.103L283.32 160.614" stroke="#181615" stroke-width="6"/>
<path d="M259.143 144V162.428" stroke="#181615" stroke-width="3"/>
<path d="M255 122.408L280.648 145.288L298.559 143.522" stroke="#181615" stroke-width="6"/>
<circle cx="230.715" cy="23.5714" r="11.5714" stroke="#181615" stroke-width="6"/>
<circle cx="302.866" cy="143.53" r="5.71425" transform="rotate(-5.62937 302.866 143.53)" stroke="#181615" stroke-width="4"/>
<circle cx="152.714" cy="23.7143" r="4.71425" stroke="#181615" stroke-width="6"/>
<circle cx="287.435" cy="165.087" r="7.23252" transform="rotate(-8.06147 287.435 165.087)" stroke="#181615" stroke-width="4"/>
<circle cx="258.714" cy="165.871" r="2.71427" fill="#181615" stroke="#181615" stroke-width="4"/>
<circle cx="164.287" cy="77.9994" r="2.71427" fill="#181615" stroke="#181615" stroke-width="4"/>
<path d="M224.971 111.232L210.915 139.831L201.573 168.428" stroke="#181615" stroke-width="5"/>
<circle cx="154.988" cy="97.8442" r="6.56668" transform="rotate(87.4189 154.988 97.8442)" stroke="#181615" stroke-width="6"/>
<circle cx="10.4154" cy="10.4154" r="7.41536" transform="matrix(-0.994297 0.106651 0.106651 0.994297 291.614 31.7637)" stroke="#181615" stroke-width="6"/>
<circle cx="10.4154" cy="10.4154" r="8.41536" transform="matrix(-0.976008 0.217736 0.217736 0.976008 190.188 34.7139)" stroke="#181615" stroke-width="4"/>
<circle cx="10.4552" cy="10.4552" r="8.45519" transform="matrix(-0.976008 0.217736 0.217736 0.976008 238.267 171)" fill="#181615" stroke="#181615" stroke-width="4"/>
<circle cx="5.99997" cy="5.99997" r="3.99997" transform="matrix(-0.976008 0.217736 0.217736 0.976008 205.569 161.571)" fill="#181615" stroke="#181615" stroke-width="4"/>
<circle cx="230.5" cy="23.5" r="3.5" fill="#181615" stroke="#181615" stroke-width="4"/>
<circle cx="306.572" cy="96.8572" r="9.42852" stroke="#181615" stroke-width="6"/>
<path d="M196 132.095L186.137 141.958" stroke="#181615" stroke-width="6"/>
<circle cx="180.573" cy="147.673" r="9.42852" transform="rotate(136.084 180.573 147.673)" stroke="#181615" stroke-width="6"/>
<path d="M231.129 48.8788L230.226 49.7489L230.211 51.0026L229.886 77.8401L229.855 80.4061L232.386 80.8343C234.858 81.2529 238.619 82.5603 240.47 83.7916L242.464 85.1177L244.199 83.468L263.924 64.7149L264.907 63.7807L264.855 62.4259C264.542 54.2741 258.888 48.1131 252.202 45.3809C245.501 42.6426 237.134 43.0907 231.129 48.8788Z" fill="#BA6FD1" stroke="#181615" stroke-width="6"/>
<path d="M264.472 63.3303L263.218 63.3289L262.336 64.22L243.457 83.2968L241.652 85.1207L243.174 87.1866C244.662 89.2057 246.458 92.7591 246.934 94.9307L247.446 97.2695L249.841 97.2886L277.056 97.5053L278.412 97.5161L279.316 96.5056C284.755 90.4257 284.969 82.0661 282.058 75.4555C279.141 68.8303 272.812 63.3396 264.472 63.3303Z" fill="#C889DB" stroke="#181615" stroke-width="6"/>
<path d="M182.644 96.3204L183.515 97.2231L184.768 97.2382L211.606 97.5628L214.172 97.5938L214.6 95.0637C215.019 92.5908 216.326 88.8298 217.557 86.9789L218.883 84.9854L217.234 83.2501L198.481 63.5253L197.546 62.5426L196.191 62.5946C188.04 62.9069 181.879 68.5612 179.146 75.2474C176.408 81.9485 176.856 90.3152 182.644 96.3204Z" fill="#F4E7F8" stroke="#181615" stroke-width="6"/>
<path d="M265.378 131.637L264.124 131.653L263.232 130.772L244.138 111.91L242.312 110.107L243.811 108.024C245.276 105.988 247.032 102.414 247.483 100.237L247.969 97.8929L250.363 97.8468L277.575 97.322L278.93 97.2959L279.845 98.2961C285.353 104.314 285.661 112.671 282.826 119.314C279.984 125.972 273.718 131.534 265.378 131.637Z" fill="#D5A5E4" stroke="#181615" stroke-width="6"/>
<path d="M196.961 62.324L196.937 63.5776L197.813 64.4748L216.561 83.6813L218.353 85.5176L220.445 84.0314C222.49 82.5787 226.074 80.8438 228.253 80.4056L230.6 79.9338L230.661 77.5402L231.348 50.3322L231.382 48.9768L230.387 48.0555C224.402 42.5122 216.048 42.1539 209.388 44.9498C202.713 47.7519 197.114 53.9849 196.961 62.324Z" fill="#FDFCFE" stroke="#181615" stroke-width="6"/>
<path d="M196.729 131.257L197.983 131.28L198.88 130.405L218.087 111.657L219.923 109.865L218.437 107.773C216.984 105.728 215.249 102.144 214.811 99.9648L214.339 97.6174L211.945 97.557L184.737 96.8698L183.382 96.8356L182.461 97.8303C176.917 103.815 176.559 112.17 179.355 118.83C182.157 125.505 188.39 131.104 196.729 131.257Z" fill="#E5C7EE" stroke="#181615" stroke-width="6"/>
<path d="M232.171 145.922L231.27 145.05L231.257 143.796L230.978 116.958L230.951 114.392L233.482 113.968C235.956 113.554 239.719 112.253 241.572 111.025L243.568 109.702L245.3 111.355L264.993 130.141L265.974 131.077L265.92 132.432C265.594 140.583 259.929 146.735 253.238 149.455C246.532 152.182 238.167 151.72 232.171 145.922Z" fill="#D8ABE5" stroke="#181615" stroke-width="6"/>
<path d="M197.89 130.695L197.931 129.442L198.852 128.591L218.561 110.372L220.445 108.63L222.458 110.222C224.426 111.777 227.916 113.694 230.07 114.244L232.39 114.835L232.327 117.229L231.617 144.436L231.581 145.792L230.54 146.661C224.279 151.889 215.917 151.818 209.409 148.684C202.887 145.543 197.615 139.031 197.89 130.695Z" fill="#DCB5E8" stroke="#181615" stroke-width="6"/>
<circle cx="230.714" cy="97.2855" r="16.2142" stroke="#181615" stroke-width="7"/>
</svg>
