<svg width="18" height="16" viewBox="0 0 18 16" fill="none" xmlns="http://www.w3.org/2000/svg">
<path fill-rule="evenodd" clip-rule="evenodd" d="M0 1C0 0.447715 0.447715 0 1 0H5C5.55228 0 6 0.447715 6 1C6 1.55228 5.55228 2 5 2H4V4H8C8 3.46957 8.21071 2.96086 8.58579 2.58579C8.96086 2.21071 9.46957 2 10 2H16C16.5304 2 17.0391 2.21071 17.4142 2.58579C17.7893 2.96086 18 3.46957 18 4V6C18 6.53043 17.7893 7.03914 17.4142 7.41421C17.0391 7.78929 16.5304 8 16 8H10C9.46957 8 8.96086 7.78929 8.58579 7.41421C8.21071 7.03914 8 6.53043 8 6H4V12H8C8 11.4696 8.21071 10.9609 8.58579 10.5858C8.96086 10.2107 9.46957 10 10 10H16C16.5304 10 17.0391 10.2107 17.4142 10.5858C17.7893 10.9609 18 11.4696 18 12V14C18 14.5304 17.7893 15.0391 17.4142 15.4142C17.0391 15.7893 16.5304 16 16 16H10C9.46957 16 8.96086 15.7893 8.58579 15.4142C8.21071 15.0391 8 14.5304 8 14H4C3.46957 14 2.96086 13.7893 2.58579 13.4142C2.21071 13.0391 2 12.5304 2 12V2H1C0.447715 2 0 1.55228 0 1ZM10 14H16V12H10V14ZM10 6H16V4H10V6Z" fill="#827E79"/>
</svg>
