<svg width="32" height="33" viewBox="0 0 32 33" fill="none" xmlns="http://www.w3.org/2000/svg">
<g clip-path="url(#clip0_2220_68110)">
<path d="M14.0736 12.522V17.7354C13.8261 17.6787 13.5765 17.6317 13.3254 17.5945C10.8228 17.208 8.53612 18.9124 8.16206 21.5496C7.98021 22.7287 8.25962 23.9326 8.94224 24.911C9.62486 25.8895 10.6582 26.5673 11.8276 26.8038C14.3506 27.3109 16.8517 25.4656 17.149 22.8487C17.2461 21.9753 17.2069 21.0832 17.2069 20.1895V0.390625H22.1731C22.7052 5.21905 25.3065 7.8563 29.9956 8.3634V13.4344C28.6139 13.4469 27.2405 13.2208 25.9357 12.7661C24.5998 12.3069 23.3533 11.6201 22.2514 10.7361V11.1024C22.2514 14.7538 22.2717 18.4053 22.2717 22.0567C22.2717 25.6675 20.7739 28.4878 17.8377 30.4756C16.0847 31.6729 14.1127 32.1596 12.0045 31.9969C8.81158 31.7543 6.31051 30.2533 4.53721 27.5143C1.79824 23.2337 2.86252 17.4114 6.88178 14.3672C8.9321 12.8256 11.236 12.2183 13.7386 12.4609C13.8372 12.4813 13.9562 12.5016 14.0736 12.5235V12.522Z" fill="#282624"/>
</g>
<defs>
<clipPath id="clip0_2220_68110">
<rect width="32" height="32" fill="white" transform="translate(0 0.207031)"/>
</clipPath>
</defs>
</svg>
