<svg width="12" height="8" viewBox="0 0 12 8" fill="none" xmlns="http://www.w3.org/2000/svg">
<path d="M5.99961 2.99131L2.19536 6.7958C1.98403 7.00697 1.71878 7.11256 1.39961 7.11256C1.08044 7.11256 0.815193 7.00697 0.60386 6.7958C0.392693 6.58447 0.287109 6.31922 0.287109 6.00005C0.287109 5.68089 0.392693 5.41564 0.60386 5.20431L5.19786 0.610304C5.42586 0.382471 5.69311 0.268555 5.99961 0.268555C6.30611 0.268555 6.57336 0.382471 6.80136 0.610304L11.3954 5.20431C11.6065 5.41564 11.7121 5.68089 11.7121 6.00005C11.7121 6.31922 11.6065 6.58447 11.3954 6.7958C11.184 7.00697 10.9188 7.11256 10.5996 7.11256C10.2804 7.11256 10.0152 7.00697 9.80386 6.7958L5.99961 2.99131Z" fill="white"/>
</svg>
