<svg width="16" height="20" viewBox="0 0 16 20" fill="none" xmlns="http://www.w3.org/2000/svg">
<path d="M8 19.532C7.76667 19.532 7.53333 19.4904 7.3 19.407C7.06667 19.3237 6.85833 19.1987 6.675 19.032C5.59167 18.032 4.63333 17.057 3.8 16.107C2.96667 15.157 2.27083 14.2362 1.7125 13.3445C1.15417 12.4529 0.729167 11.5945 0.4375 10.7695C0.145833 9.94453 0 9.15703 0 8.40703C0 5.90703 0.804167 3.91536 2.4125 2.43203C4.02083 0.948698 5.88333 0.207031 8 0.207031C10.1167 0.207031 11.9792 0.948698 13.5875 2.43203C15.1958 3.91536 16 5.90703 16 8.40703C16 9.15703 15.8542 9.94453 15.5625 10.7695C15.2708 11.5945 14.8458 12.4529 14.2875 13.3445C13.7292 14.2362 13.0333 15.157 12.2 16.107C11.3667 17.057 10.4083 18.032 9.325 19.032C9.14167 19.1987 8.93333 19.3237 8.7 19.407C8.46667 19.4904 8.23333 19.532 8 19.532ZM8 10.207C8.55 10.207 9.02083 10.0112 9.4125 9.61953C9.80417 9.22786 10 8.75703 10 8.20703C10 7.65703 9.80417 7.1862 9.4125 6.79453C9.02083 6.40286 8.55 6.20703 8 6.20703C7.45 6.20703 6.97917 6.40286 6.5875 6.79453C6.19583 7.1862 6 7.65703 6 8.20703C6 8.75703 6.19583 9.22786 6.5875 9.61953C6.97917 10.0112 7.45 10.207 8 10.207Z" fill="#181615"/>
</svg>
