<svg width="29" height="22" viewBox="0 0 29 22" fill="none" xmlns="http://www.w3.org/2000/svg">
<path d="M3.92786 21.9378C3.08831 21.9378 2.37286 21.6422 1.78153 21.0508C1.1902 20.4595 0.894531 19.7441 0.894531 18.9045V3.09583C0.894531 2.25628 1.1902 1.54083 1.78153 0.9495C2.37286 0.358166 3.08831 0.0625 3.92786 0.0625H19.7365C20.5761 0.0625 21.2915 0.358166 21.8829 0.9495C22.4742 1.54083 22.7699 2.25628 22.7699 3.09583V9.00017L26.8105 4.9595C27.0592 4.71083 27.3369 4.64994 27.6435 4.77683C27.95 4.90394 28.1032 5.14172 28.1032 5.49017V16.5102C28.1032 16.8586 27.95 17.0964 27.6435 17.2235C27.3369 17.3504 27.0592 17.2895 26.8105 17.0408L22.7699 13.0002V18.9045C22.7699 19.7441 22.4742 20.4595 21.8829 21.0508C21.2915 21.6422 20.5761 21.9378 19.7365 21.9378H3.92786ZM3.92786 18.9045H19.7365V3.09583H3.92786V18.9045Z" fill="#B7B1AA"/>
</svg>
