<svg width="22" height="16" viewBox="0 0 22 16" fill="none" xmlns="http://www.w3.org/2000/svg">
<path d="M10.9009 12.4372C12.1509 12.4372 13.2134 11.9997 14.0884 11.1247C14.9634 10.2497 15.4009 9.1872 15.4009 7.9372C15.4009 6.6872 14.9634 5.6247 14.0884 4.7497C13.2134 3.8747 12.1509 3.4372 10.9009 3.4372C9.65087 3.4372 8.58837 3.8747 7.71337 4.7497C6.83837 5.6247 6.40087 6.6872 6.40087 7.9372C6.40087 9.1872 6.83837 10.2497 7.71337 11.1247C8.58837 11.9997 9.65087 12.4372 10.9009 12.4372ZM10.9019 10.5117C10.187 10.5117 9.57912 10.2615 9.07812 9.7612C8.57695 9.2607 8.32637 8.65304 8.32637 7.9382C8.32637 7.22337 8.57653 6.61545 9.07687 6.11445C9.57737 5.61329 10.185 5.3627 10.8999 5.3627C11.6147 5.3627 12.2226 5.61287 12.7236 6.1132C13.2248 6.6137 13.4754 7.22137 13.4754 7.9362C13.4754 8.65104 13.2252 9.25895 12.7249 9.75995C12.2244 10.2611 11.6167 10.5117 10.9019 10.5117ZM10.9009 15.6225C8.6437 15.6225 6.58228 15.0185 4.71662 13.8105C2.85112 12.6026 1.38103 11.0034 0.306367 9.0127C0.211034 8.84287 0.140534 8.66779 0.0948671 8.48745C0.0492005 8.30729 0.0263672 8.12387 0.0263672 7.9372C0.0263672 7.75054 0.0492005 7.56712 0.0948671 7.38695C0.140534 7.20662 0.211034 7.03154 0.306367 6.8617C1.38103 4.87104 2.85112 3.27179 4.71662 2.06395C6.58228 0.855953 8.6437 0.251953 10.9009 0.251953C13.158 0.251953 15.2194 0.855953 17.0851 2.06395C18.9506 3.27179 20.4207 4.87104 21.4954 6.8617C21.5907 7.03154 21.6612 7.20662 21.7069 7.38695C21.7525 7.56712 21.7754 7.75054 21.7754 7.9372C21.7754 8.12387 21.7525 8.30729 21.7069 8.48745C21.6612 8.66779 21.5907 8.84287 21.4954 9.0127C20.4207 11.0034 18.9506 12.6026 17.0851 13.8105C15.2194 15.0185 13.158 15.6225 10.9009 15.6225ZM10.9014 13.4372C12.7804 13.4372 14.5054 12.9404 16.0764 11.9467C17.6474 10.953 18.8495 9.61654 19.6829 7.9372C18.8495 6.25787 17.6472 4.92137 16.0759 3.9277C14.5045 2.93404 12.7794 2.4372 10.9004 2.4372C9.02137 2.4372 7.29637 2.93404 5.72537 3.9277C4.15437 4.92137 2.9522 6.25787 2.11887 7.9372C2.9522 9.61654 4.15453 10.953 5.72587 11.9467C7.2972 12.9404 9.02237 13.4372 10.9014 13.4372Z" fill="#B7B1AA"/>
</svg>
